<?xml version="1.0" standalone="no"?>
<!DOCTYPE svg PUBLIC "-//W3C//DTD SVG 20010904//EN"
 "http://www.w3.org/TR/2001/REC-SVG-20010904/DTD/svg10.dtd">
<svg version="1.0" xmlns="http://www.w3.org/2000/svg"
 width="300.000000pt" height="300.000000pt" viewBox="0 0 300.000000 300.000000"
 preserveAspectRatio="xMidYMid meet">
<metadata>
Created by potrace 1.10, written by Peter Selinger 2001-2011
</metadata>
<g transform="translate(0.000000,300.000000) scale(0.100000,-0.100000)"
fill="#000000" stroke="none">
<path d="M460 2992 c0 -7 55 -73 94 -113 9 -9 16 -20 16 -26 0 -16 61 -83 76
-83 13 0 18 -12 15 -32 0 -5 7 -8 17 -8 13 0 14 -2 3 -9 -9 -6 -10 -11 -2 -15
6 -4 18 -22 27 -42 9 -19 29 -42 44 -51 16 -9 36 -34 46 -55 20 -44 72 -100
86 -92 5 3 24 -10 42 -30 18 -20 38 -36 45 -36 6 0 31 -10 54 -22 23 -12 48
-21 55 -20 7 2 12 -1 11 -5 -5 -31 24 -49 33 -21 3 7 18 12 34 13 22 0 29 5
27 20 -1 10 6 25 15 32 9 8 -2 4 -26 -7 -42 -20 -45 -21 -93 -5 -27 9 -51 21
-54 26 -8 12 -5 12 45 -6 24 -8 45 -13 48 -10 3 2 -4 7 -14 11 -10 3 -41 14
-68 25 -26 10 -52 16 -58 13 -11 -7 -48 24 -48 40 0 6 7 2 15 -8 8 -11 15 -15
15 -9 0 17 -20 27 -54 28 -20 1 -40 13 -63 38 -36 40 -42 67 -18 87 22 18 18
32 -6 20 -17 -9 -26 -7 -55 15 -32 25 -64 71 -64 95 0 5 8 10 18 10 13 1 11 5
-10 23 -16 13 -28 28 -28 35 0 7 -7 12 -16 12 -14 0 -14 -3 -4 -15 10 -12 10
-15 0 -15 -6 0 -14 8 -17 19 -2 10 -15 24 -29 31 -27 15 -39 43 -35 84 2 24 0
28 -17 24 -12 -4 -30 4 -47 18 -28 24 -55 32 -55 16z"/>
<path d="M570 2985 c34 -19 61 -19 54 0 -4 10 -19 15 -43 15 l-36 -1 25 -14z"/>
<path d="M702 2950 c31 -33 48 -59 48 -75 0 -37 39 -72 73 -66 5 1 6 -3 3 -8
-3 -5 1 -26 10 -46 8 -20 13 -39 10 -42 -7 -8 -26 7 -26 21 0 7 -13 25 -29 40
l-29 27 -13 -30 c-8 -17 -17 -31 -21 -31 -5 0 -8 -4 -8 -10 0 -5 5 -10 11 -10
6 0 20 -11 31 -25 22 -29 43 -32 56 -10 7 13 14 14 36 5 35 -13 69 -13 61 0
-3 6 -14 10 -23 10 -16 0 -28 21 -48 85 -5 16 -23 39 -41 50 -23 15 -32 29
-36 60 -4 25 -14 47 -29 59 -13 10 -22 25 -20 32 2 10 -7 14 -31 14 l-33 0 48
-50z"/>
<path d="M1060 2995 c0 -16 45 -92 61 -103 10 -7 16 -19 13 -26 -3 -8 -1 -17
5 -20 6 -4 15 -24 21 -45 5 -21 26 -55 46 -76 19 -21 37 -50 41 -65 5 -30 65
-100 84 -100 8 0 8 -5 -1 -15 -10 -12 -9 -15 7 -15 10 0 24 -5 31 -12 9 -9 15
-9 24 0 18 18 28 15 28 -8 0 -21 -12 -25 -88 -33 -24 -3 -40 -1 -36 4 3 5 -20
9 -51 9 -46 0 -56 3 -51 15 3 9 -3 19 -14 25 -17 9 -19 8 -13 -7 12 -35 26
-43 70 -43 27 0 42 -4 38 -10 -3 -5 -19 -10 -35 -10 -16 0 -45 -7 -64 -16 -33
-16 -66 -14 -66 5 0 5 11 12 25 15 14 4 25 13 25 21 0 17 -68 65 -90 64 -13 0
-13 -1 0 -6 18 -7 39 -34 40 -49 0 -7 -11 -14 -25 -16 -27 -6 -32 1 -13 20 9
9 9 12 -2 12 -13 0 -13 2 0 10 12 8 11 10 -7 10 -14 0 -23 -6 -23 -15 0 -9 -6
-12 -15 -8 -14 5 -14 8 1 24 16 18 16 19 -5 19 -12 0 -24 -7 -27 -15 -4 -8
-16 -15 -28 -14 -11 0 -15 3 -8 6 21 8 13 23 -13 23 -18 0 -23 -4 -19 -15 7
-16 1 -18 -33 -9 -14 4 -23 14 -23 25 0 15 5 17 30 13 25 -5 30 -3 30 12 -1
33 -81 107 -98 90 -3 -3 -1 -6 5 -6 6 0 13 -11 15 -25 3 -13 2 -24 -1 -23 -19
2 -20 -6 -6 -39 19 -45 40 -63 74 -63 14 0 38 -12 54 -27 21 -20 28 -23 24
-10 -6 16 8 25 15 9 2 -4 37 -24 78 -44 53 -26 79 -33 87 -26 7 6 25 7 40 4
l28 -7 -25 21 c-17 13 -20 20 -10 20 19 0 48 -32 42 -48 -2 -8 7 -12 27 -12
35 0 83 19 75 31 -2 4 5 13 16 19 11 6 20 7 20 2 0 -5 12 -7 26 -4 26 5 26 6
19 61 -6 50 -7 115 -2 145 1 7 -18 12 -48 12 l-50 2 45 -7 c33 -5 40 -9 28
-15 -13 -6 -15 -12 -8 -26 8 -14 5 -16 -15 -12 -27 5 -32 -7 -15 -39 6 -10 7
-19 3 -19 -9 0 -30 47 -29 65 0 6 7 9 14 7 8 -2 11 1 7 7 -3 6 -19 11 -35 11
-41 0 -63 25 -48 53 l11 22 10 -23 c10 -22 27 -30 27 -12 0 6 7 10 15 10 22 0
19 47 -4 60 -27 14 -41 13 -41 -5 0 -18 -2 -18 -43 -1 -24 9 -41 30 -65 73
-18 34 -32 67 -32 74 0 8 -14 27 -30 42 -17 16 -33 40 -36 53 -5 20 -34 36
-34 19z m310 -530 c0 -7 -39 -26 -71 -35 -22 -6 -29 -5 -29 5 0 7 17 17 38 23
43 12 62 14 62 7z"/>
<path d="M1117 2983 c6 -20 32 -43 46 -43 5 0 7 7 3 15 -3 9 0 15 10 15 8 0
13 -3 11 -7 -2 -5 -1 -29 2 -55 6 -44 7 -46 26 -32 17 13 18 16 5 25 -13 8
-13 11 1 19 15 9 15 13 1 44 -14 31 -18 33 -43 26 -17 -5 -31 -5 -34 1 -11 17
-35 10 -28 -8z"/>
<path d="M1261 2974 c10 -29 3 -68 -12 -59 -5 4 -9 2 -9 -3 0 -5 11 -14 24
-20 31 -14 55 -50 58 -87 2 -17 9 -30 19 -32 10 -3 23 -18 29 -34 7 -16 16
-29 21 -29 16 0 3 42 -18 59 -11 9 -24 30 -28 46 -3 17 -18 45 -33 64 -14 19
-27 44 -27 55 -3 57 -6 66 -20 66 -12 0 -13 -5 -4 -26z"/>
<path d="M1730 2986 c0 -8 -4 -16 -10 -18 -5 -1 -12 -16 -14 -33 -2 -16 -7
-39 -11 -50 -5 -16 -3 -15 14 5 11 14 26 44 34 68 12 35 12 42 1 42 -8 0 -14
-6 -14 -14z"/>
<path d="M1778 2967 c-9 -19 -14 -45 -11 -58 4 -14 2 -20 -4 -16 -17 11 -43
-39 -43 -82 0 -32 3 -39 15 -35 8 4 15 1 15 -6 0 -6 4 -9 9 -6 5 3 12 38 16
77 5 45 11 67 17 61 14 -14 58 9 64 35 10 39 1 58 -32 61 -25 3 -32 -2 -46
-31z"/>
<path d="M1897 2993 c-4 -3 -7 -17 -7 -30 0 -57 -55 -109 -92 -87 -10 6 -10 5
-2 -7 14 -18 4 -114 -16 -149 l-14 -25 -10 27 c-22 61 -79 39 -89 -34 -7 -54
0 -64 23 -36 14 17 20 19 20 8 1 -9 5 -6 10 8 12 28 40 29 40 2 0 -13 -12 -28
-30 -38 -21 -12 -28 -22 -24 -35 4 -11 -7 -28 -31 -51 -36 -34 -35 -47 5 -52
8 -1 22 -4 31 -8 14 -6 15 -1 12 33 -3 28 0 41 8 41 7 0 9 3 6 7 -9 9 22 43
40 43 12 0 17 12 14 33 0 4 3 7 7 7 5 0 9 17 10 37 1 20 7 40 14 45 7 4 9 8 4
8 -6 0 -5 5 2 12 7 7 12 20 12 30 0 10 5 18 10 18 6 0 10 6 10 13 0 7 9 19 20
27 18 13 31 47 35 95 1 13 8 19 21 18 10 -1 13 0 7 3 -20 9 -15 24 10 34 19 8
18 9 -14 9 -20 1 -39 -2 -42 -6z"/>
<path d="M2309 2993 c-1 -5 -1 -12 0 -17 1 -4 -4 -14 -10 -22 -9 -12 -8 -14 9
-11 12 2 25 7 29 12 5 4 2 5 -4 1 -16 -9 -16 -1 -3 25 8 15 7 19 -5 19 -8 0
-16 -3 -16 -7z"/>
<path d="M2365 2970 c0 -40 28 -40 75 0 28 23 31 30 16 30 -10 0 -25 -8 -32
-17 -12 -17 -13 -17 -19 0 -12 30 -40 21 -40 -13z"/>
<path d="M2497 2979 c-4 -16 -11 -20 -24 -15 -9 4 -15 4 -11 1 12 -13 -94
-151 -124 -160 -11 -4 -18 -16 -18 -33 0 -19 -14 -41 -49 -74 -26 -26 -57 -66
-69 -90 -26 -56 -45 -71 -87 -72 -18 -1 -31 -4 -29 -7 4 -8 -18 -36 -73 -96
-28 -30 -52 -45 -84 -52 -57 -14 -56 -14 -63 4 -3 10 -1 15 7 14 6 -2 31 3 55
10 35 10 42 16 42 38 0 20 3 23 14 14 10 -9 16 -8 26 3 17 22 4 36 -33 36 -48
0 -82 11 -66 21 23 14 5 19 -21 6 -14 -7 -35 -32 -47 -55 -22 -41 -22 -42 -3
-42 13 0 20 7 20 19 0 25 16 36 27 19 4 -7 14 -13 21 -13 30 0 9 -21 -33 -31
-25 -7 -51 -17 -58 -22 -22 -18 -79 -25 -88 -11 -6 10 -15 9 -43 -6 -45 -24
-46 -46 -1 -35 6 2 24 2 42 1 18 -1 49 7 69 18 37 20 38 20 51 1 8 -11 20 -20
27 -20 8 0 20 -7 27 -16 12 -15 11 -16 -10 -9 -46 14 -121 9 -135 -10 -17 -23
-73 -14 -93 15 -11 15 -21 18 -40 14 -22 -6 -25 -4 -20 10 4 10 7 21 7 24 0 4
12 8 26 9 15 0 30 7 35 14 4 8 30 13 67 13 54 1 58 3 48 19 -6 9 -17 15 -25
12 -7 -3 -20 3 -28 12 -13 17 -13 17 -11 -2 3 -17 -6 -22 -55 -31 -68 -14 -67
-13 -84 -62 -18 -53 -17 -59 15 -54 18 2 37 -4 56 -19 31 -24 94 -28 107 -7 4
6 27 12 52 15 38 5 61 -2 163 -48 66 -30 147 -75 182 -102 46 -34 70 -46 88
-43 19 4 35 -6 72 -43 77 -77 91 -96 83 -110 -5 -8 10 -31 41 -64 26 -29 57
-71 68 -94 13 -31 25 -43 40 -43 31 0 60 -77 74 -197 8 -69 18 -108 29 -121
21 -23 23 -109 3 -137 -22 -33 -26 -77 -9 -106 21 -35 10 -77 -22 -89 -36 -14
-49 -45 -35 -81 12 -28 11 -31 -34 -70 -36 -32 -46 -47 -46 -72 -1 -18 -6 -42
-13 -54 -20 -35 -126 -143 -140 -143 -7 0 -24 -12 -38 -26 -33 -36 -109 -87
-117 -80 -3 4 9 20 28 37 19 16 34 34 32 40 -1 6 3 17 9 25 9 11 7 14 -15 14
-16 0 -26 5 -26 15 0 18 33 20 60 3 19 -12 19 -13 -2 -35 -12 -13 -17 -23 -11
-23 18 0 46 39 39 55 -4 13 -2 14 14 5 13 -7 26 -8 37 -1 14 7 10 11 -22 16
-73 12 -103 26 -149 66 -25 23 -46 35 -46 27 0 -16 17 -43 27 -43 4 0 16 -5
26 -11 16 -9 17 -12 3 -23 -14 -12 -21 -8 -50 24 -19 20 -37 46 -39 57 -3 11
-3 18 0 15 6 -7 43 24 43 36 0 5 -7 7 -15 3 -18 -7 -19 -2 -2 26 16 30 38 47
53 41 7 -2 15 4 18 14 8 25 78 63 84 45 2 -6 8 -12 14 -12 6 0 5 6 -2 15 -17
20 -7 29 17 17 12 -7 25 -7 36 -1 14 8 24 3 50 -22 38 -39 45 -73 13 -66 -11
2 -29 8 -38 12 -13 5 -18 3 -18 -8 0 -9 -12 -25 -26 -36 -15 -12 -22 -21 -17
-21 5 0 13 4 18 9 12 10 100 23 108 15 19 -20 -60 -94 -101 -94 -12 0 -22 -4
-22 -10 0 -16 -27 -12 -70 10 -37 19 -53 40 -30 40 6 0 10 15 10 33 -1 29 -2
30 -14 15 -7 -10 -18 -18 -25 -18 -15 0 -14 -13 2 -30 10 -12 9 -12 -5 -1 -12
9 -15 21 -11 47 3 21 2 34 -5 34 -33 0 -24 -63 16 -106 45 -49 73 -64 122 -64
54 0 96 25 122 72 l19 33 -6 -30 c-7 -34 -39 -72 -67 -81 -20 -6 -25 -24 -7
-24 23 0 79 72 92 118 12 40 12 52 0 80 -16 38 -11 52 19 52 15 0 19 -5 15
-20 -3 -14 0 -20 10 -20 11 0 14 6 10 21 -4 15 -2 19 8 15 15 -5 42 21 32 31
-4 3 -13 1 -21 -6 -11 -9 -18 -6 -36 16 -23 29 -23 28 -7 158 1 11 16 28 32
37 17 9 25 17 18 18 -13 0 -5 40 8 40 5 0 14 -12 19 -26 6 -14 15 -24 22 -22
18 6 22 28 4 28 -8 0 -19 6 -23 13 -4 7 -20 20 -36 30 -22 14 -26 22 -21 45
l6 27 -28 -32 c-35 -39 -102 -74 -143 -75 -23 -1 -31 -6 -31 -19 0 -9 -16 -59
-36 -110 -38 -99 -77 -152 -140 -185 -21 -11 -34 -26 -34 -38 0 -11 -3 -16 -6
-13 -8 8 -74 -65 -68 -75 3 -5 0 -8 -7 -8 -6 0 -31 -18 -55 -40 -24 -22 -52
-40 -62 -40 -10 0 -27 -9 -37 -19 -9 -11 -46 -30 -81 -43 -35 -13 -64 -25 -64
-28 0 -3 23 -32 52 -64 l52 -59 20 26 c27 34 70 31 103 -7 l23 -27 46 30 c25
17 47 31 49 31 11 0 114 83 119 96 13 35 -47 0 -70 -41 -13 -24 -41 -41 -50
-32 -4 4 5 21 21 37 22 23 25 30 12 30 -8 0 -18 -4 -22 -9 -8 -14 -47 -4 -57
13 -5 8 -14 21 -22 28 -19 19 -5 49 37 81 44 34 52 34 74 0 10 -16 21 -31 26
-34 5 -4 6 -16 2 -28 -5 -15 -2 -21 10 -21 8 0 18 7 21 15 9 23 20 18 41 -17
l19 -32 -59 -50 c-61 -50 -179 -126 -197 -126 -5 0 -10 -4 -10 -10 0 -5 -4
-10 -10 -10 -5 0 -10 11 -10 25 0 15 -10 31 -26 41 -24 16 -26 16 -52 -5 -40
-32 -115 -81 -124 -81 -5 0 -6 11 -2 25 3 14 4 25 1 25 -7 0 -81 -132 -82
-145 0 -19 -60 -38 -131 -43 -88 -6 -174 17 -197 51 -12 19 -22 23 -46 19 -16
-2 -32 -10 -35 -17 -4 -10 3 -12 28 -8 41 6 54 -10 24 -31 -29 -21 -32 -20
-63 8 -22 20 -25 28 -16 44 10 18 7 21 -30 27 -54 9 -205 86 -250 128 -20 18
-40 32 -46 30 -5 -2 -16 8 -23 22 -12 23 -18 25 -52 20 -34 -6 -42 -3 -93 41
-30 26 -53 50 -50 52 2 3 -13 26 -34 51 -49 59 -101 132 -101 141 0 4 10 11
23 15 20 7 19 8 -11 12 -27 4 -36 11 -48 38 -8 19 -14 50 -14 70 0 28 -4 35
-19 35 -31 0 -51 38 -51 98 0 38 4 54 16 59 12 4 14 16 8 62 -4 31 -14 61 -22
67 -21 16 -10 72 24 124 l28 42 -24 18 c-16 12 -21 23 -16 35 5 13 9 15 20 6
10 -9 15 0 25 43 7 30 21 66 32 79 23 31 24 39 3 35 -24 -4 -29 19 -6 26 10 4
25 21 34 39 22 46 67 97 85 97 14 0 14 -3 -1 -22 -28 -39 -57 -99 -54 -109 2
-6 22 19 45 55 23 36 47 66 53 66 13 0 -2 -31 -40 -80 -32 -41 -44 -80 -25
-80 7 0 18 -7 25 -15 26 -31 44 -16 86 73 23 48 58 107 78 132 20 25 36 50 36
55 1 6 19 22 40 37 46 32 51 54 15 60 -17 4 -25 1 -25 -9 0 -9 -14 -3 -39 17
-46 37 -62 33 -104 -27 -40 -57 -33 -73 10 -24 32 37 40 42 66 37 38 -8 57
-23 57 -47 0 -12 -6 -17 -20 -14 -11 2 -32 -8 -51 -26 -31 -29 -59 -38 -59
-19 0 6 3 10 8 10 4 0 27 18 52 41 25 22 36 36 25 31 -11 -5 -26 -7 -33 -5 -7
3 -12 1 -10 -4 1 -4 -15 -25 -36 -47 l-37 -39 20 -19 c22 -19 28 -48 11 -48
-5 0 -13 6 -17 13 -4 6 -20 18 -35 26 -24 12 -30 12 -54 -4 -27 -17 -27 -17
-21 6 4 13 7 27 7 32 0 4 13 7 29 7 26 0 29 4 34 42 6 48 30 84 77 116 39 26
44 27 64 6 15 -14 17 -14 32 0 9 9 32 29 52 44 21 15 41 33 45 39 4 7 12 13
18 13 5 0 39 14 75 30 35 17 79 33 97 36 17 3 49 13 70 22 31 12 35 17 22 24
-8 5 -13 13 -10 19 4 5 -4 9 -16 9 -17 0 -19 -3 -11 -13 9 -10 0 -18 -40 -35
-28 -12 -55 -19 -59 -16 -5 3 -9 0 -9 -5 0 -6 -10 -11 -23 -11 -13 0 -32 -7
-43 -15 -10 -8 -29 -15 -41 -15 -13 0 -23 -4 -23 -10 0 -5 -5 -10 -11 -10 -5
0 -7 5 -3 12 4 7 3 8 -5 4 -6 -4 -9 -11 -6 -16 6 -9 -42 -47 -66 -52 -8 -2
-19 -10 -26 -18 -9 -12 -14 -12 -24 -3 -9 9 -15 9 -26 -2 -7 -8 -20 -12 -28
-9 -8 4 -15 1 -15 -5 0 -6 -6 -11 -13 -11 -7 0 -19 -10 -27 -21 -8 -12 -20
-27 -27 -34 -7 -7 -9 -15 -6 -19 4 -3 2 -6 -4 -6 -6 0 -10 -8 -9 -17 0 -10 -5
-17 -12 -15 -8 1 -11 -2 -8 -6 3 -5 -5 -21 -19 -36 -13 -14 -27 -42 -31 -61
-3 -20 -9 -33 -12 -31 -3 3 -13 -11 -22 -32 -10 -20 -29 -50 -44 -67 -28 -32
-31 -41 -17 -49 11 -7 2 -46 -10 -46 -5 0 -9 -9 -9 -19 0 -11 -5 -23 -10 -26
-6 -4 -8 -11 -5 -16 4 -5 1 -9 -4 -9 -6 0 -11 -5 -11 -11 0 -6 -7 -17 -15 -25
-13 -14 -13 -18 0 -37 19 -28 19 -66 0 -73 -8 -4 -13 -10 -10 -14 3 -5 0 -12
-6 -15 -7 -5 -8 -31 -3 -79 11 -113 11 -150 1 -164 -16 -20 -1 -100 26 -140
14 -20 35 -63 47 -95 12 -31 26 -57 31 -57 6 0 7 -4 4 -10 -3 -5 -1 -10 4 -10
6 0 11 -6 11 -14 0 -8 7 -22 16 -30 9 -9 17 -23 18 -31 1 -8 20 -34 41 -57 22
-24 59 -69 83 -100 24 -32 57 -67 74 -79 16 -12 54 -46 84 -77 54 -54 55 -54
76 -36 21 18 21 18 15 0 -6 -14 -3 -17 8 -12 19 7 47 -3 39 -15 -3 -5 1 -9 10
-9 8 0 16 -4 18 -9 2 -5 10 -11 18 -13 8 -2 17 -12 20 -23 3 -11 15 -22 25
-24 11 -2 24 -8 28 -15 5 -6 5 0 2 12 -6 20 -4 23 12 19 10 -3 33 -8 51 -12
17 -4 32 -11 32 -16 0 -6 11 -21 25 -34 27 -28 79 -34 89 -10 6 16 37 20 50 8
4 -5 11 -8 14 -9 4 0 25 -5 47 -11 70 -19 167 -21 173 -4 2 6 17 11 33 11 16
0 29 4 29 8 0 15 29 9 46 -9 19 -21 61 -12 94 21 16 16 31 21 59 19 41 -3 98
16 121 41 8 9 25 22 37 28 12 7 23 22 25 34 2 15 11 24 27 26 16 3 21 0 16 -8
-5 -9 -1 -10 14 -6 11 3 30 8 40 11 11 3 37 25 58 48 21 24 46 46 56 50 11 4
21 16 24 27 3 11 9 17 14 14 5 -3 23 7 39 23 16 15 45 41 64 58 20 17 32 35
28 44 -3 8 -1 12 5 8 5 -3 19 4 30 17 12 13 26 25 32 27 7 3 13 11 15 19 1 8
10 32 19 54 9 21 17 42 17 47 0 5 11 16 24 24 28 19 46 63 46 112 0 26 5 36
20 40 13 4 22 17 26 42 4 20 10 41 14 46 5 6 3 26 -4 46 -12 33 -4 79 13 79 4
0 6 24 6 53 0 28 3 58 8 65 6 7 5 12 -2 12 -6 0 -11 7 -11 15 0 8 -9 31 -19
52 -11 22 -20 60 -20 89 0 28 -7 66 -14 85 -8 19 -12 40 -9 48 2 8 0 11 -5 8
-6 -4 -13 6 -16 22 -4 18 -15 32 -27 36 -12 4 -19 9 -17 12 3 2 -3 13 -14 24
-11 11 -17 25 -13 31 4 7 3 8 -4 4 -7 -4 -12 -1 -12 7 0 7 -18 33 -40 56 -22
23 -40 46 -40 52 0 6 -4 7 -10 4 -5 -3 -7 0 -5 8 3 7 -19 39 -52 73 -79 81
-123 118 -123 104 0 -7 -17 -2 -42 13 -24 15 -42 31 -41 36 2 6 0 10 -5 9 -4
-1 -18 5 -32 14 -14 9 -32 18 -40 20 -8 2 -20 9 -26 17 -6 8 -26 16 -44 18
-18 2 -38 8 -45 13 -7 5 -15 6 -20 2 -4 -4 -5 3 -2 16 3 15 1 22 -9 22 -29 0
-12 16 34 30 36 12 51 23 64 49 9 18 26 42 37 52 12 11 21 24 21 29 0 6 11 10
25 10 34 0 85 48 104 100 9 23 25 48 36 54 32 18 76 66 70 76 -3 6 -1 10 4 10
6 0 11 5 11 11 0 13 36 59 82 108 18 18 33 36 33 40 1 13 21 37 49 59 16 12
26 22 22 22 -4 0 -2 9 4 20 9 17 8 20 -13 20 -17 0 -26 -7 -30 -21z m-1796
-1227 c-17 -32 -35 -42 -48 -27 -10 11 -9 17 9 29 32 22 51 21 39 -2z m1798
-483 c-10 -6 -11 -9 -1 -9 18 0 15 -22 -15 -90 -22 -49 -31 -60 -48 -58 -12 2
-19 10 -16 18 2 8 4 28 6 44 1 15 8 32 16 37 11 8 10 9 -5 7 -10 -2 -21 3 -23
10 -3 6 2 12 11 12 8 0 27 11 43 24 15 13 32 22 37 19 4 -3 2 -9 -5 -14z m-89
-94 c0 -13 -10 -27 -26 -35 -24 -13 -27 -12 -44 10 -10 14 -16 27 -14 30 3 2
8 0 12 -6 4 -6 18 -7 32 -4 l25 7 -30 13 -30 13 25 7 c31 8 50 -5 50 -35z m29
-96 c45 -25 60 -64 28 -73 -12 -3 -16 -10 -12 -18 3 -7 -1 -4 -9 6 -21 26 -21
50 0 42 8 -3 12 -2 9 3 -7 13 -110 51 -135 51 -11 0 -20 5 -20 11 0 18 95 3
139 -22z m-22 -34 c2 -1 -21 -1 -50 -1 -28 1 -62 -3 -74 -7 -33 -12 -29 9 5
26 23 11 34 11 72 -1 25 -8 46 -16 47 -17z m-400 -393 c34 -39 49 -63 43 -72
-10 -16 -110 86 -110 113 0 28 13 20 67 -41z m-79 -22 c41 -25 33 -40 -21 -40
-24 0 -52 -7 -64 -15 -20 -14 -23 -14 -34 6 -9 18 -8 24 7 33 74 43 69 42 112
16z m-1073 -72 c0 -5 22 -17 49 -26 55 -19 68 -36 34 -45 -26 -7 -79 22 -102
57 -11 18 -12 26 -3 29 14 5 22 0 22 -15z m1301 -44 c-22 -19 -48 -34 -58 -34
-26 0 -22 15 7 28 13 6 31 25 40 43 16 30 18 30 33 14 16 -15 14 -19 -22 -51z
m-222 -48 c-7 -18 -59 -40 -79 -32 -24 9 -18 25 13 32 15 3 32 7 37 9 23 8 34
4 29 -9z m-881 -31 c32 -19 62 -35 67 -35 5 0 11 -4 14 -9 6 -9 -64 1 -82 13
-7 4 -12 14 -12 22 0 8 -6 14 -12 14 -15 1 -56 30 -42 30 5 0 35 -16 67 -35z
m951 11 c-3 -8 -24 -27 -47 -42 -52 -35 -142 -41 -171 -11 -11 11 -26 15 -37
12 -15 -5 -19 -1 -19 15 0 14 4 19 12 14 7 -4 30 -7 51 -5 25 1 46 -4 58 -15
24 -21 61 -12 107 26 35 29 56 32 46 6z m-230 -78 c10 -14 12 -27 6 -38 -15
-28 -90 -35 -90 -9 0 5 18 12 40 15 36 6 38 8 23 20 -24 18 -33 17 -33 -2 0
-11 -5 -14 -16 -10 -9 3 -18 6 -21 6 -4 0 2 9 12 20 24 26 60 25 79 -2z"/>
<path d="M600 2948 c0 -4 4 -8 9 -8 5 0 7 -8 4 -18 -4 -19 44 -88 55 -78 3 3
-1 12 -7 20 -8 10 -9 16 -1 21 13 8 32 -4 25 -16 -4 -5 1 -9 9 -9 19 0 21 -16
4 -23 -7 -2 -11 -7 -8 -9 3 -3 15 -2 27 3 21 8 22 10 9 41 -20 48 -52 75 -91
80 -19 2 -35 0 -35 -4z"/>
<path d="M2345 2905 c4 -28 4 -29 -7 -7 -14 29 -29 24 -42 -14 -15 -40 -39
-74 -52 -74 -17 0 -54 -45 -54 -66 0 -10 -9 -25 -20 -32 -25 -16 -26 -42 -1
-42 13 0 18 6 16 18 -1 9 0 12 2 5 8 -21 33 -24 33 -3 0 10 16 31 35 46 19 14
35 33 35 42 0 9 23 37 50 64 54 52 61 68 31 68 -11 0 -22 6 -25 13 -3 6 -4 -1
-1 -18z m-86 -127 c5 -13 7 -25 5 -27 -7 -7 -34 21 -34 35 0 22 20 16 29 -8z"/>
<path d="M2208 2849 c-63 -65 -76 -90 -69 -131 1 -8 -15 -12 -31 -9 -5 0 -7
-2 -5 -7 1 -4 -8 -17 -20 -29 -13 -13 -23 -21 -23 -18 0 3 -12 -6 -27 -20 -16
-14 -28 -29 -28 -33 0 -19 -37 -44 -56 -39 -16 4 -18 3 -8 -9 14 -17 39 -19
39 -3 0 23 25 1 30 -27 3 -17 11 -29 20 -29 23 0 23 32 0 55 -25 25 -25 27 67
115 45 43 63 68 63 85 0 18 16 41 53 76 30 27 56 60 59 72 4 12 5 22 5 22 -1
0 -32 -32 -69 -71z"/>
<path d="M1218 2856 c-10 -7 -18 -17 -18 -23 0 -15 55 -63 73 -63 26 0 24 76
-2 90 -25 13 -32 12 -53 -4z"/>
<path d="M1657 2784 c-9 -12 -17 -28 -17 -34 0 -6 -7 -24 -15 -40 -13 -25 -13
-29 1 -34 9 -3 17 -6 18 -6 1 0 1 13 -2 29 -3 21 4 37 27 63 21 24 27 37 19
41 -7 2 -21 -6 -31 -19z"/>
<path d="M1401 2701 c-14 -4 -26 -12 -28 -18 -3 -8 8 -8 39 -1 24 5 77 8 118
5 41 -3 66 -2 55 2 -29 11 -156 19 -184 12z"/>
<path d="M915 2661 c-3 -5 0 -15 7 -23 7 -7 19 -25 27 -40 16 -31 41 -45 41
-22 0 17 42 12 115 -12 27 -9 43 -10 50 -3 6 7 7 9 0 8 -5 -2 -20 3 -33 10
-23 12 -86 23 -130 22 -26 -1 -64 37 -57 57 5 14 -11 17 -20 3z"/>
<path d="M1460 2639 c10 -18 18 -20 58 -16 56 7 49 4 56 22 4 12 -6 15 -60 15
-63 0 -64 -1 -54 -21z"/>
<path d="M2092 2622 c-23 -20 -42 -40 -42 -44 0 -13 34 -9 57 7 12 8 28 13 36
10 7 -3 20 1 27 10 11 13 10 19 -5 35 -10 11 -21 20 -24 20 -3 0 -25 -17 -49
-38z"/>
<path d="M1601 2601 c-7 -28 -14 -66 -15 -85 -3 -31 0 -36 34 -51 46 -21 91
-16 48 5 -15 7 -25 16 -23 21 3 4 -5 5 -17 1 -21 -5 -22 -4 -9 11 12 15 11 17
-5 17 -23 0 -9 15 37 38 34 17 44 40 24 54 -18 13 -32 9 -44 -14 -10 -20 -11
-20 -7 -3 2 11 7 28 11 38 5 11 3 17 -7 17 -9 0 -19 -19 -27 -49z"/>
<path d="M1474 2506 c-18 -10 -20 -14 -9 -29 12 -17 41 -25 31 -9 -3 5 8 9 24
9 39 0 50 11 26 29 -23 16 -43 17 -72 0z"/>
<path d="M1768 2493 c-22 -6 -23 -19 -2 -27 29 -11 44 -6 44 14 0 20 -8 22
-42 13z"/>
<path d="M1580 2447 c0 -15 -7 -30 -15 -33 -8 -4 -12 -10 -9 -15 12 -19 -28
-20 -66 -1 -30 15 -40 16 -40 6 0 -12 56 -34 88 -34 6 0 12 -6 12 -14 0 -9
-10 -12 -35 -9 -26 3 -35 0 -35 -12 0 -22 53 -19 73 3 10 10 17 31 17 46 0 19
7 29 24 36 13 5 27 14 32 21 5 8 3 9 -6 4 -8 -5 -18 -1 -27 10 -12 18 -13 17
-13 -8z"/>
<path d="M1438 2362 c5 -25 4 -26 -12 -9 -23 22 -25 22 -18 -5 4 -18 2 -20
-19 -14 -23 7 -58 9 -106 7 -13 -1 -23 -7 -23 -13 0 -10 24 -13 88 -12 48 1
93 2 100 2 16 3 16 59 -1 65 -10 4 -13 -2 -9 -21z"/>
<path d="M1497 2295 c-21 -8 -35 -10 -32 -5 9 14 -1 12 -55 -11 -60 -26 -92
-72 -88 -129 2 -21 6 -36 9 -34 3 2 16 -10 28 -26 45 -61 156 -79 240 -38 25
12 40 23 34 25 -9 3 -9 121 1 131 12 11 26 -13 26 -44 0 -38 15 -46 23 -13 17
63 -43 139 -109 139 -21 0 -33 4 -29 10 8 13 -1 12 -48 -5z m63 -27 c40 -13
57 -31 20 -21 -11 3 -20 1 -20 -5 0 -6 15 -14 33 -18 17 -4 26 -9 20 -11 -16
-6 -17 -33 -2 -33 22 0 -12 -29 -47 -40 -19 -6 -34 -16 -34 -22 0 -5 -12 -9
-27 -8 -50 4 -52 2 -43 -29 l8 -29 -45 16 c-46 17 -75 48 -86 90 -4 18 -2 22
11 20 9 -2 19 -13 22 -26 3 -13 8 -23 13 -23 4 1 19 1 34 1 25 0 26 1 8 13
-10 8 -15 19 -12 24 4 6 1 13 -6 16 -9 3 -12 16 -9 35 4 30 22 42 65 42 15 0
16 -3 7 -21 -7 -11 -9 -23 -6 -26 3 -3 0 -15 -6 -27 -10 -19 -10 -20 5 -8 9 8
19 34 23 58 7 49 12 51 74 32z m4 -164 c8 -20 10 -17 -33 -39 -26 -13 -36 -14
-45 -5 -8 9 -8 14 1 17 7 3 23 13 35 23 28 24 34 24 42 4z"/>
<path d="M1254 2278 c-12 -5 -27 -21 -34 -34 -7 -13 -21 -26 -32 -30 -10 -3
-18 -9 -18 -13 0 -4 -12 -6 -27 -3 -24 3 -28 0 -28 -22 0 -14 0 -26 1 -26 16
0 75 30 94 47 14 13 30 23 37 23 13 0 17 12 14 38 -1 6 5 12 14 12 18 0 20
-21 3 -38 -6 -6 -8 -15 -5 -19 12 -12 60 43 54 61 -7 18 -41 20 -73 4z"/>
<path d="M1778 2256 c-15 -13 -24 -27 -21 -30 4 -3 -3 -6 -15 -6 -11 0 -25 7
-30 16 -6 11 -12 13 -16 6 -3 -6 -2 -13 4 -17 5 -3 10 -16 10 -28 1 -19 2 -20
13 -7 16 19 58 25 51 6 -3 -8 14 -20 51 -34 31 -12 60 -22 64 -22 4 0 13 16
20 35 14 39 19 41 47 20 18 -14 18 -15 -14 -41 l-33 -26 60 -28 c111 -53 301
-263 351 -387 12 -31 29 -41 43 -26 4 3 1 13 -7 22 -19 22 -76 127 -76 140 0
6 7 11 16 11 20 0 120 -95 127 -120 4 -17 1 -19 -21 -13 -24 6 -26 5 -13 -10
7 -10 19 -17 27 -17 18 0 44 -28 44 -47 0 -14 -2 -14 -18 0 -21 19 -73 22 -89
6 -13 -13 8 -53 33 -63 19 -7 18 -3 -6 24 -11 13 -18 26 -15 29 4 3 10 -1 14
-8 5 -7 14 -11 20 -7 6 4 13 -4 17 -19 3 -14 12 -25 19 -25 7 0 32 -21 56 -47
24 -27 49 -47 54 -45 6 1 2 -4 -9 -12 -22 -18 -15 -32 19 -38 20 -4 23 -2 15
7 -13 16 2 28 23 19 12 -4 15 1 12 28 -2 18 -4 35 -4 37 -1 2 -13 -4 -27 -14
-14 -9 -33 -14 -41 -11 -14 6 -14 8 1 24 15 17 14 20 -13 40 -43 32 -96 192
-63 192 9 0 24 -8 35 -17 17 -16 16 -13 -4 22 -12 22 -24 42 -26 45 -2 2 -13
-2 -24 -9 -12 -7 -22 -11 -24 -9 -47 58 -90 143 -47 93 9 -11 30 -31 47 -45
l29 -25 -27 35 c-15 19 -30 42 -33 51 -4 10 -16 16 -34 15 -15 -1 -26 -4 -24
-7 5 -9 -46 -22 -54 -14 -3 3 1 5 9 5 8 0 -4 11 -26 23 -25 14 -41 31 -43 45
-3 17 0 21 15 15 10 -3 25 -12 33 -18 21 -18 80 -29 80 -16 0 18 -52 71 -63
64 -6 -3 -7 -1 -3 5 3 5 0 12 -6 15 -7 2 -10 7 -7 11 12 12 54 -15 78 -50 13
-19 26 -32 28 -30 8 8 -45 72 -72 86 -34 18 -68 0 -91 -51 -9 -22 -20 -39 -24
-39 -14 0 -21 33 -10 44 18 18 11 34 -17 42 -16 4 -31 7 -35 6 -5 -1 -8 3 -8
9 0 5 -5 7 -12 3 -7 -4 -8 -3 -4 4 4 6 -6 18 -24 27 -33 17 -38 32 -15 41 17
7 77 -40 67 -51 -4 -5 -2 -5 4 -2 7 4 24 -3 39 -14 17 -14 30 -18 36 -12 6 6
-11 25 -47 52 -86 64 -100 69 -127 43 -12 -12 -17 -22 -11 -22 5 0 10 -9 11
-20 1 -14 -4 -20 -20 -20 -13 0 -17 3 -11 8 7 4 8 15 4 27 -8 19 -8 19 -17 -2
-6 -16 -12 -20 -22 -13 -13 7 -13 11 -1 25 7 9 27 23 43 32 l30 15 -44 20
c-54 24 -169 68 -178 68 -3 0 -18 -11 -33 -24z m80 -12 c15 -4 22 -14 22 -30
0 -21 -5 -24 -35 -24 -19 0 -35 4 -35 10 0 5 7 7 15 4 21 -9 19 23 -2 35 -14
8 -15 10 -3 11 8 0 25 -3 38 -6z"/>
<path d="M1125 2236 c-22 -6 -39 -16 -37 -21 2 -12 4 -12 60 -1 26 5 42 13 42
22 0 17 -11 17 -65 0z"/>
<path d="M1017 2185 c-16 -8 -42 -26 -59 -40 -16 -14 -34 -25 -38 -25 -5 0 -7
-7 -4 -15 5 -13 11 -12 39 5 21 13 36 17 40 10 3 -5 0 -12 -7 -15 -7 -2 -25
-9 -39 -14 -17 -6 -30 -6 -36 0 -6 6 -18 6 -34 0 -23 -9 -23 -10 8 -10 20 -1
37 -8 46 -21 13 -18 16 -17 90 31 42 27 77 56 77 64 0 17 -16 20 -25 4 -12
-18 -55 -30 -73 -20 -15 8 -14 11 8 19 14 5 34 11 44 13 25 5 33 29 9 29 -10
0 -31 -7 -46 -15z"/>
<path d="M1245 2154 c-58 -13 -145 -50 -183 -78 -112 -82 -151 -114 -146 -119
4 -3 28 12 53 33 26 22 51 40 56 40 5 0 26 -17 47 -37 40 -39 61 -40 34 -2
-10 15 -12 27 -6 39 11 20 47 32 56 19 3 -5 10 -9 15 -9 6 0 7 5 3 12 -4 7 -3
8 5 4 6 -4 9 -12 5 -17 -3 -6 3 -17 15 -25 12 -9 19 -20 16 -25 -11 -17 26
-22 68 -9 38 11 42 11 56 -9 7 -12 15 -40 18 -63 2 -23 10 -53 19 -66 18 -27
18 -26 -21 -46 -27 -14 -30 -14 -45 7 -15 22 -70 35 -70 16 0 -6 -4 -8 -9 -4
-13 7 -25 -33 -22 -77 1 -20 -3 -39 -9 -43 -6 -4 -48 11 -93 33 -71 35 -112
51 -139 58 -5 1 -10 3 -13 4 -3 1 -11 3 -17 4 -16 2 -13 56 3 66 8 5 8 13 1
26 -8 15 -5 23 17 39 26 19 26 19 11 0 -14 -19 -14 -19 3 -6 9 7 17 19 17 27
0 28 23 25 50 -7 31 -37 37 -55 18 -61 -6 -2 -9 -12 -5 -21 11 -29 77 9 77 44
0 22 -17 34 -22 17 -4 -11 -48 31 -84 80 -10 13 -20 8 -73 -38 -60 -52 -76
-80 -46 -80 8 0 15 -4 15 -10 0 -17 -43 -4 -50 16 -6 16 -9 14 -26 -16 -10
-19 -24 -44 -31 -55 -7 -11 -15 -27 -18 -35 -4 -8 -14 -28 -22 -44 -9 -16 -19
-43 -23 -60 l-7 -31 54 -3 c61 -4 83 8 83 44 0 19 5 24 26 24 22 0 24 -3 19
-22 -19 -64 -30 -94 -41 -108 -10 -12 -9 -20 6 -38 11 -13 22 -39 26 -58 6
-33 7 -34 56 -34 27 0 58 -5 68 -10 16 -8 18 -8 14 5 -6 15 56 100 103 141 20
17 22 23 11 32 -26 21 -208 112 -225 112 -29 0 -133 44 -133 56 0 6 6 17 14
23 11 10 48 -3 178 -63 89 -42 174 -76 188 -77 14 0 19 -3 13 -6 -7 -2 -13
-11 -13 -19 0 -9 10 -4 29 13 25 23 27 31 20 57 -5 17 -9 38 -9 47 0 24 24 51
41 44 18 -7 51 -60 42 -69 -3 -3 -3 -6 1 -6 10 0 69 42 82 60 10 12 14 12 28
1 29 -24 27 -6 -4 35 -23 30 -30 50 -30 86 0 40 4 50 31 72 l30 26 -26 10
c-15 6 -31 7 -37 4 -6 -4 -8 -2 -5 3 4 6 -6 19 -21 28 l-27 18 19 -21 c21 -24
12 -28 -28 -12 -19 7 -27 6 -33 -5 -4 -7 -21 -15 -37 -17 -23 -2 -33 2 -41 19
-7 13 -20 32 -30 43 -11 12 -13 20 -6 20 7 0 9 5 6 10 -3 6 -2 10 4 10 5 0 12
-6 15 -12 5 -10 7 -10 12 0 3 6 10 12 15 12 6 0 7 -4 4 -10 -3 -5 3 -10 13
-10 12 0 22 -9 26 -22 7 -22 7 -22 16 -3 7 19 8 19 15 2 6 -14 10 -15 22 -6
12 10 10 16 -13 40 -14 15 -25 31 -24 36 1 10 -17 13 -45 7z m-398 -445 c15
-15 4 -51 -14 -45 -8 3 -25 6 -39 6 -28 0 -23 22 9 38 29 14 31 14 44 1z m159
-35 c33 -14 61 -29 64 -33 3 -5 16 -14 29 -21 19 -9 21 -14 10 -21 -20 -12
-31 -11 -23 3 4 7 3 8 -5 4 -8 -5 -10 -19 -6 -36 5 -23 0 -36 -25 -64 -28 -30
-36 -34 -68 -30 -20 3 -39 9 -40 14 -2 6 -7 8 -11 5 -5 -2 -8 10 -9 28 0 17
-5 33 -11 35 -5 2 0 13 12 25 12 12 25 21 29 20 4 -2 5 4 2 12 -5 11 1 15 22
15 l29 0 -30 15 c-18 9 -31 24 -32 35 -1 11 0 20 1 20 2 0 30 -12 62 -26z"/>
<path d="M1690 2138 c0 -6 -10 -22 -22 -35 -16 -17 -18 -23 -7 -23 8 0 23 14
32 30 27 44 41 36 17 -10 -11 -21 -20 -44 -20 -49 0 -5 19 -11 43 -13 l42 -3
-3 -43 c-3 -37 0 -44 17 -49 11 -3 22 -11 25 -19 6 -16 56 -19 56 -3 0 5 -4 8
-8 5 -23 -14 -2 38 25 63 l31 28 45 -24 c45 -22 73 -55 63 -71 -3 -5 8 -16 25
-26 16 -9 29 -25 29 -35 0 -9 5 -22 12 -29 7 -7 8 -12 3 -12 -6 0 -4 -4 3 -9
9 -5 -2 -13 -35 -25 -26 -10 -69 -29 -94 -42 -26 -13 -54 -24 -64 -24 -10 0
-15 -5 -12 -12 2 -8 -4 -14 -17 -15 -41 -3 -61 -8 -68 -18 -7 -9 -13 25 -9 48
0 4 -3 7 -7 7 -4 0 -7 20 -6 43 2 40 -1 45 -32 62 -27 14 -36 15 -48 6 -8 -7
-20 -10 -26 -6 -5 3 -10 1 -10 -4 0 -6 -9 -11 -20 -11 -13 0 -20 7 -20 19 0
28 11 52 21 45 5 -3 9 13 9 35 0 22 -5 43 -11 47 -7 4 -1 16 16 34 16 17 22
30 16 34 -5 4 -20 -7 -32 -23 -12 -17 -26 -28 -31 -25 -5 3 3 17 17 31 14 14
24 28 22 30 -2 2 -28 -8 -58 -21 -34 -16 -46 -25 -33 -25 24 -1 52 -37 58 -73
5 -30 -21 -74 -59 -101 l-29 -22 42 -7 c23 -4 50 -14 59 -23 9 -9 27 -21 40
-26 13 -5 22 -13 19 -18 -10 -16 38 2 51 18 10 14 13 12 22 -12 15 -38 14 -39
-9 -27 -30 16 -24 0 17 -44 l36 -39 31 17 c17 10 87 48 156 84 69 36 136 74
149 84 13 10 30 18 38 18 34 0 -130 169 -222 228 -100 64 -275 115 -275 80z
m84 -43 c16 -12 17 -17 6 -30 -17 -20 -70 -17 -62 5 7 19 23 40 31 40 3 0 15
-7 25 -15z m99 -20 c18 -13 18 -15 -8 -59 -15 -25 -30 -46 -34 -46 -21 0 -17
16 9 49 32 38 40 62 15 41 -8 -7 -15 -18 -15 -25 0 -16 -38 -50 -47 -41 -4 4
1 19 11 34 9 15 20 35 23 45 6 20 21 21 46 2z m160 -94 c38 -30 82 -75 99
-100 26 -39 19 -34 -48 35 -44 44 -95 93 -114 108 -19 15 -28 24 -20 20 8 -4
46 -32 83 -63z m-282 -161 c13 0 11 -44 -3 -58 -15 -15 -54 -16 -63 -2 -4 6 5
10 19 10 29 0 33 12 11 30 -14 12 -20 7 -15 -15 1 -5 -2 -7 -6 -3 -4 4 -13 3
-21 -4 -7 -6 -16 -8 -20 -4 -8 8 27 47 38 41 4 -3 11 0 14 6 4 5 14 8 22 5 8
-3 19 -6 24 -6z"/>
<path d="M1220 2065 c0 -8 11 -17 25 -21 37 -9 38 -1 4 18 -24 14 -29 15 -29
3z"/>
<path d="M1457 1985 c-38 -36 -44 -70 -20 -103 27 -36 88 -42 121 -12 23 22
30 74 12 85 -6 4 -8 10 -6 14 3 4 -5 13 -17 19 -47 23 -62 22 -90 -3z m82 -61
c8 -7 -23 -34 -40 -34 -22 0 -33 16 -25 36 4 10 13 13 33 8 16 -4 30 -8 32
-10z"/>
<path d="M2194 1808 c-5 -7 -9 -17 -9 -23 0 -9 -20 -20 -175 -94 -36 -17 -88
-43 -116 -59 l-51 -28 60 -92 61 -92 85 7 c48 3 96 13 109 21 24 16 30 42 9
42 -8 0 -22 19 -32 43 -10 23 -29 66 -43 96 -20 44 -22 55 -11 62 22 14 33 10
45 -14 6 -12 24 -44 39 -70 20 -35 25 -51 17 -59 -8 -8 -14 -5 -22 13 l-11 24
6 -25 c2 -14 5 -31 5 -37 0 -7 5 -13 10 -13 6 0 10 7 10 16 0 10 6 14 15 11
24 -10 25 6 4 53 -13 29 -16 46 -9 48 6 2 17 10 24 18 17 16 36 18 36 4 0 -5
-7 -10 -15 -10 -8 0 -15 -6 -15 -14 0 -19 20 -32 20 -14 1 7 12 0 25 -17 19
-23 27 -27 36 -18 13 13 5 37 -49 155 -22 47 -31 56 -47 52 -16 -4 -17 -3 -5
5 8 5 12 13 8 16 -3 4 -10 0 -14 -7z m17 -88 c5 0 9 8 10 18 0 12 3 10 10 -7
7 -18 5 -28 -7 -42 -23 -26 -55 -34 -65 -18 -13 22 -11 33 13 59 20 21 23 22
26 7 2 -9 8 -17 13 -17z m-163 -57 c-2 -10 -16 -24 -32 -31 -20 -10 -25 -17
-17 -25 7 -7 16 -6 29 6 21 20 37 23 26 5 -5 -7 -2 -9 8 -5 11 4 14 1 11 -12
-2 -9 5 -25 16 -35 12 -11 21 -24 21 -30 0 -6 9 -22 20 -36 24 -30 25 -44 4
-36 -9 3 -12 2 -8 -5 4 -7 -18 -10 -72 -7 l-79 3 -28 41 c-29 44 -28 73 4 75
38 3 42 4 46 16 7 21 -17 24 -62 7 -73 -27 -63 -9 22 40 87 51 96 54 91 29z"/>
<path d="M2108 1759 c-21 -11 -38 -22 -38 -24 0 -7 49 13 73 30 30 21 9 18
-35 -6z"/>
<path d="M1246 1763 c-11 -11 -7 -35 5 -27 8 4 9 0 4 -15 -7 -24 3 -27 28 -8
15 11 15 14 -7 34 -13 12 -26 20 -30 16z"/>
<path d="M1421 1735 c-80 -37 -141 -78 -136 -93 3 -7 1 -11 -4 -8 -5 3 -16 -6
-25 -19 -10 -15 -22 -23 -29 -19 -7 4 -9 4 -5 -1 4 -4 -7 -27 -25 -49 -57 -70
-110 -207 -86 -222 5 -3 9 -14 9 -24 0 -21 73 -165 98 -193 15 -17 17 -15 33
25 114 290 247 584 259 571 41 -43 262 -580 253 -614 -6 -22 -26 -25 -40 -6
-26 33 -203 487 -203 520 0 35 -16 7 -48 -83 -47 -133 -85 -226 -143 -345 -30
-60 -55 -113 -57 -117 -4 -9 94 -80 140 -103 52 -24 156 -18 222 14 97 48 194
167 246 304 22 58 27 133 8 121 -8 -5 -9 0 -6 14 4 12 2 22 -4 22 -5 0 -6 5
-3 10 3 6 2 10 -4 10 -6 0 -17 13 -26 29 -11 23 -12 31 -2 34 6 3 2 6 -10 6
-13 1 -23 5 -23 10 0 5 -11 23 -26 40 -14 16 -26 34 -27 38 -1 4 -5 7 -9 6 -5
-2 -8 4 -8 12 0 8 -6 15 -14 15 -7 0 -20 8 -27 18 -13 16 -12 16 6 3 11 -7 4
1 -15 18 -19 17 -41 29 -48 26 -7 -2 -10 -1 -7 5 7 12 -32 33 -47 24 -6 -4 -8
-3 -5 3 4 6 -3 13 -16 17 -43 11 -92 5 -146 -19z m13 -102 c-10 -21 -27 -51
-38 -68 -12 -16 -20 -32 -19 -35 4 -9 -21 -70 -29 -70 -4 0 -8 -9 -8 -20 0
-11 -9 -35 -20 -55 -11 -20 -20 -41 -20 -48 0 -7 -11 -37 -25 -65 -14 -29 -25
-56 -25 -60 0 -15 -22 -30 -37 -25 -18 7 -59 89 -68 137 -11 56 50 170 131
245 90 83 108 97 140 108 36 12 40 4 18 -44z m183 36 c55 -27 173 -155 220
-239 l36 -64 -16 -65 c-10 -35 -27 -80 -39 -99 l-21 -35 -19 23 c-10 12 -18
28 -18 35 0 7 -5 15 -11 17 -6 2 -13 17 -14 32 -2 16 -7 32 -12 35 -4 3 -9 15
-11 25 -2 11 -10 29 -17 40 -8 12 -15 26 -15 31 -1 9 -7 23 -46 111 -9 20 -17
42 -18 48 -2 13 -32 71 -54 104 -19 29 -3 29 55 1z m-87 -201 c11 -18 20 -46
20 -61 0 -16 4 -26 8 -23 5 3 17 -24 27 -59 11 -36 23 -65 27 -65 4 0 8 -11 8
-25 0 -14 4 -25 9 -25 11 0 32 -56 24 -64 -4 -3 -1 -6 6 -6 7 0 9 -4 6 -10 -3
-5 -3 -10 2 -10 4 0 13 -12 20 -26 10 -23 9 -29 -16 -54 -59 -62 -171 -88
-235 -55 -15 8 -33 15 -39 15 -15 0 -77 61 -77 76 0 6 9 23 21 38 11 14 18 30
15 35 -4 5 0 16 9 24 8 8 20 33 27 56 7 23 16 41 20 41 5 0 8 11 8 24 0 14 5
28 12 32 7 5 8 3 3 -6 -5 -8 -4 -11 3 -6 6 4 9 13 6 20 -3 8 2 28 10 45 9 16
16 41 16 56 0 14 4 25 9 25 5 0 11 9 14 20 7 28 14 25 37 -12z"/>
<path d="M572 1700 c-11 -12 -27 -50 -36 -85 -20 -78 -20 -80 -1 -65 8 6 19 9
26 5 8 -6 8 -9 -1 -15 -6 -4 -10 -18 -8 -31 4 -23 5 -23 13 -4 13 31 57 75 76
75 11 0 22 13 29 36 15 44 3 56 -47 51 -26 -2 -30 0 -23 13 5 9 5 22 1 29 -7
10 -13 8 -29 -9z m58 -65 c0 -8 -12 -18 -26 -21 -16 -4 -23 -11 -20 -20 4 -11
1 -12 -14 -4 -23 12 -18 31 13 46 32 16 47 16 47 -1z"/>
<path d="M2493 1709 c-8 -8 -6 -24 9 -57 29 -66 42 -79 64 -61 10 8 15 9 11 2
-4 -6 -3 -14 3 -18 14 -9 12 32 -4 87 -8 25 -12 49 -9 52 4 3 -9 6 -28 6 -19
0 -40 -5 -46 -11z m77 -85 c0 -20 -17 -25 -29 -10 -15 18 -31 73 -24 80 8 7
53 -54 53 -70z"/>
<path d="M710 1621 l-25 -7 28 -6 c15 -3 27 -1 27 4 0 13 39 0 72 -23 31 -22
54 -17 62 14 7 28 2 31 -18 11 -17 -17 -66 -13 -66 6 0 11 -42 12 -80 1z"/>
<path d="M701 1594 c-1 -6 -19 -19 -42 -29 -48 -22 -84 -82 -76 -125 10 -49
47 -99 83 -112 19 -6 34 -15 34 -18 0 -12 108 6 132 22 50 33 58 47 58 106 0
67 -14 92 -72 128 -29 18 -50 25 -74 22 -19 -2 -36 1 -38 7 -3 6 -5 6 -5 -1z
m30 -38 c5 3 9 0 9 -7 0 -8 4 -8 15 1 9 7 15 8 15 2 0 -11 47 -27 69 -23 8 2
12 -3 8 -12 -3 -9 1 -18 9 -21 11 -4 12 -11 4 -32 -7 -19 -7 -30 1 -40 9 -11
3 -22 -29 -54 -22 -22 -42 -40 -46 -40 -3 0 -6 11 -6 24 0 35 -13 39 -44 15
-22 -17 -25 -24 -14 -36 10 -13 6 -13 -27 1 -68 28 -113 98 -85 131 14 17 40
20 40 5 0 -5 -7 -10 -15 -10 -24 0 -18 -14 15 -33 18 -11 27 -23 23 -32 -4
-11 2 -15 20 -15 41 0 40 16 -1 38 -26 14 -37 26 -38 43 -2 54 -4 61 -19 55
-24 -9 -17 3 8 15 12 5 33 16 47 24 15 8 26 10 28 5 2 -6 8 -8 13 -4z"/>
<path d="M726 1441 c-9 -14 18 -31 42 -24 26 6 29 18 6 27 -22 9 -42 7 -48 -3z"/>
<path d="M2306 1571 c-4 -5 0 -12 6 -14 8 -3 5 -6 -5 -6 -11 -1 -31 -10 -45
-20 -15 -10 -31 -19 -37 -19 -15 1 -34 -41 -41 -90 -5 -34 -3 -48 10 -60 9 -9
16 -12 17 -7 1 6 2 30 3 55 3 47 19 89 36 91 6 1 15 2 20 3 6 0 10 5 9 11 -1
19 42 25 66 9 13 -9 29 -12 36 -8 8 4 2 12 -17 22 -40 21 -12 28 30 8 19 -9
39 -16 45 -16 6 0 15 -9 21 -20 6 -12 16 -18 23 -14 7 4 9 4 5 -1 -4 -4 -2
-15 5 -24 10 -14 10 -14 -5 -3 -32 26 -51 -15 -28 -59 7 -11 7 -19 1 -19 -5 0
-11 5 -13 12 -6 17 -28 0 -28 -21 0 -15 -7 -16 -56 -11 -43 5 -60 12 -75 31
-15 19 -21 21 -28 10 -5 -7 -14 -10 -20 -7 -6 4 -11 2 -11 -4 0 -8 9 -10 24
-6 25 6 45 -8 27 -18 -5 -3 -7 -15 -4 -27 4 -14 11 -18 22 -13 9 4 34 10 56
13 37 7 40 5 40 -16 0 -25 0 -25 -65 -27 -37 -1 -49 3 -65 24 -11 13 -19 28
-17 32 3 13 -16 9 -24 -4 -9 -14 64 -81 78 -72 5 3 15 1 22 -5 26 -22 152 36
178 81 14 26 20 130 7 122 -5 -3 -9 1 -9 9 0 20 -50 63 -89 76 -41 13 -98 15
-105 2z m197 -175 c7 3 -7 -13 -31 -36 -24 -23 -47 -38 -54 -34 -8 5 -6 11 5
19 9 7 14 15 10 18 -3 4 1 7 10 7 9 0 22 9 29 20 7 11 14 16 16 10 2 -6 9 -7
15 -4z"/>
<path d="M495 1470 c-7 -23 -8 -23 17 -36 12 -7 14 -14 8 -24 -8 -13 -12 -12
-25 5 -15 20 -15 20 -8 0 10 -32 24 -45 49 -45 16 0 22 -5 20 -17 -19 -107
-20 -106 28 -146 41 -34 49 -37 85 -31 38 6 40 8 35 38 -11 67 -15 75 -36 82
-12 4 -41 26 -63 49 -37 38 -41 47 -40 88 1 28 -2 47 -9 47 -6 0 -21 3 -33 6
-16 4 -23 0 -28 -16z m162 -219 c2 -17 -1 -22 -12 -17 -17 6 -20 -15 -4 -31 7
-7 6 -12 -4 -16 -10 -4 -24 8 -41 32 -29 42 -32 53 -12 45 7 -3 16 2 19 10 9
23 49 5 54 -23z"/>
<path d="M2582 1424 c-7 -8 -17 -12 -22 -9 -16 10 -4 -64 13 -83 9 -10 17 -26
17 -35 0 -9 4 -17 9 -17 16 0 34 130 20 146 -14 17 -21 17 -37 -2z"/>
<path d="M920 1421 c0 -5 -3 -16 -6 -25 -4 -11 -1 -16 10 -16 9 0 16 -5 16
-11 0 -6 -9 -9 -20 -6 -11 3 -20 1 -20 -4 0 -5 5 -9 12 -9 6 0 2 -11 -11 -23
-13 -14 -44 -29 -76 -36 l-55 -12 0 -45 c0 -50 5 -52 67 -26 33 13 43 22 43
40 0 12 1 25 2 30 3 17 35 31 70 32 43 0 73 -26 83 -71 4 -16 11 -31 16 -34
29 -18 -25 -105 -55 -88 -6 3 -8 3 -4 -2 4 -4 -14 -24 -40 -44 -54 -40 -97
-67 -89 -54 3 5 -3 28 -13 51 l-19 43 45 19 c27 12 44 25 42 33 -6 16 -46 21
-62 8 -8 -6 -22 -8 -31 -4 -13 4 -16 3 -11 -5 5 -8 2 -10 -9 -6 -13 5 -15 2
-9 -22 9 -38 62 -154 71 -154 3 0 38 24 77 53 74 54 139 98 169 114 16 8 16
11 -6 41 -13 17 -36 61 -52 97 -26 61 -29 65 -61 65 -36 0 -55 16 -27 23 14 3
12 6 -9 15 -30 12 -36 27 -15 35 7 3 5 6 -5 6 -10 1 -18 -3 -18 -8z m-45 -141
c3 -5 -1 -10 -9 -10 -9 0 -16 -4 -16 -9 0 -5 -9 -11 -20 -14 -22 -6 -28 17 -8
29 7 4 8 3 4 -4 -4 -7 -2 -12 3 -12 6 0 11 7 11 15 0 17 25 20 35 5z"/>
<path d="M983 1422 c-22 -14 2 -35 32 -28 22 6 25 9 15 21 -14 17 -29 19 -47
7z"/>
<path d="M2130 1395 c0 -13 -4 -14 -22 -4 -16 9 -23 9 -26 1 -3 -9 -9 -9 -23
-2 -13 7 -19 7 -19 0 0 -5 -5 -10 -11 -10 -5 0 -7 5 -4 10 3 6 2 10 -4 10 -19
0 -21 -19 -3 -29 13 -7 31 -7 53 -1 19 6 34 10 35 10 1 0 4 -9 7 -20 4 -17 0
-20 -31 -21 -96 -1 -111 -9 -131 -66 -18 -50 -77 -142 -96 -149 -8 -4 -15 -13
-15 -21 0 -7 -12 -25 -26 -38 -15 -14 -23 -25 -19 -25 4 0 2 -7 -5 -15 -11
-13 -10 -18 2 -28 9 -7 31 -41 51 -77 65 -122 71 -130 92 -129 20 0 20 0 0 9
-19 8 -19 9 3 9 12 1 22 6 22 12 0 16 83 109 98 109 20 0 14 -10 -25 -46 -21
-18 -35 -34 -30 -34 11 0 66 51 89 83 16 22 18 31 9 40 -9 9 -11 8 -6 -5 11
-27 -17 -22 -45 7 -13 14 -61 50 -108 82 -77 51 -83 58 -66 70 10 7 20 13 23
13 3 0 44 -29 91 -65 81 -61 85 -63 93 -42 5 12 17 38 26 57 27 53 34 90 17
90 -8 0 -16 -15 -19 -37 -4 -21 -14 -48 -22 -61 -16 -22 -17 -22 -48 -5 -18
10 -33 21 -35 26 -2 4 -10 7 -18 7 -8 0 -11 6 -7 17 4 10 2 14 -4 10 -6 -4
-17 0 -24 9 -10 12 -10 20 -1 35 7 10 12 26 12 34 0 8 4 15 8 15 5 0 14 11 21
23 10 19 30 28 89 42 59 14 72 20 57 26 -11 4 -14 8 -6 8 8 1 11 8 8 21 -3 10
1 24 9 31 8 6 11 15 8 20 -9 14 -24 10 -24 -6z m-186 -384 c28 -17 46 -31 40
-31 -5 0 -2 -5 6 -10 8 -5 16 -21 17 -35 1 -19 -8 -32 -43 -55 -43 -30 -71
-32 -60 -4 3 9 0 11 -11 7 -12 -5 -15 -2 -10 10 3 9 2 19 -3 22 -6 4 -10 14
-10 24 0 10 -6 24 -14 30 -8 7 -13 21 -11 31 5 24 38 62 45 51 3 -5 27 -23 54
-40z"/>
<path d="M475 1345 c4 -27 11 -53 17 -56 5 -3 6 -18 2 -32 -5 -22 -3 -27 13
-27 18 0 19 6 15 57 -4 43 -11 63 -29 82 l-25 26 7 -50z"/>
<path d="M1034 1379 c-11 -19 13 -34 31 -19 13 11 13 15 3 21 -18 12 -26 11
-34 -2z"/>
<path d="M2157 1340 c-5 -19 15 -50 31 -50 4 0 16 -13 27 -29 10 -16 23 -27
28 -24 13 8 28 -19 21 -39 -3 -10 -2 -23 2 -30 7 -10 33 59 34 88 0 16 -46 23
-61 10 -8 -8 -10 -6 -5 11 4 12 2 24 -4 28 -5 3 -10 0 -10 -7 0 -7 -8 3 -18
22 -23 41 -38 48 -45 20z"/>
<path d="M723 1283 c-3 -9 -1 -34 5 -57 8 -31 8 -43 -1 -48 -8 -5 -4 -8 9 -8
21 0 21 2 9 59 -12 58 -12 60 9 64 20 4 20 4 -2 6 -13 0 -25 -6 -29 -16z"/>
<path d="M488 1189 c-10 -5 -18 -19 -18 -30 0 -25 27 -79 40 -79 15 0 12 8
-10 30 -11 11 -20 28 -20 38 0 11 7 6 20 -16 20 -32 22 -33 43 -19 12 8 21 17
20 21 -2 3 -3 20 -3 36 0 26 -4 30 -27 30 -16 0 -36 -5 -45 -11z"/>
<path d="M2547 1183 c-11 -10 -8 -103 3 -103 5 0 15 10 21 23 19 35 58 54 45
21 -3 -8 -2 -12 4 -9 14 9 13 48 -2 63 -13 13 -60 16 -71 5z"/>
<path d="M580 1168 c0 -9 5 -20 10 -23 6 -3 10 -16 11 -28 0 -21 1 -21 9 -2
11 25 12 41 3 31 -4 -3 -13 4 -20 16 -9 18 -12 19 -13 6z"/>
<path d="M705 1153 c-45 -11 -85 -36 -85 -53 0 -10 -18 -34 -41 -53 l-40 -35
15 -36 c8 -20 21 -36 29 -36 8 0 20 -6 27 -14 12 -15 39 -11 52 8 4 6 15 3 29
-9 20 -19 20 -18 -2 17 -24 37 -43 51 -33 23 10 -24 -5 -36 -29 -23 -12 6 -29
14 -37 18 -20 9 -25 40 -7 40 8 0 19 -10 25 -22 10 -20 11 -17 6 20 -4 32 -3
42 7 40 7 -2 15 6 17 16 6 27 28 47 44 41 12 -5 70 -115 72 -137 1 -4 8 -16
17 -26 20 -23 22 -72 3 -72 -7 0 -18 9 -24 21 -7 11 -14 18 -18 14 -8 -7 28
-75 40 -75 5 0 23 20 40 45 33 46 48 56 48 31 0 -8 6 -17 13 -19 7 -3 4 -6 -7
-6 -12 -1 -16 -6 -12 -16 3 -8 1 -14 -3 -12 -5 1 -23 -17 -39 -39 l-30 -41 39
-12 c35 -11 97 -73 112 -114 3 -7 23 6 48 32 24 23 45 38 47 32 3 -9 7 -9 18
0 11 9 14 8 14 -3 0 -19 -90 -105 -114 -110 -21 -3 -18 -9 34 -51 31 -26 38
-12 10 18 -27 29 -20 32 20 9 15 -10 35 -14 45 -10 15 6 15 8 -4 24 l-21 17
25 29 c24 28 26 29 65 16 27 -9 40 -19 40 -31 0 -20 -47 -49 -67 -42 -7 3 -13
0 -13 -6 0 -6 4 -11 10 -11 23 0 -5 -30 -29 -31 -14 0 -20 -3 -13 -6 6 -2 12
-11 12 -19 0 -23 9 -17 63 40 49 51 99 78 115 61 4 -4 0 -10 -8 -13 -18 -6
-110 -100 -110 -113 0 -5 6 -9 13 -9 6 0 25 -7 41 -15 15 -8 32 -12 37 -9 5 3
9 0 9 -5 0 -6 11 -11 24 -11 13 0 29 -7 36 -15 27 -33 26 -12 -3 45 -29 59
-30 63 -18 113 17 69 16 71 -21 80 -41 10 -138 57 -138 67 0 4 -18 13 -40 20
-27 9 -39 18 -38 29 2 10 -3 15 -13 13 -23 -3 -178 170 -171 191 1 4 -5 15
-14 25 -15 15 -16 14 -9 -8 4 -14 14 -32 22 -42 8 -9 10 -19 5 -22 -15 -9 -39
25 -82 117 -44 97 -47 107 -25 107 8 0 15 5 15 10 0 10 -11 11 -45 3z m180
-355 c-3 -20 -2 -21 8 -6 10 15 13 14 35 -10 30 -35 42 -65 35 -91 -8 -33 -26
-25 -71 30 -47 58 -48 61 -26 83 21 21 24 20 19 -6z m342 -295 c-5 -30 -27
-64 -38 -58 -5 4 -7 11 -4 16 3 5 0 6 -8 3 -8 -3 -18 1 -23 8 -4 7 -4 10 0 7
4 -4 19 4 33 17 31 28 44 31 40 7z"/>
<path d="M2128 1085 l-37 -73 26 -18 c24 -15 30 -15 52 -3 13 8 40 42 59 77
l34 62 -36 15 c-19 8 -41 15 -48 14 -7 0 -30 -33 -50 -74z m92 29 c0 -17 -53
-104 -64 -104 -23 0 -23 10 0 57 13 25 24 53 24 60 0 11 5 11 20 3 11 -6 20
-13 20 -16z"/>
<path d="M753 1119 c-9 -11 -6 -21 13 -44 26 -33 31 -19 11 29 -10 23 -15 26
-24 15z"/>
<path d="M1123 1115 c-18 -8 -33 -20 -33 -28 0 -8 -12 -23 -27 -32 l-28 -18
25 29 c27 31 24 29 -68 -42 -35 -27 -73 -54 -83 -60 -22 -12 -23 -31 -2 -26 7
2 10 -3 7 -11 -7 -18 99 -117 126 -117 12 0 19 -4 16 -8 -2 -4 -1 -14 3 -21 6
-9 29 25 72 105 34 66 69 125 76 132 19 19 17 24 -22 55 -21 17 -32 33 -29 42
7 18 8 18 -33 0z m3 -73 c30 -20 33 -47 8 -92 -13 -25 -31 -60 -41 -77 -17
-33 -54 -45 -68 -23 -3 6 -14 10 -25 10 -11 0 -23 13 -33 38 -14 34 -14 38 2
47 10 6 33 22 53 38 19 15 40 27 46 27 7 0 17 9 24 20 14 22 18 23 34 12z"/>
<path d="M552 1103 c-6 -3 -10 -9 -6 -14 3 -5 0 -9 -7 -9 -7 0 -10 -2 -7 -5 9
-9 58 14 58 27 0 10 -2 10 -9 -1 -5 -7 -10 -9 -12 -4 -2 6 -10 8 -17 6z"/>
<path d="M2510 1082 c0 -22 13 -42 26 -42 20 0 17 14 -6 35 -11 10 -20 13 -20
7z"/>
<path d="M1226 1014 c-9 -24 -7 -36 5 -28 19 12 -1 -35 -52 -122 -27 -46 -49
-87 -49 -93 0 -5 -9 -8 -20 -6 -50 10 -5 -17 122 -71 60 -25 79 -30 74 -19 -8
22 87 161 124 180 16 8 44 15 62 15 l33 0 -30 -15 c-40 -20 -130 -119 -157
-175 -13 -25 -26 -48 -31 -51 -10 -7 -27 -68 -27 -96 0 -42 15 -24 34 39 24
82 131 238 163 238 7 0 13 5 13 11 0 6 9 8 23 4 31 -10 87 -54 87 -69 0 -7 12
-23 26 -37 30 -27 69 -92 78 -129 5 -19 2 -17 -17 12 -13 21 -35 48 -50 62
-15 14 -27 34 -27 44 0 11 -7 25 -15 32 -8 7 -15 18 -15 25 0 18 -69 29 -102
16 -25 -10 -58 -49 -72 -85 -5 -16 -4 -17 8 -6 9 6 21 10 28 7 7 -2 -4 -11
-24 -20 -48 -20 -88 -95 -88 -165 0 -44 4 -52 48 -94 26 -26 58 -51 72 -57 14
-5 18 -10 9 -10 -28 -2 -108 60 -131 100 -24 43 -43 52 -33 17 12 -41 61 -93
111 -118 90 -45 254 -26 254 29 0 10 7 24 16 31 28 24 37 53 39 132 3 79 3 79
-45 151 -26 40 -66 93 -88 117 -23 24 -40 45 -37 48 16 16 58 -18 115 -92 36
-47 72 -85 80 -85 8 0 26 6 40 14 29 17 22 19 -14 5 -16 -6 -27 -6 -31 0 -6 9
19 14 68 13 9 0 17 4 17 9 0 5 4 6 10 3 8 -5 31 6 69 31 1 2 -2 9 -8 16 -7 7
-18 22 -26 33 -15 20 -15 20 -9 0 4 -13 -1 -10 -14 9 -12 17 -19 33 -16 38 3
5 -9 33 -26 64 -18 30 -29 58 -26 61 7 7 -13 33 -25 33 -5 0 -8 -3 -8 -7 3
-21 -2 -34 -11 -28 -6 3 -21 -2 -35 -13 -14 -11 -54 -30 -90 -43 -43 -15 -61
-26 -53 -31 7 -5 -7 -5 -32 -2 -25 4 -49 10 -55 15 -5 5 -17 9 -27 9 -22 0
-95 36 -116 57 -8 8 -21 12 -28 9 -8 -3 -11 0 -7 10 3 8 2 14 -3 13 -22 -4
-34 2 -34 16 0 20 -16 19 -24 -1z m68 -91 c4 -5 11 -8 14 -8 14 -1 76 -45 64
-45 -9 0 -11 -7 -7 -19 4 -13 -3 -29 -21 -48 -14 -15 -33 -45 -41 -66 -17 -40
-18 -41 -87 -12 -21 9 -32 21 -34 37 -2 27 17 78 29 78 4 0 11 10 14 23 7 23
43 67 55 67 4 0 10 -3 14 -7z m492 -88 c42 -84 40 -93 -23 -99 -50 -5 -81 19
-111 86 l-21 48 42 20 c66 30 72 28 113 -55z m-227 -91 c18 -15 31 -35 31 -49
0 -12 7 -26 16 -29 9 -4 14 -13 10 -21 -3 -9 1 -15 11 -15 11 0 13 -3 5 -13
-6 -7 -9 -23 -5 -35 4 -18 8 -20 20 -11 18 15 38 -3 47 -43 6 -24 3 -27 -26
-30 -34 -3 -56 -38 -24 -38 28 0 27 -19 -3 -52 l-30 -33 -2 25 c-1 14 -2 31
-2 38 1 9 -5 11 -15 6 -59 -26 -125 -10 -120 29 3 23 -3 24 -69 11 -18 -3 -33
-2 -34 2 0 5 -2 17 -4 28 -5 27 4 44 27 52 18 5 19 8 5 22 -14 13 -12 19 26
58 23 24 49 44 57 45 8 0 2 7 -15 14 -29 14 -27 19 6 16 8 -1 21 10 27 24 15
31 23 31 61 -1z m-141 -291 c15 -3 41 -15 57 -25 17 -10 42 -18 56 -18 14 0
34 -6 45 -14 21 -15 23 -14 -60 -31 -35 -7 -146 62 -128 79 3 4 -1 4 -11 0
-12 -4 -17 -1 -17 11 0 12 5 15 16 11 9 -3 28 -9 42 -13z m183 -98 c-18 -8
-50 -14 -70 -14 -33 1 -33 2 12 9 27 5 52 11 55 14 3 3 12 6 21 6 9 -1 1 -7
-18 -15z"/>
<path d="M1510 620 c6 -11 13 -20 16 -20 3 0 2 5 -1 10 -9 14 8 13 23 -2 9 -9
12 -9 12 -1 0 14 -18 26 -43 30 -15 3 -16 0 -7 -17z"/>
<path d="M632 872 l-32 -18 25 -34 c32 -43 86 -93 93 -86 3 4 -16 27 -41 52
-43 42 -60 74 -38 74 14 0 102 -100 97 -109 -4 -5 3 -7 15 -4 14 4 17 8 9 13
-7 4 -9 13 -6 19 4 6 -4 25 -18 41 -13 17 -27 39 -31 50 -8 24 -29 25 -73 2z"/>
<path d="M2250 878 c0 -4 14 -8 30 -8 17 0 30 4 30 9 0 5 -13 9 -30 9 -16 -1
-30 -5 -30 -10z"/>
<path d="M780 720 c-43 -13 -82 -38 -71 -44 6 -4 19 -3 29 3 14 8 24 4 46 -20
32 -33 39 -35 61 -13 12 13 19 14 30 4 19 -15 19 -1 1 23 -7 9 -21 17 -30 17
-10 0 -15 4 -11 9 9 15 -27 29 -55 21z"/>
<path d="M895 630 c-3 -6 0 -17 8 -25 13 -13 16 -13 21 1 10 27 -15 47 -29 24z"/>
<path d="M1760 567 c0 -9 5 -19 10 -22 6 -3 10 -17 10 -31 0 -27 15 -32 24 -8
7 17 -5 44 -28 64 -13 10 -16 10 -16 -3z"/>
</g>
</svg>
