<?xml version="1.0" standalone="no"?>
<!DOCTYPE svg PUBLIC "-//W3C//DTD SVG 20010904//EN"
 "http://www.w3.org/TR/2001/REC-SVG-20010904/DTD/svg10.dtd">
<svg version="1.0" xmlns="http://www.w3.org/2000/svg"
 width="300.000000pt" height="301.000000pt" viewBox="0 0 300.000000 301.000000"
 preserveAspectRatio="xMidYMid meet">
<metadata>
Created by potrace 1.10, written by Peter Selinger 2001-2011
</metadata>
<g transform="translate(0.000000,301.000000) scale(0.100000,-0.100000)"
fill="#000000" stroke="none">
<path d="M80 1510 l0 -1420 1420 0 1420 0 2 1420 3 1420 -1422 0 -1423 0 0
-1420z m170 1403 c0 -2 -23 -39 -52 -81 -29 -42 -62 -95 -75 -117 l-23 -40 0
122 0 122 75 -1 c41 0 75 -2 75 -5z m50 -113 l0 -120 -89 0 -90 0 76 120 c42
66 83 120 90 120 10 0 13 -28 13 -120z m1170 82 c0 -26 -6 -41 -20 -50 -11 -7
-20 -18 -20 -26 0 -9 -22 -15 -77 -20 -93 -7 -238 -45 -325 -83 l-63 -29 -322
4 -323 4 0 114 0 114 568 3 c312 1 570 3 575 5 4 1 7 -15 7 -36z m1437 -87 l2
-114 -92 -3 c-149 -5 -137 -15 -137 118 0 63 4 114 9 114 5 0 18 -12 29 -27
11 -16 23 -25 27 -21 4 3 -3 16 -14 27 -12 12 -21 22 -21 24 0 1 44 1 97 -1
l98 -3 2 -114z m-247 0 l0 -115 -30 0 c-23 0 -30 5 -30 18 0 14 -8 19 -30 20
-16 0 -33 -4 -36 -10 -5 -7 -1 -9 9 -5 11 4 17 1 17 -7 0 -16 -358 -32 -374
-16 -6 6 -21 10 -35 10 -21 0 -23 -2 -11 -10 11 -7 -5 -10 -53 -10 -42 0 -76
5 -90 14 -63 42 -323 106 -428 106 -39 0 -49 4 -54 20 -3 11 -11 20 -16 20 -5
0 -9 18 -9 40 l0 40 585 0 585 0 0 -115z m-1168 -4 c-1 -14 1 -22 5 -18 4 4
21 -16 39 -45 24 -38 30 -56 22 -65 -15 -19 -24 -9 -38 42 -7 25 -17 48 -22
52 -6 3 -8 -2 -5 -13 3 -11 16 -52 27 -92 12 -40 19 -83 16 -96 -3 -13 2 -37
13 -57 10 -19 47 -88 82 -153 39 -73 71 -120 81 -122 26 -3 138 -85 138 -100
0 -8 -3 -14 -6 -14 -10 0 -67 41 -100 72 l-31 29 4 -33 c5 -37 14 -50 -92 132
-82 142 -159 319 -110 254 17 -23 20 -12 3 15 -11 19 -13 18 -30 -10 -10 -16
-23 -29 -30 -29 -8 0 -9 -3 -3 -8 6 -4 25 -36 42 -72 l32 -64 -22 -24 c-36
-39 -97 -85 -104 -78 -3 3 2 15 11 25 10 11 15 24 12 30 -4 6 5 32 19 58 14
26 25 57 25 68 0 28 -37 -47 -57 -115 -10 -37 -27 -66 -51 -88 -46 -44 -54
-32 -12 19 31 39 95 187 85 197 -6 6 -45 -85 -45 -106 0 -9 -5 -24 -11 -32 -8
-12 -9 -10 -4 8 13 46 -5 19 -60 -90 -31 -62 -63 -121 -71 -132 -23 -33 -17
-36 29 -16 53 23 117 36 117 23 0 -17 -107 -52 -119 -40 -11 11 -12 10 -15
-33 -1 -21 -22 -47 -32 -38 -3 3 0 15 7 27 17 27 4 39 -24 22 -20 -13 -21 -13
-8 2 12 15 11 17 -3 17 -10 0 -21 -13 -27 -29 -7 -18 -35 -48 -74 -77 -35 -25
-76 -64 -91 -85 -37 -54 -43 -41 -9 18 40 68 68 99 168 188 85 74 91 83 149
202 33 68 75 144 94 169 19 24 34 50 34 57 0 8 11 24 25 37 18 17 25 33 24 59
0 38 -5 33 -29 -33 -6 -16 -12 -27 -14 -25 -6 7 24 163 33 172 11 11 1 59 -13
54 -6 -2 -11 -12 -11 -23 -1 -10 -11 -42 -24 -71 -22 -48 -25 -51 -47 -41 -21
10 -28 6 -69 -37 -25 -27 -45 -43 -45 -38 0 13 35 50 111 118 31 28 59 63 63
78 5 22 12 28 29 25 17 -2 21 -9 19 -27z m-71 -25 c-6 -7 -42 -17 -79 -21
-107 -11 -228 -52 -359 -119 -68 -35 -120 -60 -117 -55 11 18 -8 8 -66 -38
-33 -25 -58 -48 -55 -51 2 -3 12 1 21 9 39 33 293 161 307 155 7 -2 5 -5 -4
-5 -8 -1 -23 -17 -32 -36 -19 -40 -23 -72 -5 -40 6 11 24 36 39 56 16 20 26
39 23 42 -9 9 200 67 242 67 2 0 4 -9 4 -20 0 -13 -5 -18 -15 -14 -10 4 -13 2
-10 -8 12 -32 -19 -40 -101 -28 -58 9 -79 9 -88 0 -8 -9 -4 -11 19 -9 35 4
125 -9 125 -18 0 -3 -16 -34 -35 -69 -32 -57 -39 -64 -88 -79 -126 -41 -247
-126 -385 -269 -115 -120 -163 -197 -208 -338 -5 -16 -36 -49 -68 -75 -52 -42
-80 -83 -57 -83 11 0 50 43 50 55 0 5 5 11 12 14 8 2 9 -1 4 -10 -5 -8 -5 -11
-1 -7 4 3 8 10 8 15 -1 12 29 43 41 43 5 0 4 -7 -4 -16 -7 -8 -13 -25 -14 -37
-1 -12 -5 -44 -10 -70 -9 -56 -23 -68 -113 -93 -73 -20 -82 -15 -82 47 0 29
14 54 80 141 102 134 114 145 137 127 16 -12 17 -12 6 1 -23 30 15 121 72 175
37 35 42 42 19 28 -65 -38 -83 -60 -94 -109 -8 -34 -23 -62 -49 -89 -21 -22
-60 -69 -86 -105 -27 -36 -52 -67 -55 -70 -4 -3 -10 -14 -13 -24 -15 -39 -17
-7 -3 35 8 24 24 78 36 119 12 41 33 99 47 130 38 87 155 288 190 328 50 57
38 24 -18 -51 -28 -37 -50 -70 -48 -72 9 -9 58 46 85 95 16 29 48 73 71 97 40
43 42 44 60 26 19 -19 122 -67 129 -61 12 13 -30 46 -64 50 -39 6 -92 42 -92
62 0 26 246 179 275 172 22 -6 48 6 45 20 -1 5 4 10 11 13 6 2 9 -1 5 -7 -4
-6 2 -8 15 -5 16 5 18 8 7 15 -9 7 -8 8 5 4 10 -3 24 0 32 7 13 14 143 44 243
57 31 4 59 8 61 9 2 0 -2 -5 -8 -13z m289 -12 c132 -23 166 -34 149 -46 -10
-7 -5 -8 16 -4 24 5 27 4 15 -5 -12 -9 -11 -10 9 -6 30 7 77 -13 59 -25 -9 -6
-5 -8 12 -6 14 2 27 -1 29 -7 2 -5 47 -39 100 -74 90 -59 152 -107 87 -66
-149 92 -244 146 -281 159 -43 14 -48 14 -140 -16 l-96 -30 -22 28 c-24 30
-46 65 -47 75 0 7 125 -14 190 -31 23 -6 44 -10 46 -7 8 8 -109 38 -200 51
-54 7 -102 18 -107 23 -14 14 63 8 181 -13z m-120 -39 c13 -14 20 -28 16 -32
-3 -4 12 -26 36 -50 l42 -42 -26 -20 c-14 -11 -28 -33 -31 -48 -3 -15 -13 -37
-21 -48 -15 -19 -17 -19 -30 -3 -7 10 -16 50 -19 90 -5 63 -4 75 13 93 11 12
20 30 19 41 0 11 -3 14 -6 6 -4 -10 -8 -9 -19 5 -29 39 -9 45 26 8z m-151 -65
c-5 -30 -10 -68 -11 -83 -1 -16 -4 -23 -8 -17 -5 7 -15 6 -36 -5 -16 -8 -38
-15 -48 -15 -16 0 -13 6 15 33 19 18 47 59 63 90 17 31 31 55 32 54 1 -1 -2
-27 -7 -57z m440 -35 c7 -31 23 -75 37 -98 26 -45 31 -73 12 -61 -20 12 -66
10 -64 -3 4 -23 51 -65 101 -89 28 -13 68 -39 90 -58 36 -31 38 -35 20 -42
-54 -19 -183 -83 -190 -93 -4 -7 34 8 84 33 50 25 96 46 103 46 7 -1 0 -8 -17
-16 -16 -9 -61 -34 -99 -56 l-69 -41 -20 24 c-11 13 -24 23 -28 21 -5 -1 -2
15 7 35 22 49 29 99 15 107 -8 5 -7 17 4 42 20 49 8 42 -15 -8 l-19 -43 0 52
c-1 28 3 54 8 58 11 6 10 45 -1 45 -4 0 -8 5 -8 11 0 7 13 10 34 7 19 -2 32 0
29 5 -3 5 -21 7 -42 6 -65 -4 -94 8 -119 52 -13 22 -30 43 -38 46 -18 7 -18
23 0 23 7 0 47 11 87 25 41 13 77 24 80 25 3 0 11 -25 18 -55z m-1019 4 c-98
-62 -229 -170 -285 -236 -49 -56 -151 -213 -194 -300 -50 -100 -83 -203 -107
-336 -18 -99 -32 -148 -45 -163 -23 -25 -24 -42 -3 -65 11 -12 20 -57 29 -139
8 -67 26 -164 41 -216 25 -89 25 -96 10 -113 -14 -15 -16 -37 -13 -132 l3
-114 2 116 c3 156 15 162 76 36 104 -216 256 -395 434 -514 48 -32 88 -58 90
-59 2 -1 -2 -11 -10 -23 -11 -18 -10 -23 7 -36 19 -15 14 -16 -65 -11 -47 3
-174 6 -282 6 l-198 0 0 179 c0 99 -4 182 -8 185 -5 3 -7 40 -4 83 2 43 -1 89
-6 103 -8 19 -11 1 -11 -82 -1 -65 -5 -109 -12 -114 -8 -4 -8 -9 0 -17 6 -6
11 -46 11 -89 0 -45 4 -78 10 -78 6 0 10 -35 10 -85 0 -55 -4 -85 -11 -85 -7
0 -10 26 -8 78 3 63 1 77 -11 77 -9 0 -14 -8 -12 -20 5 -35 5 -39 4 -87 l-2
-48 -100 0 -100 0 0 448 c0 246 -1 772 -2 1170 l-3 722 415 0 415 0 -65 -41z
m1112 -106 c28 -57 54 -101 56 -99 6 7 -40 108 -80 175 -21 34 -38 65 -38 68
0 5 42 -19 170 -96 72 -43 86 -56 92 -83 7 -35 -1 -55 -41 -105 l-25 -32 -31
23 c-16 13 -45 31 -63 40 -27 14 -43 36 -77 109 -25 51 -47 106 -50 122 l-7
30 21 -25 c11 -14 44 -71 73 -127z m934 125 c-3 -13 -6 -539 -6 -1170 l0
-1147 -110 -3 -110 -3 0 243 c0 176 3 248 13 263 10 17 9 22 -7 35 -11 8 -23
14 -27 14 -13 0 -19 -32 -9 -50 6 -11 10 -119 10 -262 l0 -243 -354 0 -353 0
96 47 c116 56 239 145 333 241 76 78 182 213 206 264 10 22 23 33 41 35 23 3
24 4 8 19 -15 16 -14 22 17 96 46 108 73 225 86 368 9 97 14 123 30 137 26 25
25 44 -4 63 -20 13 -24 26 -29 93 -11 149 -100 387 -207 551 -23 36 -44 74
-46 85 -4 22 -41 55 -61 56 -6 0 -21 13 -33 29 -26 38 -187 173 -264 223 l-59
38 423 0 422 0 -6 -22z m-1534 -30 c-43 -61 -72 -85 -114 -91 -21 -3 -38 -4
-38 -2 0 11 43 75 48 71 3 -3 -1 -12 -8 -21 -7 -9 -11 -18 -8 -21 3 -2 13 8
23 23 34 55 68 83 97 83 l29 0 -29 -42z m736 6 c105 -68 294 -236 279 -250 -3
-3 -38 21 -78 55 -40 34 -77 61 -81 61 -5 0 -7 4 -4 9 7 11 -22 37 -118 105
-87 63 -86 76 2 20z m-395 -60 c26 -35 19 -41 -32 -31 l-43 9 23 24 c28 30 30
29 52 -2z m-176 -108 c13 -27 21 -51 19 -53 -7 -7 -57 92 -62 122 -4 30 -4 30
8 5 6 -14 22 -47 35 -74z m-147 59 c0 -9 -7 -27 -17 -41 -12 -19 -18 -22 -24
-12 -15 23 -10 56 9 61 30 8 32 7 32 -8z m-65 -4 c-6 -4 -50 -20 -100 -36 -94
-28 -207 -78 -262 -115 -24 -16 -33 -18 -33 -8 0 15 95 74 175 108 84 36 244
74 220 51z m432 -7 c28 -3 54 -12 56 -19 3 -7 -3 -11 -16 -9 -123 18 -167 27
-167 36 0 7 15 8 38 5 20 -3 60 -9 89 -13z m-1073 -70 c-35 -29 -74 -49 -74
-38 0 2 24 27 53 54 39 37 53 45 56 33 2 -9 -13 -30 -35 -49z m651 17 c9 -40
-69 -197 -100 -204 -27 -5 -67 36 -130 135 -17 28 -17 28 11 39 40 15 187 58
201 58 6 1 14 -12 18 -28z m382 15 c40 -7 79 -19 87 -25 12 -10 16 -36 15
-119 0 -58 -2 -110 -5 -114 -3 -4 -16 0 -30 9 -14 9 -40 23 -57 32 -51 26
-136 199 -110 224 8 9 14 8 100 -7z m658 -138 c12 -24 11 -28 -1 -28 -15 0
-19 -12 -7 -23 3 -4 12 -2 19 4 10 8 18 1 34 -31 23 -45 37 -49 21 -6 -6 14
-9 26 -6 26 2 0 24 -28 48 -62 85 -120 142 -253 181 -425 21 -95 0 -77 -95 79
-28 46 -61 94 -74 108 -13 14 -32 45 -43 70 -11 25 -29 54 -41 64 -18 16 -21
30 -21 88 0 62 -2 68 -15 54 -24 -23 -19 -88 10 -127 14 -19 33 -50 43 -69 25
-50 52 -91 81 -122 24 -27 24 -28 3 -28 -11 0 -23 -4 -26 -8 -3 -5 7 -7 22 -5
24 4 31 -3 67 -62 22 -37 54 -79 71 -95 18 -15 35 -42 39 -61 l7 -33 -55 47
c-30 26 -67 65 -82 87 -15 22 -43 51 -61 65 -19 15 -32 31 -28 36 3 5 0 8 -6
7 -6 -2 -28 36 -49 83 -50 114 -115 211 -195 288 -36 34 -64 67 -60 72 9 15
32 10 43 -8 6 -10 11 -13 11 -7 0 6 -7 17 -15 24 -25 21 -19 80 11 111 l27 28
64 -57 c35 -31 70 -69 78 -84z m-461 117 c35 -15 45 -28 27 -39 -4 -3 -23 8
-41 24 -38 34 -37 36 14 15z m183 -107 c23 -18 42 -38 43 -45 0 -6 6 -13 13
-15 21 -5 130 -127 170 -189 35 -55 87 -168 87 -190 0 -7 11 -35 24 -63 24
-52 58 -194 50 -208 -13 -20 -22 -3 -27 50 -8 72 -54 207 -112 328 -31 65 -64
113 -119 174 -80 88 -176 175 -213 193 -13 5 -23 17 -23 25 0 16 34 -3 107
-60z m-975 -4 c26 -35 43 -64 37 -64 -6 0 -19 -21 -30 -46 -16 -35 -24 -44
-37 -39 -9 4 -43 16 -75 27 -60 21 -73 34 -78 82 -4 25 2 32 60 67 36 21 67
39 70 38 3 0 27 -29 53 -65z m1048 36 c0 -33 -24 -50 -43 -31 -8 8 -5 17 13
36 13 14 25 25 27 25 2 0 3 -14 3 -30z m-623 -27 c6 -27 10 -49 8 -51 -3 -3
-64 25 -74 34 -4 4 42 63 50 63 3 1 11 -20 16 -46z m54 -15 c19 -38 19 -38 -1
-38 -21 0 -30 16 -44 74 -7 27 -6 28 9 16 9 -8 25 -31 36 -52z m-1026 16
c-123 -189 -202 -350 -236 -487 -27 -106 -47 -103 -23 4 27 119 110 294 196
413 15 21 28 44 28 49 0 14 30 47 43 47 5 0 2 -12 -8 -26z m1895 -29 c0 -11
21 -51 46 -90 112 -172 176 -353 209 -584 5 -37 4 -42 -9 -32 -7 6 -17 40 -21
76 -11 108 -52 250 -99 351 -59 125 -145 254 -168 254 -10 0 -25 12 -35 26
-16 25 -16 27 2 40 15 11 22 11 46 -3 17 -10 29 -26 29 -38z m-1636 -70 c-50
-48 -92 -81 -97 -76 -4 4 32 46 85 95 51 48 94 82 96 76 2 -6 -36 -48 -84 -95z
m120 -82 l15 -43 -24 0 c-25 0 -25 1 -24 93 1 84 2 88 10 42 4 -27 15 -69 23
-92z m-47 70 c-12 -86 -41 -223 -48 -223 -4 0 -10 9 -14 19 -10 32 -29 42 -49
28 -17 -13 -17 -16 -2 -44 8 -17 21 -33 27 -35 9 -3 9 -10 -1 -27 -15 -29 -52
-162 -46 -168 2 -2 21 4 42 13 22 10 44 20 49 22 6 2 -19 -23 -55 -56 -36 -34
-68 -61 -72 -62 -13 0 -9 43 7 73 25 48 47 141 42 182 -4 39 -4 39 -5 -7 l-2
-48 -44 0 c-25 0 -47 4 -50 8 -2 4 0 44 6 87 8 64 17 87 42 120 32 42 160 165
172 165 4 0 4 -21 1 -47z m665 30 c4 -16 -4 -18 -85 -16 -49 1 -97 -2 -106 -6
-9 -5 -29 -11 -46 -14 -20 -4 -9 4 30 23 49 25 72 30 131 30 60 0 72 -3 76
-17z m67 4 c8 -11 5 -13 -19 -9 -17 2 -33 8 -36 13 -9 14 42 10 55 -4z m535
-54 c40 -51 41 -56 25 -134 -12 -59 -18 -193 -8 -177 3 5 13 -8 21 -29 20 -49
38 -113 32 -113 -3 0 -18 12 -35 28 -26 24 -30 36 -36 102 -3 41 -6 104 -6
140 0 65 0 65 -10 23 -10 -42 -11 -43 -49 -43 -34 0 -118 32 -118 45 0 3 19
43 43 89 36 72 72 115 98 116 4 0 23 -21 43 -47z m-509 16 c7 -7 1 -8 -20 -3
-46 11 -67 26 -25 19 19 -3 39 -10 45 -16z m-83 -12 c4 -7 8 -19 8 -27 0 -13
-13 -15 -72 -13 -40 1 -63 -1 -51 -5 32 -10 15 -31 -30 -39 -33 -5 -37 -3 -37
16 0 12 6 21 16 21 8 0 12 5 9 10 -4 6 -11 8 -16 5 -5 -4 -9 5 -9 19 0 13 6
27 13 30 21 10 161 -5 169 -17z m-496 -45 c31 -18 -2 -13 -57 8 -28 12 -53 19
-55 17 -2 -2 5 -21 16 -42 23 -45 23 -45 11 -45 -8 0 -51 98 -51 115 0 5 110
-39 136 -53z m138 30 c-172 -138 -215 -187 -261 -299 -18 -42 -43 -58 -43 -28
0 20 95 181 129 219 34 37 134 114 163 125 31 12 37 3 12 -17z m163 -18 c-3
-3 -20 -9 -39 -13 -18 -5 -43 -11 -56 -15 -23 -8 -23 -7 -8 22 20 39 86 59
100 30 5 -10 7 -21 3 -24z m636 -38 c-20 -42 -41 -76 -45 -76 -5 0 3 22 17 50
14 27 25 58 25 69 0 17 29 45 38 36 2 -1 -14 -37 -35 -79z m-376 64 c17 -6 35
-22 42 -36 10 -23 9 -25 -9 -20 -11 3 -30 9 -42 12 -25 7 -38 21 -38 42 0 15
8 15 47 2z m349 -53 c-7 -18 -20 -45 -27 -60 l-14 -27 -28 35 -27 34 43 24
c60 36 70 35 53 -6z m-92 -135 c32 -37 72 -95 88 -130 30 -63 30 -63 12 -97
l-18 -34 -34 52 c-48 73 -88 114 -150 154 -49 31 -81 77 -66 92 3 3 14 -4 24
-16 10 -13 24 -23 32 -23 27 0 104 -57 157 -116 29 -32 49 -50 43 -39 -22 43
-86 106 -151 149 -87 58 -106 93 -36 66 14 -5 24 -6 21 -1 -3 5 -18 12 -32 15
-31 8 -63 43 -64 69 0 25 96 -54 174 -141z m-289 134 c47 -6 87 -25 82 -39 -7
-23 -39 -19 -68 9 -16 15 -29 22 -29 16 0 -7 -14 -12 -34 -12 -45 0 -66 9 -66
27 0 13 8 14 43 9 23 -3 56 -8 72 -10z m-919 -61 c-35 -46 -106 -182 -106
-203 0 -6 -5 -14 -11 -18 -17 -10 -4 39 32 116 34 72 111 180 116 163 2 -6
-12 -32 -31 -58z m358 41 c-9 -24 -34 -28 -34 -6 0 13 7 20 20 20 13 0 17 -5
14 -14z m1274 -130 c17 -35 36 -75 41 -89 l11 -27 -85 0 -85 0 0 33 c0 17 3
77 7 131 l6 100 37 -43 c20 -23 51 -71 68 -105z m-1409 93 c1 10 11 12 44 7
23 -4 45 -11 50 -15 4 -4 -16 -20 -45 -36 -29 -16 -56 -33 -60 -39 -18 -26 -5
-24 34 4 61 44 66 37 14 -21 -42 -47 -46 -56 -46 -103 0 -40 4 -54 20 -64 18
-11 22 -8 43 25 36 57 76 97 138 136 30 19 61 42 68 51 19 23 33 20 26 -6 -8
-26 -44 -68 -58 -68 -5 0 -6 7 -3 16 3 8 2 12 -4 9 -6 -3 -10 -11 -10 -17 0
-5 -23 -30 -50 -55 -28 -25 -62 -65 -76 -90 -26 -42 -27 -43 -50 -28 -51 33
-52 28 -55 -247 -2 -119 -6 -215 -11 -212 -4 3 -8 12 -8 20 0 8 -6 13 -12 12
-9 -2 -14 13 -16 45 -2 35 0 47 8 42 8 -5 8 -1 0 12 -10 15 -9 43 4 129 19
132 20 177 4 172 -14 -5 -33 -73 -49 -180 l-12 -78 -19 41 c-10 23 -18 52 -18
64 0 60 82 178 110 160 10 -6 11 15 8 91 -6 112 11 290 23 239 4 -16 7 -24 8
-16z m978 19 c32 -37 95 -146 91 -159 -5 -14 -48 41 -78 99 -12 22 -28 46 -36
53 -15 13 -19 29 -6 29 5 0 18 -10 29 -22z m-433 -36 c-5 -18 -13 -22 -47 -22
-39 0 -40 0 -22 20 10 11 14 21 9 21 -5 1 5 5 21 8 37 9 46 2 39 -27z m117 22
c8 -2 26 -18 38 -35 l23 -30 -31 15 c-16 9 -43 16 -58 15 -20 -1 -9 -7 37 -21
57 -17 100 -45 100 -63 0 -3 -14 2 -31 10 -19 10 -41 14 -59 10 -16 -3 -44 -3
-64 1 l-36 6 0 55 0 55 33 -7 c17 -4 39 -8 48 -11z m72 -11 c17 -16 27 -22 23
-15 -9 16 12 16 28 -1 8 -7 17 -23 21 -36 5 -18 4 -22 -6 -17 -8 4 1 -6 19
-22 26 -23 33 -38 36 -75 2 -25 13 -61 24 -80 12 -18 37 -83 56 -143 26 -86
35 -131 38 -211 2 -56 0 -99 -4 -97 -4 3 -8 -3 -8 -13 0 -10 -9 -46 -19 -81
-11 -34 -15 -60 -10 -56 13 8 11 -7 -6 -36 -8 -14 -14 -29 -14 -35 0 -16 32
48 34 67 2 21 75 141 82 134 7 -7 -44 -171 -68 -217 -16 -33 -65 -76 -75 -66
-2 2 0 17 6 33 14 42 40 262 40 336 0 115 -20 227 -56 321 -19 49 -33 96 -30
104 6 14 -100 183 -114 183 -4 0 -15 11 -24 25 -22 33 -9 32 27 -2z m-278 -3
c-31 -35 -85 -64 -97 -52 -28 28 25 69 91 71 24 1 24 1 6 -19z m725 -98 c47
-8 57 -22 59 -84 1 -35 -34 -49 -54 -22 -7 11 -11 22 -9 25 2 4 0 18 -5 31
-11 27 -13 -26 -9 -252 4 -263 3 -325 -6 -328 -6 -1 -11 89 -13 225 -3 272 -3
271 -10 256 -2 -7 -10 -13 -15 -13 -6 0 -9 3 -5 6 3 3 -1 24 -9 46 -25 71 -10
76 27 10 l20 -37 -6 40 c-9 55 -28 87 -69 119 -52 39 -44 50 12 15 26 -16 68
-33 92 -37z m-640 -2 c0 -59 0 -60 -28 -60 -47 0 -126 -28 -169 -59 -23 -16
-43 -27 -46 -25 -3 3 -8 0 -13 -7 -5 -8 -3 -10 6 -4 8 5 11 4 7 -3 -4 -5 -16
-8 -26 -5 -19 5 -41 -11 -74 -57 -12 -17 -16 -19 -13 -7 3 10 6 32 6 48 0 26
8 33 90 74 49 25 99 45 110 45 12 0 18 5 15 10 -4 6 11 10 36 10 30 0 40 3 32
11 -15 15 -96 -7 -172 -48 -35 -19 -66 -32 -68 -29 -3 2 21 21 54 42 32 20 69
44 83 53 18 12 37 15 70 10 25 -3 47 -3 50 1 3 4 14 10 25 13 11 4 -5 4 -35 2
-30 -3 -71 -1 -90 3 l-35 8 45 16 c25 9 66 17 93 17 l47 1 0 -60z m-230 -2
c-16 -9 -42 -37 -60 -63 -18 -25 -34 -44 -37 -41 -8 8 18 66 29 66 5 0 7 4 4
9 -3 5 13 26 36 47 38 34 42 35 48 18 5 -14 0 -23 -20 -36z m-554 -5 c-10 -71
-16 -83 -39 -93 -16 -6 2 -9 57 -9 70 -1 77 -3 71 -18 -4 -10 -12 -31 -18 -47
-9 -27 -11 -28 -24 -11 -7 11 -13 13 -13 7 0 -28 -18 -9 -26 26 -4 22 -9 30
-11 19 -3 -9 1 -33 7 -52 9 -28 9 -39 -1 -51 -19 -24 -100 -77 -106 -70 -11
11 20 139 38 157 11 11 15 19 9 19 -5 0 -10 9 -10 20 0 23 55 150 66 150 3 0
3 -21 0 -47z m901 -15 c22 -20 37 -58 24 -58 -5 0 -20 11 -35 25 -15 14 -31
25 -37 25 -16 0 -10 -10 14 -20 20 -8 19 -9 -10 -9 -31 -1 -33 1 -33 34 0 33
1 35 28 29 15 -4 37 -15 49 -26z m83 11 c27 -6 50 -14 50 -19 0 -4 -20 -2 -45
6 -25 7 -43 9 -41 5 3 -5 26 -14 51 -20 57 -14 59 -30 3 -25 -48 5 -43 0 19
-16 33 -8 43 -16 52 -42 6 -17 10 -33 8 -34 -1 -2 -25 12 -52 31 -28 19 -57
34 -65 34 -8 1 1 -9 20 -21 98 -59 108 -69 119 -113 16 -62 15 -63 -21 -9 -41
60 -111 107 -194 130 -35 9 -64 21 -64 25 0 11 15 11 64 0 21 -5 45 -7 53 -4
18 7 7 41 -21 65 -18 15 -18 17 -4 18 9 0 40 -5 68 -11z m-809 -76 c-27 -18
-27 -40 -1 -48 11 -4 18 -11 15 -16 -8 -12 -66 -42 -71 -37 -2 3 1 20 7 39 6
19 12 44 13 57 2 13 14 34 27 48 l24 26 3 -27 c3 -19 -3 -32 -17 -42z m275 13
c-9 -19 -16 -38 -16 -44 0 -5 -17 -36 -39 -68 -21 -33 -45 -79 -54 -104 -18
-54 -21 -27 -6 55 11 58 51 131 87 157 10 7 22 22 25 32 4 10 10 16 14 13 3
-4 -2 -22 -11 -41z m737 -25 c47 -52 57 -70 77 -143 18 -62 24 -110 24 -193
l1 -110 -38 -62 c-21 -35 -40 -63 -42 -63 -2 0 8 28 22 63 21 49 27 79 27 147
1 107 -10 144 -81 261 -59 98 -81 159 -58 159 7 0 37 -27 68 -59z m-403 21 c0
-5 -24 -14 -52 -21 -173 -38 -292 -203 -274 -380 4 -36 8 -77 9 -90 2 -29 -17
-39 -28 -14 -14 30 -16 302 -3 327 12 22 68 75 81 76 4 0 -5 -19 -21 -42 -37
-54 -62 -103 -62 -120 0 -7 16 15 34 50 69 127 154 198 256 213 25 3 48 7 53
8 4 0 7 -3 7 -7z m0 -37 c0 -10 -10 -15 -28 -15 -42 0 -146 -55 -183 -98 -56
-63 -83 -136 -83 -224 0 -68 4 -85 38 -152 25 -51 51 -88 82 -113 47 -40 114
-72 152 -72 32 -1 27 -21 -6 -21 -36 0 -117 41 -168 84 -52 45 -99 134 -115
218 -31 167 69 334 232 392 56 19 79 20 79 1z m101 -1 c136 -40 222 -137 248
-280 28 -154 -74 -341 -215 -393 -60 -23 -94 -27 -94 -11 0 6 10 10 23 10 36
0 121 45 162 85 74 74 125 233 104 325 -14 61 -44 115 -90 161 -45 45 -129 89
-171 89 -18 0 -28 5 -28 15 0 18 -5 18 61 -1z m792 -1 c-24 -2 -43 -9 -44 -16
-2 -39 -7 -79 -11 -83 -12 -12 -36 11 -47 44 -7 20 -15 43 -17 50 -4 9 14 12
78 10 46 -1 64 -3 41 -5z m-189 -29 c4 -9 5 -19 3 -21 -8 -7 -56 20 -51 28 9
15 42 10 48 -7z m255 -77 c12 -45 21 -86 21 -90 0 -14 -82 51 -102 80 -20 31
-24 73 -8 89 6 6 23 9 39 6 26 -4 30 -10 50 -85z m-1854 8 c-8 -33 -15 -72
-15 -87 0 -16 -4 -28 -10 -28 -5 0 -7 -6 -4 -14 3 -8 0 -17 -7 -21 -9 -6 -10
5 -5 46 11 82 38 181 47 172 4 -4 1 -35 -6 -68z m895 66 c0 -5 -25 -17 -56
-26 -36 -10 -71 -30 -99 -56 -43 -40 -96 -128 -94 -158 0 -9 7 1 14 22 34 91
120 170 208 191 l28 7 -3 -96 c-2 -77 0 -94 11 -90 10 4 12 -2 8 -27 -3 -18
-9 -115 -13 -214 l-6 -181 -32 7 c-50 12 -68 21 -118 57 -58 42 -114 148 -124
234 -16 140 76 283 208 324 52 17 68 18 68 6z m151 -26 c81 -42 153 -141 165
-228 12 -88 -44 -236 -114 -299 -33 -30 -148 -85 -158 -76 -5 6 -9 435 -5 541
l3 98 32 -7 c17 -3 52 -17 77 -29z m594 -49 c25 -20 28 -27 17 -38 -11 -11
-15 -10 -22 3 -5 9 -32 34 -60 55 -62 47 -69 79 -7 35 23 -17 56 -42 72 -55z
m455 -144 c-8 -3 -16 0 -18 6 -2 6 -19 9 -40 6 -30 -3 -33 -2 -17 6 15 8 10 9
-25 5 -32 -4 -39 -2 -25 4 17 8 16 10 -11 10 -30 1 -32 3 -39 54 -4 28 -8 62
-9 75 -2 12 -8 28 -14 34 -7 7 -12 17 -12 23 0 5 51 -41 112 -104 72 -74 107
-116 98 -119z m-611 -68 c1 -139 -1 -163 -16 -175 -9 -8 -29 -41 -45 -74 l-29
-60 6 45 c3 34 1 30 -10 -19 -8 -36 -23 -76 -32 -90 -10 -14 -17 -31 -18 -38
0 -6 -14 -32 -32 -57 -26 -36 -39 -46 -70 -51 -21 -3 -51 -10 -68 -15 -27 -8
-26 -8 10 -4 22 3 51 8 65 10 l25 6 -23 -25 c-29 -31 -100 -42 -119 -18 -11
14 -12 13 -13 -7 0 -13 -4 -20 -10 -17 -6 4 -7 12 -4 18 4 7 -4 2 -17 -10 -53
-48 -205 -78 -264 -53 -24 10 -29 9 95 14 62 2 83 7 120 31 78 49 112 78 100
85 -6 4 9 7 34 6 32 0 57 8 93 30 55 34 81 80 108 187 10 37 21 67 26 67 5 0
23 28 41 63 29 56 32 70 31 147 -1 58 -7 103 -21 141 l-20 57 21 33 21 34 7
-50 c4 -27 8 -123 8 -211z m-988 160 c-46 -76 -55 -71 -15 9 32 63 47 83 52
69 2 -6 -15 -41 -37 -78z m1110 19 c14 -15 34 -39 44 -53 l17 -25 -6 28 c-4
16 -3 26 2 23 5 -3 7 -38 6 -78 -1 -40 -3 -98 -3 -128 -1 -53 -2 -56 -43 -82
-23 -15 -43 -26 -45 -25 -6 7 61 176 68 171 9 -5 -28 86 -50 123 -17 29 -12 8
9 -42 23 -53 27 -97 4 -50 -7 17 -23 56 -35 88 -11 32 -23 57 -25 54 -2 -2 8
-37 22 -78 39 -112 41 -147 4 -70 -16 35 -32 62 -35 60 -2 -3 7 -27 20 -54 28
-58 30 -76 11 -113 -7 -15 -16 -38 -20 -52 -3 -14 5 -2 18 25 32 66 33 41 1
-37 -14 -34 -25 -63 -25 -65 0 -2 32 18 70 43 l70 47 0 87 c0 73 11 141 27
159 2 3 16 -7 31 -21 15 -15 54 -39 87 -55 41 -20 60 -35 59 -46 -1 -9 3 -17
8 -17 6 0 7 11 4 25 -6 25 -6 25 51 20 32 -4 86 -11 121 -17 43 -7 67 -7 74 0
15 15 50 2 46 -17 -3 -13 -20 -16 -103 -18 -199 -5 -244 -12 -357 -58 -16 -6
-18 2 -20 86 l-2 94 -5 -105 c-4 -58 -6 -106 -5 -108 0 -1 25 8 55 21 78 35
129 45 262 53 85 5 117 4 117 -5 0 -7 -19 -11 -48 -11 -157 0 -314 -41 -433
-114 -106 -64 -127 -89 -135 -161 -4 -34 -18 -81 -32 -108 -25 -46 -99 -124
-109 -114 -2 3 16 34 40 70 24 35 52 86 62 113 10 27 23 55 28 62 6 7 6 12 0
12 -17 0 -50 -44 -51 -68 -3 -58 -122 -207 -172 -214 -16 -3 -30 -1 -30 2 0 4
30 34 68 67 37 33 82 82 101 109 l33 49 -52 -55 c-28 -30 -49 -47 -46 -37 3
10 6 24 6 30 0 6 40 50 88 97 l88 85 -2 80 c-4 98 -5 305 -3 325 1 8 -1 26 -6
39 l-7 24 28 -21 c16 -11 41 -33 55 -49z m-1453 6 c0 -33 -4 -49 -11 -46 -7 2
-11 15 -10 28 3 23 2 23 -12 5 -8 -10 -12 -23 -9 -28 13 -20 -10 -47 -56 -67
-60 -26 -60 -26 -60 -1 0 13 12 27 32 38 45 24 108 86 108 105 0 10 4 17 9 17
6 0 10 -23 9 -51z m252 42 c0 -5 -10 -30 -22 -57 -17 -39 -22 -69 -22 -144 -1
-90 1 -98 32 -151 37 -65 39 -74 15 -65 -16 5 -16 5 -3 -6 9 -7 21 -35 27 -63
6 -27 15 -59 19 -70 15 -39 -26 6 -52 58 -14 27 -28 46 -31 43 -3 -3 2 -17 11
-32 26 -39 10 -42 -27 -5 -22 23 -28 35 -19 38 7 3 22 15 33 27 l20 21 -20 14
c-20 13 -21 23 -21 185 0 139 3 176 16 194 15 22 44 30 44 13z m20 -82 c-5
-46 -10 -127 -10 -179 -1 -95 -1 -95 -18 -65 -27 48 -24 193 7 273 13 34 25
61 27 59 2 -2 -1 -41 -6 -88z m1002 2 c25 -65 32 -221 11 -262 -7 -13 -18 -37
-24 -54 -17 -45 -23 -11 -8 43 20 67 15 212 -9 297 -24 81 -6 67 30 -24z m411
-23 c60 -38 45 -49 -32 -23 -55 18 -84 44 -76 69 3 9 7 24 11 33 4 14 9 12 25
-14 11 -17 43 -47 72 -65z m-2100 10 c-6 -68 -16 -98 -29 -85 -7 7 13 131 23
150 10 18 12 -2 6 -65z m1985 55 c-4 -20 -48 -31 -48 -13 0 6 5 8 10 5 6 -3
10 1 10 9 0 9 7 16 16 16 9 0 14 -7 12 -17z m-412 -24 c28 -56 44 -123 43
-189 -2 -110 -17 -127 -18 -20 -1 73 -7 111 -26 165 -28 77 -27 75 -20 75 2 0
12 -14 21 -31z m-788 -16 c-6 -21 -23 -77 -39 -124 -16 -48 -29 -93 -28 -100
1 -8 14 24 30 71 l28 85 -1 -55 c0 -30 5 -84 12 -120 6 -36 13 -88 15 -116 1
-28 8 -59 14 -70 9 -14 11 -15 7 -2 -3 9 -8 34 -11 55 -6 34 -3 32 26 -27 18
-36 43 -79 56 -96 26 -35 29 -54 10 -54 -8 0 -22 17 -33 37 -22 43 -38 63 -52
63 -5 0 -22 16 -37 36 -27 35 -28 39 -23 138 5 97 2 97 -18 -1 -7 -35 -21 -27
-28 15 -14 85 -7 145 25 212 28 59 47 90 54 90 2 0 -1 -17 -7 -37z m-324 -36
c-15 -45 -15 -48 16 -141 18 -52 38 -97 47 -100 8 -4 13 -16 11 -30 -1 -13 6
-33 16 -45 32 -36 4 -23 -64 29 -36 28 -83 59 -105 70 -58 28 -174 49 -294 52
l-104 3 7 -85 c22 -280 127 -523 333 -766 28 -34 49 -64 46 -67 -8 -9 -98 89
-154 168 -61 85 -131 211 -158 285 -49 135 -64 207 -97 448 l-5 42 114 0 c171
0 280 -32 398 -117 28 -19 52 -33 55 -30 3 3 -14 19 -39 35 -43 30 -44 32 -50
99 -11 115 -9 143 16 173 12 15 23 26 24 25 2 -1 -4 -22 -13 -48z m-48 -194
c-2 -3 -15 1 -28 8 -12 7 -54 24 -92 38 -38 15 -71 31 -73 38 -3 7 32 29 80
52 46 22 90 48 98 57 12 15 14 5 17 -86 1 -56 1 -105 -2 -107z m129 140 c-2
-32 -4 -77 -4 -100 -1 -25 -6 -43 -12 -43 -12 0 -8 95 7 168 10 47 12 39 9
-25z m-345 12 c0 -11 -11 -15 -42 -15 -47 0 -45 9 4 20 18 4 34 8 36 9 1 1 2
-6 2 -14z m2133 -12 c32 -3 60 -10 63 -14 7 -12 -2 -11 -107 3 -49 6 -89 16
-89 21 0 6 16 7 38 3 20 -3 63 -9 95 -13z m-2115 -43 l-22 -30 -110 0 c-81 0
-107 3 -99 11 6 6 9 17 6 25 -5 14 32 19 170 22 l78 2 -23 -30z m-238 6 c0
-19 -29 -48 -41 -41 -13 8 -11 29 3 43 16 16 38 15 38 -2z m717 -128 c-2 -18
-4 -4 -4 32 0 36 2 50 4 33 2 -18 2 -48 0 -65z m1718 -101 c-38 -265 -108
-438 -249 -613 -129 -160 -269 -273 -437 -354 -136 -64 -272 -99 -408 -105
-102 -4 -103 -4 -36 6 239 33 378 72 493 136 126 71 299 231 418 388 109 145
183 366 209 630 4 39 10 75 14 80 13 22 12 -62 -4 -168z m-2240 133 c15 0 25
-8 28 -22 8 -29 4 -32 -25 -18 -18 9 -16 6 7 -14 36 -31 15 -35 -26 -5 -17 12
-49 23 -72 27 -40 5 -56 15 -57 36 0 5 27 6 61 2 34 -3 72 -6 84 -6z m2178
-32 c-4 -36 -48 -117 -63 -118 -3 0 -11 10 -18 21 -13 20 -10 25 29 65 24 24
40 46 37 49 -3 3 -11 -1 -18 -10 -7 -8 -20 -15 -30 -15 -9 0 -25 -9 -35 -20
-10 -11 -29 -20 -42 -20 -22 0 -23 3 -17 38 4 20 12 40 18 44 6 4 41 8 78 8
l66 0 -5 -42z m-2329 16 c3 -9 6 -27 6 -40 0 -13 11 -41 24 -62 25 -40 144
-158 187 -186 17 -10 31 -32 37 -56 5 -22 6 -38 2 -35 -5 3 -11 1 -14 -3 -7
-11 226 -24 277 -15 24 3 37 2 37 -5 0 -6 6 -9 14 -6 11 4 13 12 5 31 -13 34
-11 43 5 37 26 -10 30 -61 7 -86 -15 -16 -21 -35 -21 -70 l0 -49 -30 16 c-16
8 -40 15 -55 15 -23 0 -25 4 -25 40 l0 40 53 2 c38 1 27 3 -43 9 -131 12 -219
11 -260 -1 -19 -5 -56 -10 -81 -10 l-47 0 -31 98 c-36 113 -47 163 -56 252 -3
36 -9 73 -11 83 -7 21 12 23 20 1z m276 -3 c39 -11 88 -30 110 -42 37 -21 40
-26 40 -66 0 -24 -4 -43 -8 -43 -5 0 -25 15 -44 34 -19 18 -53 45 -75 59 -22
14 -47 32 -56 41 -23 24 -28 6 -16 -60 6 -32 12 -79 15 -104 l4 -45 -21 60
c-20 61 -37 185 -25 185 3 0 38 -9 76 -19z m1839 -8 c-15 -18 -169 -133 -178
-133 -4 0 -5 20 -3 44 3 39 7 45 40 60 42 18 120 44 141 45 11 1 11 -2 0 -16z
m22 -136 c-22 -86 -67 -186 -88 -194 -6 -3 -9 -11 -7 -18 4 -8 21 3 53 34 26
25 71 66 100 89 28 24 77 79 107 123 31 43 57 79 60 79 2 0 -1 -11 -6 -24 -5
-13 -6 -26 -4 -29 9 -9 -35 -234 -57 -292 l-20 -55 -62 -2 c-34 0 -70 -1 -79
0 -10 1 -18 -3 -18 -8 0 -6 7 -10 15 -10 8 0 15 -1 15 -2 0 -2 -7 -28 -15 -58
-20 -76 -11 -74 15 4 l22 66 49 0 c27 0 49 -2 49 -5 0 -15 -73 -156 -99 -192
-27 -38 -33 -41 -54 -32 -22 10 -22 11 -13 121 8 110 8 112 -15 131 -13 10
-19 21 -13 25 5 4 11 16 13 27 3 19 2 19 -17 2 -17 -15 -21 -16 -31 -3 -10 12
-3 33 33 108 25 51 50 122 56 158 20 111 24 121 28 77 2 -21 -6 -75 -17 -120z
m-635 17 c-3 -8 -12 -14 -20 -14 -13 0 -13 5 -1 41 8 23 16 56 17 73 1 17 3 5
5 -28 2 -32 2 -65 -1 -72z m-1421 81 c18 -13 44 -26 59 -29 38 -7 44 -13 56
-57 16 -58 4 -61 -21 -5 -11 26 -23 45 -26 43 -7 -8 32 -92 61 -130 31 -40 32
-46 9 -43 -10 2 -18 9 -18 17 0 7 -19 26 -42 41 -84 57 -153 155 -126 181 10
10 13 9 48 -18z m220 -32 c17 -13 36 -29 44 -36 8 -6 32 -24 53 -38 l38 -25
-26 -35 c-14 -19 -41 -64 -60 -101 -19 -38 -41 -68 -49 -68 -14 0 33 93 79
155 42 56 38 60 -9 8 -26 -29 -53 -53 -60 -53 -15 0 -23 23 -56 150 -23 92
-23 96 -1 79 9 -7 31 -24 47 -36z m1790 -87 c-14 -45 -29 -87 -34 -94 -12 -20
-96 31 -111 69 -7 16 -11 31 -9 32 46 33 60 37 65 22 3 -8 11 -15 16 -15 6 0
5 7 -2 15 -15 18 -14 19 50 68 l45 35 3 -26 c2 -14 -8 -62 -23 -106z m-1247
72 c2 -9 -5 -18 -14 -20 -15 -3 -14 -8 12 -38 47 -55 63 -85 54 -100 -7 -11
-12 -7 -21 16 -7 16 -21 38 -30 49 -29 34 -49 91 -36 104 14 14 31 9 35 -11z
m1045 -47 c-4 -4 -23 -5 -42 -2 l-34 6 39 28 39 27 3 -26 c2 -15 0 -30 -5 -33z
m-1405 24 c17 -14 33 -25 37 -25 5 0 50 -34 101 -76 78 -63 96 -83 106 -117
13 -46 70 -120 119 -156 18 -13 28 -18 24 -12 -5 9 2 12 26 9 31 -3 34 -7 51
-63 9 -32 15 -61 13 -63 -5 -5 -115 89 -115 99 0 4 -22 21 -49 39 -28 17 -66
49 -86 71 -41 45 -119 164 -129 197 -4 12 -16 27 -27 32 -18 10 -19 7 -18 -37
l2 -48 6 40 6 40 26 -56 c15 -30 47 -87 73 -126 25 -39 46 -74 46 -80 0 -5 25
-17 55 -28 30 -10 62 -27 72 -37 16 -18 16 -18 -3 -12 -20 8 82 -76 128 -104
16 -9 28 -23 28 -29 0 -7 5 -13 10 -13 6 0 10 10 10 21 0 18 3 19 15 9 8 -7
21 -10 30 -7 8 4 19 -2 25 -11 9 -14 10 -14 5 5 -5 17 1 29 22 48 33 28 20 33
-16 6 -23 -17 -27 -18 -49 -3 -19 12 -25 13 -31 3 -10 -15 -11 -13 -52 108
-33 98 -33 94 -16 85 6 -4 3 3 -8 17 -11 13 -20 25 -21 26 0 2 -9 -3 -19 -11
-18 -13 -17 -15 11 -41 21 -21 24 -26 9 -21 -10 4 -38 10 -61 13 -35 5 -45 11
-63 44 -12 21 -22 42 -23 46 -1 5 -11 24 -24 43 -23 35 -54 139 -54 181 0 37
13 13 37 -73 13 -44 33 -95 45 -112 29 -42 80 -96 91 -96 5 0 -9 20 -31 44
-42 46 -77 104 -68 113 3 3 -1 18 -9 34 -8 15 -15 30 -15 33 0 9 96 -99 120
-136 25 -38 54 -60 43 -32 -6 17 11 19 24 2 5 -7 15 -29 23 -48 7 -19 21 -53
31 -76 11 -22 19 -48 19 -57 0 -9 5 -19 11 -23 8 -4 9 1 5 17 -7 23 -7 23 9 5
12 -16 18 -17 27 -8 9 9 8 12 -4 12 -9 0 -26 14 -38 30 -12 17 -19 30 -17 30
3 0 28 -16 57 -35 37 -25 46 -35 32 -35 -24 0 -37 -16 -22 -25 5 -3 10 -16 10
-28 1 -20 2 -21 14 -4 12 15 17 16 45 4 17 -7 28 -16 24 -20 -3 -4 3 -7 13 -7
11 0 29 -6 39 -14 18 -13 17 -15 -20 -25 -30 -8 -41 -8 -47 2 -7 11 -12 3 -9
-15 0 -4 -13 -15 -30 -23 -24 -13 -33 -14 -45 -4 -13 10 -13 8 -5 -14 5 -14
24 -53 41 -86 16 -34 30 -63 31 -66 0 -2 6 -20 14 -39 8 -20 15 -43 15 -53 1
-17 2 -16 15 1 8 11 15 16 15 10 2 -34 122 294 135 369 6 29 12 37 29 37 12 0
26 4 31 9 6 5 28 12 50 16 l40 6 -33 -31 c-18 -17 -37 -28 -41 -26 -14 9 -36
-26 -71 -111 -19 -46 -38 -83 -42 -83 -5 0 -7 -4 -4 -8 2 -4 -9 -39 -25 -77
-17 -39 -31 -81 -33 -95 -2 -14 -4 -28 -5 -32 0 -5 -7 -8 -15 -8 -14 0 -33
-56 -23 -66 2 -3 7 9 10 26 4 16 12 30 18 30 7 0 9 -9 5 -23 -3 -12 -11 -48
-18 -79 -19 -92 -38 -84 -38 17 0 61 4 85 13 86 6 0 2 5 -10 11 -18 9 -56 80
-59 113 -1 6 -15 40 -33 77 -17 37 -31 74 -31 83 0 8 -4 15 -10 15 -5 0 -10
-5 -10 -10 0 -7 -6 -7 -18 -1 -10 5 -33 6 -52 2 -32 -7 -33 -8 -13 -15 13 -4
27 -5 32 -1 25 15 57 -7 75 -52 11 -26 20 -54 21 -63 1 -8 11 -31 23 -50 l22
-35 -31 -3 c-45 -5 -165 16 -207 36 -46 22 -47 48 -3 119 17 28 31 55 31 61 0
5 -15 19 -33 29 -44 27 -103 79 -129 116 l-22 30 29 -7 c16 -4 53 -33 84 -65
55 -57 112 -96 133 -89 5 2 -13 18 -41 36 -28 18 -67 53 -87 77 -30 37 -44 46
-92 57 -66 14 -125 59 -105 79 10 10 17 8 36 -9 39 -37 41 -25 3 20 -20 23
-36 46 -36 50 0 5 -13 21 -30 35 -16 13 -30 31 -30 39 0 8 -6 14 -14 14 -14 0
-66 54 -66 69 0 4 14 15 31 25 17 10 28 20 25 23 -3 3 -19 -5 -36 -17 -30 -22
-32 -22 -45 -4 -16 21 -20 84 -6 84 5 0 23 -11 39 -25z m1715 -8 c-16 -18 -37
-54 -47 -80 -23 -61 -30 -56 -11 9 8 27 17 61 20 77 4 22 11 27 36 27 l31 0
-29 -33z m-754 -49 c-17 -31 -23 -9 -8 28 9 22 13 25 16 12 2 -9 -1 -27 -8
-40z m272 24 c0 -12 3 -11 9 6 9 21 30 31 30 14 0 -9 -105 -112 -114 -112 -3
0 8 27 25 60 30 57 48 68 50 32z m497 -49 c-32 -31 -60 -55 -62 -52 -7 7 94
109 108 109 6 0 -15 -26 -46 -57z m-718 17 c0 -22 -12 -43 -41 -75 -40 -43
-59 -55 -59 -37 0 5 9 19 19 31 10 12 25 36 32 54 25 63 49 76 49 27z m380 20
c0 -5 -19 -11 -42 -11 -35 -1 -38 -2 -16 -8 l27 -6 -41 -44 -41 -43 7 37 c14
75 22 85 66 85 22 0 40 -4 40 -10z m30 -39 c8 -31 6 -35 -43 -82 -29 -27 -67
-60 -85 -72 -24 -16 -31 -27 -27 -43 6 -29 -60 -71 -145 -93 -50 -12 -77 -26
-109 -56 -23 -22 -63 -54 -88 -72 -58 -41 -63 -47 -35 -38 19 5 25 2 29 -14 6
-24 26 -22 79 10 41 25 64 24 64 -1 0 -18 -4 -20 -34 -15 -26 5 -35 3 -40 -10
-3 -9 -10 -13 -16 -10 -24 15 -7 -24 35 -80 25 -32 41 -62 37 -66 -14 -13
-178 -48 -243 -52 l-67 -4 48 101 c26 55 55 115 64 131 9 17 16 35 16 40 0 6
13 19 30 28 16 10 43 37 59 60 27 40 34 43 112 61 94 22 149 42 149 55 0 5 9
11 20 14 13 3 20 14 20 30 0 33 9 57 22 57 6 0 7 -7 4 -16 -4 -10 -1 -14 6
-11 7 2 12 17 11 32 -2 22 11 43 54 92 30 35 57 62 60 60 2 -2 8 -19 13 -36z
m-910 -55 c57 -33 43 -34 -26 -1 -37 18 -59 36 -70 58 l-16 32 33 -31 c19 -17
54 -43 79 -58z m973 -18 c28 -61 41 -98 33 -98 -17 0 -86 154 -86 193 0 16 4
9 53 -95z m-1464 9 c37 -42 51 -65 51 -87 l0 -31 -102 3 c-102 3 -103 3 -100
27 3 30 84 163 93 153 3 -4 29 -33 58 -65z m897 34 c-6 -22 -14 -42 -17 -46
-11 -11 -209 -83 -209 -76 0 16 58 60 110 85 30 14 69 37 85 50 41 34 45 32
31 -13z m-1111 -46 c23 -47 14 -66 -11 -24 -18 29 -22 59 -9 59 2 0 11 -16 20
-35z m671 -13 c-3 -3 -16 3 -28 14 -15 12 -13 7 5 -12 25 -28 26 -32 11 -38
-24 -9 -35 5 -39 48 l-4 36 30 -21 c17 -12 28 -24 25 -27z m1073 -14 c-14 -26
-23 -22 -42 17 -23 48 -22 49 17 23 28 -18 32 -26 25 -40z m-554 32 c-3 -11
-8 -39 -10 -62 -4 -38 -24 -68 -46 -68 -17 0 -18 35 -2 53 10 11 12 17 6 13
-8 -4 -13 -2 -13 6 -1 7 -7 -1 -14 -18 -8 -18 -20 -35 -27 -39 -13 -9 -11 -2
12 45 10 21 84 89 97 90 2 0 0 -9 -3 -20z m482 -95 c-1 -1 -43 -5 -93 -7 l-91
-5 71 62 71 62 22 -55 c13 -30 22 -56 20 -57z m-887 53 l30 -22 -27 -11 c-16
-7 -45 -15 -66 -19 -21 -4 -44 -9 -51 -12 -18 -7 -30 27 -14 38 7 4 40 5 73 2
44 -4 56 -3 45 5 -8 6 -26 11 -40 11 -24 1 -24 1 -6 15 25 19 21 19 56 -7z
m45 12 c11 0 14 -14 14 -54 -1 -65 8 -96 27 -96 10 0 14 12 14 38 l0 37 100
39 c55 22 103 36 106 33 4 -3 -8 -29 -26 -57 -24 -38 -52 -62 -113 -100 -116
-71 -143 -68 -274 41 -24 19 -13 25 72 44 47 10 85 21 85 24 0 3 -12 18 -27
34 -21 22 -23 28 -10 24 10 -4 25 -7 32 -7z m934 -96 c3 -3 1 -8 -5 -12 -6 -4
-19 -23 -29 -42 -45 -88 -166 -243 -180 -229 -2 3 14 27 37 55 39 46 148 208
148 219 0 8 -159 5 -212 -4 -35 -6 -48 -4 -52 5 -4 10 15 14 77 17 88 4 208
-1 216 -9z m-1755 -47 c8 -34 94 -163 149 -225 31 -35 47 -62 47 -79 0 -37
-55 -93 -92 -93 -29 0 -33 9 -19 43 6 17 8 16 19 -8 7 -15 15 -25 19 -22 3 3
-15 36 -41 72 -44 64 -46 68 -41 123 4 40 3 51 -4 37 -5 -11 -10 -35 -10 -53
l-1 -33 -25 18 c-23 17 -24 23 -25 131 0 105 10 143 24 89z m94 -85 c38 -54
88 -114 111 -135 42 -38 51 -57 27 -57 -8 0 -38 28 -67 63 -50 60 -159 218
-159 232 0 15 22 -11 88 -103z m1476 86 c-5 -13 -7 -35 -6 -50 1 -21 -3 -28
-17 -28 -10 0 -33 -3 -50 -6 l-31 -6 0 45 c0 44 2 47 33 56 17 5 42 10 55 10
20 1 22 -2 16 -21z m116 15 c0 -5 -9 -23 -20 -41 -16 -26 -26 -32 -50 -30 -35
3 -34 -1 -16 43 13 31 19 35 50 35 20 0 36 -3 36 -7z m100 -105 c0 -100 -7
-121 -50 -143 -36 -19 -36 -22 -16 116 16 111 30 146 52 128 10 -8 14 -36 14
-101z m-1871 55 l-1 -48 -11 32 c-7 17 -15 35 -20 39 -10 10 13 -58 24 -70 5
-6 9 -18 9 -28 0 -23 29 -93 35 -86 3 3 -2 21 -10 41 -20 50 -21 167 0 167 12
0 15 -15 16 -67 1 -38 3 -106 4 -153 3 -68 1 -81 -8 -66 -7 10 -32 45 -56 78
-24 32 -59 89 -77 126 l-34 67 52 6 c29 3 59 6 66 7 8 1 12 -13 11 -45z m215
27 c12 -12 -2 -30 -23 -30 -23 0 -45 25 -36 40 7 11 43 5 59 -10z m479 -2 c33
-17 19 -31 -25 -24 -43 7 -68 21 -68 38 0 10 65 1 93 -14z m-293 -42 c0 -17 2
-18 10 -6 18 28 36 -15 32 -74 -2 -16 -8 -13 -36 19 -34 38 -52 87 -39 108 8
14 33 -21 33 -47z m700 46 c0 -11 -81 -62 -99 -62 -18 0 -14 4 40 40 46 30 59
35 59 22z m439 -94 c0 -57 3 -123 6 -148 10 -58 -9 -43 -24 20 l-10 45 5 -57
5 -57 -92 -46 c-50 -26 -95 -43 -98 -38 -39 48 -81 102 -81 106 0 2 11 2 24 0
13 -3 34 0 46 7 20 10 22 18 17 55 l-6 43 66 7 c37 4 73 9 80 12 9 3 11 0 7
-10 -3 -9 -28 -19 -62 -25 l-57 -11 53 3 c40 2 52 0 48 -10 -3 -7 -8 -30 -11
-51 -5 -27 -4 -34 4 -23 5 8 13 32 16 52 4 21 10 38 14 38 11 0 31 94 31 146
0 24 5 44 10 44 6 0 10 -39 9 -102z m-39 23 l0 -58 -42 -7 c-24 -4 -59 -9 -78
-12 l-35 -6 35 24 c25 18 35 31 33 49 -1 20 7 29 40 46 23 11 43 21 45 21 1 1
2 -24 2 -57z m-1230 -6 l75 -21 3 -67 c4 -83 -8 -86 -68 -21 -32 34 -41 52
-37 70 3 17 1 22 -7 15 -8 -7 -21 1 -41 26 -16 20 -22 32 -15 28 8 -5 48 -18
90 -30z m1052 -52 c-27 -32 -59 -66 -70 -76 -22 -20 -57 -20 -57 0 0 12 167
144 174 138 2 -3 -19 -30 -47 -62z m398 57 c0 -11 -57 -28 -122 -37 -33 -4
-48 -2 -48 6 0 6 12 11 28 12 15 0 47 6 72 13 58 17 70 18 70 6z m-657 -65
c-13 -23 -114 -125 -124 -125 -22 0 -6 33 26 51 19 12 35 24 35 28 0 10 -31
37 -49 43 -8 2 6 11 32 20 50 16 56 13 32 -18 -17 -22 -20 -38 -5 -29 6 4 20
25 32 48 19 36 23 39 26 20 2 -12 -1 -29 -5 -38z m718 -20 c-6 -30 -8 -70 -4
-87 6 -28 4 -31 -15 -26 -18 5 -22 2 -22 -16 0 -20 -44 -96 -56 -96 -8 0 -44
90 -44 109 0 10 12 28 26 42 14 13 47 53 72 88 25 35 48 59 50 53 2 -6 -1 -36
-7 -67z m-1383 39 c12 -8 22 -25 22 -37 -1 -35 -36 -122 -48 -120 -6 2 -9 -3
-6 -10 6 -15 97 -69 207 -122 43 -20 77 -39 75 -40 -6 -6 -111 31 -159 55 -24
13 -63 36 -87 52 -24 17 -45 28 -48 26 -12 -12 33 -45 126 -92 l105 -53 12
-54 c12 -52 8 -119 -6 -119 -4 0 -17 20 -29 46 -12 25 -26 42 -31 39 -5 -3
-36 16 -68 43 -77 64 -112 86 -121 77 -4 -4 -1 -10 6 -12 16 -6 144 -107 190
-151 28 -26 31 -34 22 -51 -10 -20 -11 -20 -63 3 -110 49 -102 42 -101 94 1
47 1 47 -3 5 -2 -24 -8 -43 -14 -43 -5 0 -9 5 -9 10 0 6 -5 10 -11 10 -12 0
-105 70 -164 125 l-40 36 60 -5 c38 -3 54 -2 45 4 -12 7 -12 12 -2 22 10 10
15 10 22 -2 6 -8 8 -21 5 -28 -3 -7 2 -15 10 -18 8 -4 15 -10 15 -16 0 -14 42
-109 47 -105 2 3 -6 28 -17 57 l-21 52 21 35 c12 21 15 33 8 31 -7 -3 -18 -15
-25 -28 l-12 -24 -10 28 c-19 49 -13 73 29 115 l41 40 -6 70 c-2 39 -1 71 3
71 4 0 18 -7 30 -16z m1292 10 c0 -3 -18 -29 -41 -58 -63 -80 -97 -81 -93 -4
l2 43 53 8 c29 4 55 10 58 12 6 7 21 6 21 -1z m-1152 -53 c18 -11 -50 -25 -78
-16 -12 4 -20 2 -20 -4 0 -7 23 -11 55 -11 l55 0 -11 -27 c-13 -36 2 -50 36
-35 33 15 32 30 -2 24 -26 -4 -27 -3 -12 13 15 16 19 16 48 1 17 -9 31 -21 31
-26 0 -13 -68 -128 -80 -135 -6 -4 -22 2 -38 13 -15 11 -50 31 -79 45 l-51 26
19 51 c10 28 19 59 19 70 0 17 7 20 48 20 26 0 53 -4 60 -9z m508 -48 c-12
-36 -46 -59 -46 -32 0 11 48 69 56 69 2 0 -3 -17 -10 -37z m-925 -64 c34 -40
36 -48 30 -87 l-6 -43 -39 46 c-29 35 -40 59 -44 92 -6 57 7 55 59 -8z m797
26 c-3 -3 -23 -8 -44 -11 l-39 -5 35 20 c21 12 39 16 44 10 5 -5 7 -11 4 -14z
m982 15 c13 -8 13 -11 -2 -27 -10 -9 -18 -12 -18 -6 0 6 -3 18 -6 27 -7 18 4
20 26 6z m-280 -28 c0 -10 -10 -23 -21 -31 -18 -11 -23 -11 -30 1 -13 20 -11
25 13 42 24 17 38 13 38 -12z m240 -9 c0 -32 -9 -46 -82 -120 -46 -45 -87 -83
-91 -83 -5 0 -33 -20 -64 -45 -82 -67 -273 -156 -273 -127 0 14 30 36 177 132
67 44 127 80 134 80 10 0 10 3 2 11 -9 9 -38 -6 -117 -60 -132 -90 -143 -95
-117 -50 28 47 54 112 42 105 -5 -3 -11 -1 -13 6 -3 7 -14 -20 -27 -60 -13
-43 -34 -87 -53 -109 -18 -21 -34 -40 -35 -42 -2 -3 -8 0 -13 5 -7 7 1 36 25
87 19 41 35 83 35 91 0 19 38 45 76 52 35 6 44 12 44 28 0 11 86 66 103 66 2
0 12 -15 22 -32 9 -18 23 -44 30 -58 8 -14 12 -35 8 -47 -4 -19 -2 -22 11 -17
18 7 68 97 65 117 -4 25 15 49 60 78 25 16 47 29 49 29 1 0 2 -16 2 -37z
m-932 -18 c7 -14 12 -45 12 -69 0 -30 5 -46 15 -50 8 -3 12 -12 9 -20 -9 -25
-44 -5 -64 37 -20 41 -20 41 0 62 26 28 26 43 -1 19 -17 -16 -22 -16 -29 -4
-16 24 -11 38 13 43 12 2 25 5 28 6 3 0 11 -10 17 -24z m80 6 c16 -1 15 -16
-3 -35 -9 -8 -15 -18 -14 -21 1 -3 -1 -19 -5 -36 -10 -51 -28 -23 -21 32 5 33
3 49 -4 49 -6 0 -11 4 -11 8 0 5 10 8 23 6 12 -1 28 -3 35 -3z m552 -19 c0
-12 -161 -102 -182 -102 -34 0 -15 15 75 62 98 49 107 53 107 40z m164 -86
c-17 -34 -34 -48 -34 -26 0 13 42 71 47 66 2 -2 -4 -20 -13 -40z m-366 -25
c10 -6 -7 -30 -68 -94 -76 -80 -111 -105 -170 -122 -22 -6 -19 -1 20 40 25 26
39 45 33 41 -8 -4 -13 -2 -13 5 0 17 -11 5 -14 -15 -1 -9 -20 -34 -41 -56 -22
-22 -33 -40 -26 -40 7 0 9 -5 5 -11 -4 -8 -9 -7 -14 2 -6 9 -19 3 -50 -25 -23
-21 -44 -35 -46 -33 -7 7 23 118 34 129 5 5 16 -1 26 -16 9 -15 22 -26 28 -26
7 0 0 12 -14 28 -27 29 -48 64 -48 81 0 6 21 11 48 11 98 1 317 63 274 78 -8
2 -27 -5 -43 -17 -28 -21 -29 -21 -29 -3 0 13 13 25 38 35 45 18 53 19 70 8z
m-1036 -146 c61 -42 81 -72 26 -36 -86 53 -188 134 -188 147 0 9 19 -2 53 -29
28 -23 78 -60 109 -82z m903 105 c-15 -16 -30 -20 -79 -19 l-61 1 63 13 c34 7
66 15 69 19 16 16 24 4 8 -14z m118 -76 l-37 -79 -10 39 c-8 37 -7 41 26 71
19 18 38 41 43 51 4 11 9 14 12 7 2 -6 -13 -46 -34 -89z m-680 36 c11 -13 10
-13 -6 -1 -21 17 -35 7 -18 -13 7 -8 10 -25 6 -38 l-6 -23 13 23 c14 22 14 22
58 -24 25 -25 65 -60 90 -76 44 -30 70 -55 70 -69 0 -11 -171 21 -217 41 -42
18 -49 32 -37 64 8 21 21 20 27 -1 4 -14 5 -13 6 4 0 12 6 25 11 28 6 3 10 11
10 16 0 6 -6 7 -12 2 -26 -16 -37 -10 -43 20 -4 18 -9 41 -12 51 -4 15 -2 18
13 12 14 -4 12 0 -6 15 l-25 21 33 -19 c19 -10 39 -25 45 -33z m150 22 c39 -4
72 -12 74 -18 3 -8 -11 -10 -44 -7 -94 10 -176 28 -180 40 -3 8 7 9 38 2 23
-6 74 -13 112 -17z m-16 -39 c44 -10 52 -113 9 -113 -11 0 -85 72 -117 114
-13 18 -12 19 36 12 28 -4 60 -10 72 -13z m92 -26 c13 -34 18 -161 6 -167 -14
-7 -32 37 -38 90 -3 25 -10 57 -16 73 -10 25 -9 27 14 27 17 0 28 -7 34 -23z
m395 -74 c-4 -10 -8 -27 -8 -37 -1 -16 -15 -23 -71 -38 -84 -21 -92 -22 -92
-5 0 6 -4 19 -7 27 -5 12 4 19 40 28 26 7 65 28 88 48 39 33 41 34 50 15 5
-11 5 -28 0 -38z m-794 -38 c36 -15 70 -32 75 -37 16 -16 -31 1 -110 39 -80
38 -61 37 35 -2z m-35 -20 l50 -23 -63 1 c-57 1 -62 2 -56 20 4 12 2 17 -4 13
-6 -3 -13 -2 -17 4 -11 18 38 10 90 -15z m165 -11 c6 -14 14 -23 18 -20 5 3
32 -1 60 -8 28 -8 78 -17 111 -21 34 -4 61 -11 61 -16 0 -10 -42 -6 -165 17
-78 14 -124 42 -109 65 8 14 14 11 24 -17z m449 -16 c12 -16 10 -18 -25 -18
l-39 0 25 20 c14 10 25 18 25 17 0 -1 7 -10 14 -19z m-1309 -103 l0 -95 -100
0 -100 0 0 95 0 95 100 0 100 0 0 -95z m900 67 c41 -12 102 -25 135 -28 33 -4
68 -14 78 -22 15 -13 22 -14 38 -4 18 12 19 9 19 -48 l0 -60 -575 0 -575 0 0
95 0 96 403 -4 c377 -3 407 -5 477 -25z m1460 -67 l0 -95 -585 0 -585 0 0 46
c0 56 27 83 82 84 57 0 179 19 255 39 60 16 115 18 451 20 l382 1 0 -95z m240
16 c0 -44 3 -86 6 -95 5 -14 -8 -16 -110 -16 l-116 0 0 95 0 95 110 0 110 0 0
-79z m-1402 46 c17 -13 15 -37 -3 -37 -8 0 -15 7 -15 15 0 13 -3 13 -20 3 -15
-10 -22 -10 -32 0 -17 17 -1 27 18 11 15 -12 16 -11 10 9 -6 18 -4 21 11 15
10 -3 24 -10 31 -16z"/>
<path d="M932 2624 c-35 -20 -61 -38 -59 -40 2 -3 35 14 73 36 38 22 64 40 59
40 -6 0 -38 -16 -73 -36z"/>
<path d="M1103 2577 c-22 -28 -48 -68 -57 -87 -16 -34 -16 -34 1 -11 10 13 34
39 53 58 24 23 29 32 15 27 -19 -7 -19 -7 1 17 24 27 37 49 31 49 -3 0 -22
-24 -44 -53z"/>
<path d="M910 2540 c-23 -7 -22 -8 10 -9 43 -1 64 -29 55 -74 -4 -21 -3 -27 3
-17 5 8 12 32 15 53 5 34 3 39 -19 47 -28 11 -29 11 -64 0z"/>
<path d="M761 2393 c0 -10 4 -27 8 -38 8 -20 8 -20 15 1 7 23 -1 54 -15 54 -5
0 -9 -8 -8 -17z"/>
<path d="M793 2339 c-7 -9 -8 -20 -3 -29 7 -11 12 -11 34 4 30 19 35 32 7 16
-15 -8 -20 -6 -23 7 -3 14 -5 14 -15 2z"/>
<path d="M665 2310 c11 -5 32 -9 48 -9 23 -1 27 -5 27 -28 l1 -28 15 28 c9 16
14 30 12 32 -2 1 -30 5 -63 8 -36 3 -52 2 -40 -3z"/>
<path d="M635 2279 c10 -34 46 -91 53 -84 3 3 -5 25 -17 50 -25 50 -47 71 -36
34z"/>
<path d="M566 2194 c-10 -75 -5 -93 10 -39 16 58 18 85 5 85 -4 0 -11 -21 -15
-46z"/>
<path d="M375 1715 c-16 -14 -27 -25 -22 -25 4 0 1 -13 -8 -30 -22 -43 -18
-48 9 -11 13 18 32 38 42 45 17 13 29 46 16 46 -4 -1 -20 -12 -37 -25z"/>
<path d="M1587 2646 c-3 -8 3 -35 14 -58 l20 -43 -7 45 c-8 57 -19 79 -27 56z"/>
<path d="M1817 2606 c3 -12 10 -23 16 -23 7 0 21 -4 32 -9 20 -7 20 -7 0 15
-11 13 -27 27 -36 31 -13 7 -15 5 -12 -14z"/>
<path d="M284 640 c0 -74 1 -105 3 -67 2 37 2 97 0 135 -2 37 -3 6 -3 -68z"/>
<path d="M2641 2158 c-1 -39 3 -68 9 -68 12 0 12 74 0 110 -6 18 -8 7 -9 -42z"/>
<path d="M2276 2307 c12 -103 21 -117 20 -30 -1 58 -5 84 -14 88 -10 4 -11 -8
-6 -58z"/>
<path d="M1395 1764 c-91 -47 -151 -139 -162 -249 -11 -106 51 -213 148 -254
70 -31 73 -19 5 19 -69 39 -99 74 -121 141 -15 45 -16 62 -6 115 18 99 44 148
104 190 80 58 89 68 32 38z"/>
<path d="M1416 1588 c-20 -28 -21 -88 -1 -135 21 -49 25 -39 13 26 -9 40 -8
62 1 88 16 42 9 53 -13 21z"/>
<path d="M1545 1798 c107 -38 182 -135 209 -268 3 -14 3 -2 1 27 -7 96 -70
185 -165 233 -22 11 -47 20 -57 19 -11 0 -6 -5 12 -11z"/>
<path d="M1540 1766 c0 -3 13 -12 30 -21 66 -34 116 -110 129 -197 18 -109
-29 -208 -124 -268 -69 -43 -55 -53 18 -13 90 51 149 171 131 270 -10 60 -52
139 -90 172 -34 30 -94 66 -94 57z"/>
<path d="M1508 1590 c9 -44 8 -106 -1 -145 -6 -21 0 -15 17 19 23 45 23 51 11
87 -22 61 -36 81 -27 39z"/>
<path d="M2546 1715 c37 -41 69 -75 71 -75 5 0 -60 83 -96 123 -14 15 -29 27
-34 27 -4 0 22 -34 59 -75z"/>
<path d="M450 1194 c0 -17 3 -59 7 -94 5 -56 8 -61 20 -45 15 22 18 75 3 75
-5 0 -10 15 -10 33 0 17 -5 39 -10 47 -7 11 -10 8 -10 -16z"/>
<path d="M1080 1214 c0 -6 14 -23 30 -39 17 -16 30 -24 30 -19 0 6 -13 23 -30
39 -16 16 -30 24 -30 19z"/>
<path d="M956 1191 c20 -32 74 -92 74 -84 0 5 -19 29 -42 54 -24 25 -38 38
-32 30z"/>
<path d="M1311 730 c-1 -20 32 -100 42 -100 10 0 9 14 -3 26 -5 5 -16 27 -24
49 -8 22 -15 33 -15 25z"/>
<path d="M1650 1189 c-67 -37 -71 -41 -31 -29 29 8 91 46 91 56 0 5 3 7 -60
-27z"/>
<path d="M711 765 l1 -60 9 50 c5 30 4 54 -1 59 -7 7 -10 -12 -9 -49z"/>
<path d="M1051 548 c1 -16 17 -56 18 -44 1 4 10 -2 21 -15 l21 -24 -17 35
c-20 41 -44 68 -43 48z"/>
</g>
</svg>
