<?xml version="1.0" standalone="no"?>
<!DOCTYPE svg PUBLIC "-//W3C//DTD SVG 20010904//EN"
 "http://www.w3.org/TR/2001/REC-SVG-20010904/DTD/svg10.dtd">
<svg version="1.0" xmlns="http://www.w3.org/2000/svg"
 width="300.000000pt" height="299.000000pt" viewBox="0 0 300.000000 299.000000"
 preserveAspectRatio="xMidYMid meet">
<metadata>
Created by potrace 1.10, written by Peter Selinger 2001-2011
</metadata>
<g transform="translate(0.000000,299.000000) scale(0.100000,-0.100000)"
fill="#000000" stroke="none">
<path d="M173 2955 c-11 -33 -10 -35 12 -29 19 5 25 0 35 -28 11 -30 13 -31
20 -13 5 11 9 29 9 40 -1 11 -3 15 -5 9 -4 -9 -11 -9 -29 0 -30 14 -27 28 9
41 21 7 29 6 36 -5 6 -9 10 -10 10 -3 0 6 15 14 33 16 17 2 -2 5 -44 5 l-76 2
-10 -35z"/>
<path d="M640 2979 c0 -6 -7 -8 -16 -5 -9 3 -12 2 -9 -5 4 -6 13 -8 20 -5 21
8 37 -18 22 -35 -6 -7 0 -4 14 9 33 28 55 28 63 -1 15 -59 -27 -94 -67 -54
-10 10 -22 15 -28 11 -6 -3 -3 -11 8 -20 16 -12 12 -13 -34 -14 -57 0 -60 2
-38 40 16 28 20 70 7 70 -5 0 -14 -18 -21 -40 -6 -22 -16 -40 -21 -40 -13 0
-13 37 0 45 6 3 10 14 9 23 0 9 -9 -1 -19 -22 -16 -35 -17 -41 -3 -55 11 -10
12 -16 4 -19 -26 -9 -40 8 -44 55 l-3 48 -2 -53 c-2 -61 -22 -63 -22 -2 0 23
-5 40 -14 43 -15 6 -26 -20 -26 -65 0 -24 -4 -28 -31 -28 -16 0 -28 4 -25 8 3
5 1 22 -4 38 -8 29 -8 29 -9 -8 l-1 -38 -95 0 -95 0 -1 28 -1 27 -7 -30 c-5
-26 -11 -31 -46 -35 -30 -4 -14 -7 59 -13 102 -7 125 -18 126 -59 0 -10 4 -18
9 -18 4 0 6 11 3 25 -3 18 0 25 12 25 9 0 16 -6 16 -14 0 -8 4 -17 9 -20 5 -4
7 3 4 15 -3 11 -17 25 -30 30 -32 12 -19 31 21 29 17 -1 117 -2 223 -1 173 1
192 3 198 19 3 9 30 37 60 62 30 24 55 48 55 53 0 5 -7 1 -16 -7 -17 -18 -50
-21 -58 -7 -4 5 0 12 6 14 7 3 3 6 -9 6 -13 1 -23 -3 -23 -7 0 -13 -97 -14
-105 -2 -8 13 -25 13 -25 -1z"/>
<path d="M918 2979 c6 -7 12 -24 12 -38 0 -24 1 -24 17 -8 21 20 8 50 -23 55
-15 3 -17 1 -6 -9z"/>
<path d="M986 2975 c8 -19 23 -19 48 0 19 14 18 15 -17 15 -28 0 -35 -3 -31
-15z"/>
<path d="M1085 2948 c-24 -51 -75 -88 -121 -88 -30 0 -34 3 -35 28 l-1 27 -7
-30 c-6 -30 -6 -30 -84 -33 -42 -2 -77 -5 -77 -8 0 -16 43 -85 58 -92 27 -15
85 -9 89 8 3 9 1 11 -4 5 -12 -15 -43 -17 -43 -3 1 7 16 30 34 50 l33 38 79
-1 c43 0 87 2 96 6 15 6 16 -1 11 -68 -4 -46 -2 -81 5 -93 9 -15 11 0 12 68
l0 87 38 4 37 4 -43 1 -43 2 2 62 c2 34 -2 63 -7 65 -5 2 -18 -16 -29 -39z
m-217 -130 c-2 -16 -9 -22 -20 -20 -10 2 -18 -2 -18 -9 0 -8 -4 -8 -15 1 -8 7
-15 21 -15 31 0 15 7 19 36 19 31 0 35 -3 32 -22z"/>
<path d="M1503 2930 c0 -36 2 -50 4 -32 2 17 2 47 0 65 -2 17 -4 3 -4 -33z"/>
<path d="M2045 2941 c-4 -29 -12 -54 -19 -56 -34 -12 -336 -33 -330 -23 2 3 0
17 -6 30 -7 17 -8 1 -5 -57 2 -44 2 -70 -1 -57 -6 25 -19 26 -89 8 -28 -7 -43
-15 -35 -19 11 -4 11 -6 2 -6 -7 -1 -10 -5 -7 -11 3 -5 -3 -10 -14 -10 -14 0
-19 6 -18 20 1 11 5 20 10 20 5 0 2 7 -7 15 -8 8 -17 15 -20 15 -3 0 -6 -33
-6 -72 l0 -73 -95 3 -95 3 1 -68 c0 -71 17 -64 18 8 1 44 10 48 79 41 l52 -5
-75 -72 c-41 -40 -75 -81 -75 -90 0 -9 37 20 92 74 50 50 97 91 103 91 7 0 39
-17 72 -39 59 -38 103 -92 103 -126 0 -10 2 -16 5 -13 3 2 7 85 11 184 3 98 7
180 8 181 1 1 37 3 79 5 61 2 80 0 87 -12 5 -8 10 -50 10 -92 l0 -78 58 -1
c31 -1 69 -1 85 0 15 0 27 -2 27 -5 0 -19 -95 -145 -123 -163 l-32 -20 -6 37
-6 37 -2 -42 -1 -42 -177 -1 c-97 0 -179 -3 -181 -5 -3 -3 35 -5 83 -5 l89 0
-30 -31 c-29 -32 -29 -32 -2 -15 14 10 29 24 32 32 4 11 27 14 99 14 l94 0 18
-40 c15 -33 16 -45 7 -65 -11 -23 -10 -25 6 -16 9 5 26 18 36 30 17 19 17 21
2 27 -9 4 -23 22 -32 42 -14 35 -14 36 13 59 15 12 31 22 34 23 3 0 11 11 17
25 6 14 18 25 27 25 20 0 19 -34 -1 -55 -21 -21 -14 -27 11 -9 14 10 21 32 26
79 3 36 8 67 10 69 2 2 49 6 104 8 l100 3 3 -32 c2 -21 8 -30 16 -27 9 3 11
-4 8 -26 -3 -22 -11 -32 -28 -36 -13 -3 -24 -12 -24 -20 0 -7 -23 -27 -51 -43
-47 -27 -50 -30 -31 -40 19 -10 82 -102 82 -119 0 -8 -66 -1 -129 15 -30 7
-32 10 -17 22 42 35 -3 101 -68 101 -43 0 -100 -35 -73 -46 8 -3 34 4 57 16
40 21 42 21 56 3 17 -23 17 -41 -1 -77 -8 -15 -15 -36 -15 -45 0 -14 -11 -16
-80 -13 -66 3 -80 6 -81 20 0 14 -2 14 -6 2 -3 -8 -11 -19 -17 -23 -7 -6 -4
-7 7 -3 15 5 17 2 13 -14 -3 -11 -9 -29 -12 -40 -3 -12 -3 -39 1 -61 l7 -40
34 38 c18 21 33 41 34 44 0 4 -12 10 -26 13 -32 8 -29 11 19 20 35 7 38 6 32
-13 -4 -14 0 -21 15 -26 20 -6 60 -59 60 -79 0 -5 -24 -6 -54 -2 -64 7 -86 1
-86 -24 0 -26 18 -35 38 -17 21 18 97 33 87 17 -3 -5 -11 -8 -16 -5 -5 4 -9 2
-9 -3 0 -5 11 -14 25 -20 27 -12 38 -43 33 -88 -3 -27 -6 -29 -50 -29 -29 0
-50 -5 -53 -13 -3 -9 6 -11 38 -6 23 3 48 7 55 10 7 2 12 -5 12 -16 0 -16 -4
-18 -22 -11 -14 4 -32 3 -45 -4 -22 -11 -22 -12 -5 -45 9 -19 24 -36 32 -38 9
-3 6 5 -9 22 -27 29 -27 31 12 40 31 7 30 9 31 -138 1 -56 5 -80 14 -82 7 -1
8 0 2 3 -5 2 -10 25 -10 49 l0 44 83 0 82 0 -32 26 c-18 14 -33 32 -33 40 0
17 52 93 64 94 4 0 6 -29 4 -64 -2 -36 0 -62 4 -60 4 3 8 39 8 80 0 83 7 78
-97 74 -50 -2 -53 6 -27 85 9 28 18 56 20 63 2 6 18 13 36 13 25 1 28 3 9 6
-36 7 -71 -5 -65 -22 8 -19 0 -19 -35 0 -26 13 -29 21 -36 79 -6 64 -2 91 15
81 4 -3 23 1 41 9 19 8 53 17 77 21 41 7 42 6 42 -23 0 -16 -5 -44 -11 -61
-10 -28 -15 -32 -38 -27 l-26 6 30 -25 c17 -14 35 -25 40 -25 22 0 45 -58 45
-115 0 -50 2 -55 15 -42 18 19 51 11 70 -15 7 -11 19 -18 25 -16 6 2 -10 35
-40 78 l-50 75 36 3 c29 3 34 6 29 20 -4 9 -9 34 -12 55 -8 54 13 46 26 -10
l12 -48 189 3 c184 3 189 2 195 -18 10 -32 16 -18 9 19 -10 48 -38 58 -85 31
-38 -21 -39 -21 -39 -1 0 28 11 52 21 45 5 -3 9 6 9 20 0 17 -6 26 -15 26 -9
0 -20 10 -25 23 -7 18 -9 19 -9 3 -1 -12 -6 -16 -17 -12 -9 3 -18 6 -21 6 -4
0 2 9 12 20 16 18 31 20 122 20 87 0 103 -2 103 -16 0 -8 -4 -12 -10 -9 -5 3
-10 -1 -10 -9 0 -9 -12 -23 -27 -33 -16 -10 -32 -23 -36 -30 -5 -8 -18 -11
-33 -7 -14 4 -24 2 -24 -5 0 -18 56 -12 83 9 34 27 37 26 38 -17 1 -21 3 -30
6 -20 5 20 4 20 36 8 23 -9 25 -8 21 18 -4 24 1 32 32 50 20 12 34 25 30 28
-3 3 -25 -7 -48 -23 -24 -15 -45 -29 -47 -31 -2 -1 2 -9 9 -18 15 -18 -1 -20
-18 -3 -27 27 -3 94 38 111 8 3 0 6 -18 6 l-33 1 2 83 c1 45 -2 112 -6 148
-11 95 -1 109 77 109 68 0 70 17 3 22 -37 3 -40 6 -43 35 -4 38 26 63 76 63
37 0 72 15 72 31 0 5 -13 3 -30 -6 -16 -8 -44 -15 -62 -15 -70 0 -78 -7 -78
-66 0 -49 -3 -55 -25 -64 -36 -14 -51 -51 -35 -89 7 -17 16 -29 20 -26 8 5 20
-17 20 -36 0 -5 -10 -10 -22 -10 -17 -1 -18 -3 -6 -6 30 -8 37 -115 8 -120 -8
-2 -39 19 -69 47 -30 27 -58 50 -63 50 -17 0 -6 15 45 61 l52 47 -25 21 c-14
12 -37 28 -52 36 -15 8 -33 23 -40 33 -7 11 -29 27 -48 37 -43 22 -119 77
-120 87 0 9 70 -1 97 -14 17 -8 26 -8 40 3 15 12 16 12 9 -1 -4 -8 0 -6 8 4
23 28 20 37 -9 26 -22 -8 -94 3 -162 25 -9 3 -11 -7 -7 -40 4 -24 3 -64 0 -88
-7 -44 -7 -45 -46 -45 -43 -1 -60 -7 -60 -23 0 -6 9 -7 21 -4 33 11 67 15 172
22 l97 6 0 -90 0 -90 -192 -5 c-106 -3 -194 -4 -196 -3 -2 1 13 12 33 23 19
12 35 28 35 37 0 8 5 15 11 15 5 0 7 -5 3 -11 -4 -8 0 -8 15 0 24 13 26 28 6
54 -13 18 -14 17 -28 -8 l-14 -27 0 33 c0 19 6 41 14 50 12 14 11 17 -9 23
-13 3 -33 6 -45 6 -18 0 -23 6 -23 28 0 15 -4 23 -8 17 -9 -13 -32 -18 -32 -7
0 5 -7 17 -15 28 -14 18 -14 17 -15 -13 0 -25 5 -33 28 -41 20 -8 -4 -11 -105
-11 -109 -1 -133 2 -133 13 0 8 -3 23 -7 33 -7 17 -6 17 17 0 79 -56 100 -43
100 59 l0 74 61 0 60 0 -26 -34 c-28 -36 -51 -51 -75 -47 -8 2 -13 1 -10 -1 3
-1 18 -14 34 -28 27 -23 28 -24 17 -3 -16 31 -14 36 12 31 13 -3 24 0 24 7 0
18 35 65 44 59 5 -3 16 -20 23 -37 l14 -32 1 37 c1 27 -4 38 -16 41 -14 4 -12
5 5 6 21 1 22 5 22 71 l0 70 -84 0 c-78 0 -85 -2 -92 -22 l-6 -21 -13 23 c-12
22 -13 21 -20 -29z m179 14 c21 -32 32 -85 18 -85 -6 0 -12 6 -14 12 -4 10
-10 10 -31 1 -22 -10 -32 -9 -57 5 -28 16 -32 16 -59 0 l-29 -16 9 27 c17 49
51 76 101 79 39 2 48 -1 62 -23z m-164 -112 c0 -5 -7 -17 -16 -28 -10 -14 -13
-32 -8 -61 7 -50 -10 -68 -35 -37 -9 12 -27 24 -41 28 -29 9 -52 38 -61 77
l-6 28 83 0 c46 0 84 -3 84 -7z m-404 -70 c16 -6 16 -7 -2 -14 -16 -6 -15 -8
9 -8 21 -1 27 -6 27 -22 0 -21 -1 -21 -26 -4 -14 9 -28 14 -31 11 -3 -3 8 -13
24 -23 28 -17 28 -19 11 -35 -17 -17 -18 -17 -18 0 -1 16 -1 16 -11 0 -5 -10
-19 -18 -29 -18 -12 0 -20 7 -21 18 -1 16 -2 16 -6 -1 -3 -13 -10 -16 -26 -11
-30 9 -32 11 -17 29 10 12 10 15 -4 15 -9 0 -16 5 -16 11 0 8 12 10 35 6 36
-6 58 12 48 41 -5 13 24 16 53 5z m858 -42 l28 -30 -33 -4 c-33 -4 -33 -4 6
-6 69 -3 78 -21 10 -21 l-60 0 -3 36 c-4 62 10 69 52 25z m-581 -47 c-8 -20
-33 2 -33 29 0 19 1 19 19 3 11 -10 17 -24 14 -32z m-264 -98 c-8 -10 -79 33
-79 47 0 5 4 6 8 3 5 -3 22 -2 38 3 26 7 30 5 35 -18 3 -14 2 -30 -2 -35z
m1036 -15 c-16 -65 -55 -70 -55 -8 0 53 5 59 37 44 20 -9 23 -16 18 -36z
m-284 -122 c-18 -17 -20 -23 -9 -30 7 -5 14 -4 16 1 2 6 7 8 12 5 7 -4 2 -85
-6 -94 -2 -2 -42 -5 -89 -5 -95 -2 -91 -5 -98 79 -3 34 -5 36 -12 18 -4 -13
-10 -23 -14 -23 -15 0 -51 32 -46 41 7 10 180 7 191 -4 12 -12 24 -8 24 7 0
13 15 21 44 25 6 0 -1 -9 -13 -20z m256 -15 c53 -40 113 -95 113 -103 0 -4
-39 -6 -88 -6 -97 1 -141 17 -200 76 -66 65 -64 69 37 69 87 0 91 -1 138 -36z
m-167 -81 c0 -18 -37 -16 -44 3 -11 28 -6 34 19 22 14 -6 25 -17 25 -25z
m-140 -64 c6 -9 14 -7 31 5 15 10 44 16 77 16 47 0 53 -2 48 -17 -5 -16 -5
-16 8 0 10 13 24 17 48 15 l33 -3 -40 -21 c-22 -12 -45 -19 -51 -17 -11 4
-121 -19 -155 -32 -10 -4 -19 3 -27 20 -9 20 -19 25 -47 25 -43 0 -46 -15 -5
-23 33 -7 40 -23 13 -30 -14 -4 -12 -5 5 -6 19 -1 22 -7 22 -39 0 -32 -5 -41
-25 -50 -53 -24 -94 50 -45 80 23 15 27 33 6 25 -19 -8 -28 18 -16 48 9 23 13
24 61 20 29 -2 55 -9 59 -16z m260 -98 l0 -50 -62 31 c-63 31 -99 38 -129 24
-10 -4 -25 1 -40 14 -23 21 -18 22 26 4 10 -4 15 0 15 10 0 14 14 16 95 16
l95 0 0 -49z m-95 -32 c5 -5 -1 -9 -15 -9 -14 0 -35 -3 -47 -6 -18 -5 -23 -2
-23 14 0 18 4 20 38 15 20 -3 41 -10 47 -14z m-335 -228 c0 -5 -12 -19 -27
-30 l-26 -21 -22 20 c-12 11 -27 20 -33 20 -7 0 -12 5 -12 10 0 6 27 10 60 10
33 0 60 -4 60 -9z m-76 -76 c3 -8 11 -14 18 -13 7 2 14 -8 16 -23 3 -23 -1
-26 -27 -27 -33 -1 -44 16 -35 54 7 27 19 31 28 9z"/>
<path d="M2343 2391 l-23 -19 43 5 c42 6 77 23 45 23 -9 0 -22 2 -30 5 -7 2
-23 -4 -35 -14z"/>
<path d="M2293 2955 c3 -19 1 -37 -4 -40 -14 -10 -11 -25 7 -25 8 0 13 4 9 9
-3 5 -1 12 5 16 5 3 10 -2 11 -12 1 -27 17 25 18 61 l1 28 -19 -23 -20 -24 6
23 c3 14 1 22 -7 22 -9 0 -11 -11 -7 -35z"/>
<path d="M2390 2980 c0 -5 -6 -10 -14 -10 -9 0 -12 -7 -9 -20 3 -11 9 -20 14
-20 5 0 9 -7 9 -16 0 -8 5 -12 10 -9 6 3 10 1 10 -6 0 -7 3 -10 6 -7 3 4 -2
18 -12 33 -14 22 -15 31 -6 46 8 12 8 19 2 19 -5 0 -10 -4 -10 -10z"/>
<path d="M2678 2957 c10 -18 27 -38 38 -44 l22 -10 -22 41 c-12 22 -29 42 -38
44 -15 3 -15 1 0 -31z"/>
<path d="M2807 2944 c-8 -46 -11 -51 -30 -46 -27 6 -22 0 26 -32 33 -23 49
-26 117 -26 47 0 80 4 80 10 0 6 -33 10 -77 10 -43 0 -83 4 -90 8 -6 4 -13 34
-15 67 l-3 60 -8 -51z"/>
<path d="M1848 2945 c-3 -13 -1 -22 3 -19 5 3 9 -7 9 -22 0 -41 10 -23 14 24
4 47 -18 61 -26 17z"/>
<path d="M2510 2946 c0 -9 8 -16 19 -16 30 0 36 -20 14 -42 -19 -19 -20 -19
-33 24 -12 36 -15 39 -18 19 -3 -19 -6 -21 -13 -10 -8 12 -10 12 -19 -1 -6 -8
-9 -25 -7 -37 4 -22 2 -23 -74 -23 -92 0 -115 -6 -98 -26 12 -15 44 -20 35 -5
-3 5 1 11 9 15 8 3 17 0 21 -6 4 -7 9 -6 15 3 7 11 9 11 9 1 0 -7 -12 -24 -27
-37 -50 -42 -15 -38 39 5 l53 42 125 -4 c69 -3 152 -1 185 2 l60 7 -79 2 -78
1 23 21 24 21 -37 -21 c-21 -11 -38 -16 -38 -11 0 5 -17 10 -37 12 -36 4 -37
4 -14 14 20 9 22 12 8 17 -10 4 -17 13 -17 22 0 8 -4 15 -9 15 -5 0 -16 3 -25
6 -11 4 -16 1 -16 -10z"/>
<path d="M1311 2885 c-1 -18 -7 -20 -43 -18 l-43 3 40 -13 c27 -8 76 -10 155
-6 l115 5 -107 2 c-102 2 -107 3 -111 25 -4 19 -4 20 -6 2z"/>
<path d="M660 2760 c-41 -41 -61 -65 -44 -53 16 12 49 40 72 62 l42 41 0 -70
0 -70 -107 0 c-58 0 -103 -3 -99 -7 4 -5 53 -6 108 -5 l101 4 -8 -29 c-8 -30
-8 -117 1 -145 5 -15 -6 -18 -88 -21 l-93 -3 92 -2 c78 -2 92 -5 96 -19 4 -14
5 -14 6 3 1 14 7 21 17 20 22 -1 55 55 41 72 -7 8 -5 12 6 12 33 0 37 -62 5
-78 -23 -11 -23 -11 4 -11 14 -1 28 -7 31 -13 3 -10 7 -10 17 -1 8 8 10 21 5
40 -13 45 -11 65 8 77 14 8 20 8 28 -4 10 -13 10 -13 6 1 -3 9 -1 22 3 30 9
14 -14 49 -32 49 -5 0 -2 -7 6 -16 20 -20 20 -30 0 -38 -24 -9 -63 4 -69 23
-2 9 -20 25 -40 35 l-34 19 -3 86 -3 86 -75 -75z m113 -145 c9 -19 21 -35 27
-35 5 0 10 -4 10 -10 0 -5 -6 -9 -12 -7 -9 1 -14 -13 -16 -41 -3 -34 -7 -43
-20 -40 -14 3 -18 18 -20 86 -2 45 1 82 6 82 4 0 16 -16 25 -35z"/>
<path d="M1077 2811 c-7 -36 1 -109 13 -116 4 -3 6 26 3 63 -6 87 -8 94 -16
53z"/>
<path d="M1160 2819 c-14 -10 -20 -19 -14 -19 5 0 16 6 22 12 10 10 15 10 22
-2 6 -9 3 -18 -8 -27 -15 -11 -15 -12 6 -13 28 0 59 -15 89 -43 29 -26 35 -19
21 24 -18 57 -24 64 -59 70 -19 3 -39 8 -45 11 -5 4 -21 -2 -34 -13z m101 -29
c32 -17 21 -28 -16 -16 -36 11 -47 26 -19 26 8 0 24 -5 35 -10z"/>
<path d="M170 2818 c0 -18 59 -72 68 -63 3 3 -11 22 -31 43 -26 26 -37 32 -37
20z"/>
<path d="M1037 2823 c-8 -12 4 -103 14 -103 4 0 5 24 2 53 -6 56 -8 63 -16 50z"/>
<path d="M941 2734 c-5 -19 -7 -42 -5 -49 4 -10 -6 -15 -38 -17 -41 -3 -44 -1
-63 37 l-20 40 -3 -37 c-3 -30 -7 -38 -23 -38 -11 0 -17 -5 -14 -10 4 -6 12
-10 18 -9 7 1 40 1 75 0 l62 -1 0 -63 c0 -70 -6 -83 -28 -64 -13 10 -14 9 -5
-8 6 -11 15 -32 21 -46 11 -28 61 -46 112 -40 45 5 47 21 2 21 -23 0 -42 1
-42 3 0 1 4 17 9 35 6 20 6 30 0 27 -5 -4 -9 -15 -9 -25 0 -25 -38 -47 -46
-27 -2 7 -4 53 -2 102 l3 88 77 1 c105 3 112 16 8 16 l-83 0 6 50 c7 59 2 65
-12 14z"/>
<path d="M2283 2750 c-13 -5 -23 -16 -23 -25 0 -13 6 -11 30 7 41 30 39 36 -7
18z"/>
<path d="M220 2741 c-32 -5 -35 -9 -38 -43 l-3 -38 -91 0 c-106 0 -113 -7 -13
-14 l70 -4 3 -71 3 -71 -38 -1 c-21 0 -47 -4 -58 -9 -16 -7 -12 -9 20 -9 22 0
52 -3 68 -7 l27 -6 0 90 0 91 41 39 c31 31 46 39 70 36 16 -2 29 1 29 6 0 6
-6 10 -14 10 -8 0 -20 2 -28 4 -7 2 -29 1 -48 -3z"/>
<path d="M207 2662 c-3 -4 30 -5 74 -4 l79 4 1 -44 c0 -38 1 -40 10 -18 6 13
7 35 4 47 -5 22 -11 23 -85 23 -43 0 -81 -3 -83 -8z"/>
<path d="M1215 2665 c-5 -2 -27 -6 -47 -10 -24 -4 -38 -11 -38 -20 0 -8 -6
-15 -13 -15 -7 0 -31 -19 -52 -42 -22 -24 -28 -33 -14 -20 34 30 39 28 39 -14
0 -25 -3 -33 -12 -28 -7 4 -2 -5 12 -20 l25 -28 5 74 5 73 29 -3 c19 -2 35 4
48 18 11 12 23 19 26 15 4 -3 0 -10 -8 -15 -10 -7 -11 -10 -2 -10 7 0 12 -15
12 -39 0 -23 8 -48 19 -62 19 -23 19 -23 10 31 -4 30 -8 62 -7 70 3 46 -5 56
-37 45z"/>
<path d="M2936 2635 c-3 -9 -3 -21 0 -27 3 -5 -2 -19 -13 -31 -18 -21 -18 -21
1 -7 18 14 18 13 12 -20 l-6 -35 15 30 c16 34 19 74 6 93 -7 11 -10 10 -15 -3z"/>
<path d="M1500 2541 c0 -44 -3 -82 -7 -84 -5 -2 -50 -2 -100 1 -73 3 -93 8
-93 19 0 19 -24 11 -28 -9 -4 -20 23 -25 143 -27 l95 -2 0 90 c0 50 -2 91 -5
91 -3 0 -5 -36 -5 -79z"/>
<path d="M1200 2571 c-12 -39 -12 -44 8 -71 12 -16 22 -33 22 -38 0 -6 -26 -9
-58 -7 l-58 2 4 -66 c5 -72 -6 -75 -25 -8 -11 41 -11 40 -7 -25 l4 -68 -80 0
c-63 0 -80 3 -80 14 0 8 -5 18 -12 22 -8 5 -9 0 -6 -14 5 -18 2 -22 -20 -23
-15 0 -21 -3 -14 -6 16 -6 15 -20 -7 -89 -18 -55 -19 -58 -2 -37 10 12 22 19
26 15 4 -4 6 0 5 8 -5 36 1 100 9 100 6 0 12 -21 14 -47 l3 -48 2 48 c2 60 17
61 71 5 39 -39 60 -36 24 4 -15 17 -15 20 -3 28 8 6 32 10 53 10 34 0 37 -2
36 -27 -1 -51 -10 -58 -76 -61 -40 -2 -63 0 -63 7 0 19 -17 12 -23 -8 -3 -14
-1 -18 9 -14 10 4 14 -3 14 -21 0 -14 -4 -26 -10 -26 -5 0 -10 5 -10 12 0 21
-20 -6 -29 -39 -7 -24 -6 -33 5 -37 7 -3 36 -22 63 -42 51 -38 57 -59 15 -51
-13 2 -24 1 -24 -4 0 -4 -19 -10 -42 -12 -34 -3 -31 -4 19 -5 l62 -2 79 79
c86 86 85 84 35 144 -32 39 -21 50 39 42 48 -7 49 -6 37 13 -10 16 -17 18 -37
11 -19 -7 -27 -6 -37 8 -8 10 -13 19 -12 20 1 1 46 3 100 5 70 2 97 6 97 15 0
7 -6 13 -13 13 -9 0 -14 15 -15 45 -1 25 2 45 8 45 5 0 10 6 10 12 0 7 -12 0
-27 -14 -24 -24 -25 -30 -14 -54 10 -24 10 -26 -6 -20 -16 5 -15 4 1 -9 19
-14 19 -15 -8 -15 -26 0 -27 2 -20 38 4 20 15 49 26 65 23 32 13 35 -19 5
l-23 -21 0 23 c0 13 -3 20 -7 17 -3 -4 -7 -35 -7 -70 l-1 -62 -42 -3 c-54 -4
-56 12 -10 65 17 20 26 34 20 29 -10 -5 -13 3 -13 28 0 36 0 36 45 36 25 0 45
2 45 4 0 2 -11 28 -24 57 -19 40 -22 57 -15 71 6 11 9 24 7 30 -2 6 -10 -8
-18 -31z m-50 -163 c0 -18 -5 -40 -10 -48 -7 -11 -10 -2 -10 33 0 26 5 47 10
47 6 0 10 -15 10 -32z m-115 -248 c12 0 30 -7 41 -15 18 -13 17 -14 -18 -15
-21 0 -38 5 -38 10 0 6 -7 10 -15 10 -8 0 -15 8 -15 17 0 13 3 14 12 5 7 -7
21 -12 33 -12z m100 -10 c16 -30 9 -40 -13 -18 -12 12 -17 48 -7 48 2 0 11
-13 20 -30z m14 -57 c-7 -7 -18 -12 -26 -9 -8 4 -13 -3 -14 -17 -1 -17 -2 -18
-6 -4 -4 14 -17 17 -89 17 -67 0 -84 3 -84 15 0 11 19 15 88 17 118 4 146 0
131 -19z m-84 -43 c-7 -12 -62 -12 -90 0 -14 6 -4 9 38 9 36 1 56 -3 52 -9z"/>
<path d="M2443 2550 c0 -36 2 -50 4 -32 2 17 2 47 0 65 -2 17 -4 3 -4 -33z"/>
<path d="M475 2580 c-5 -8 10 -29 40 -59 36 -35 45 -41 40 -23 -10 35 -71 97
-80 82z"/>
<path d="M429 2544 c-8 -9 -23 -14 -39 -12 -30 5 -47 -9 -42 -34 3 -16 -5 -18
-60 -19 -75 -1 -129 -17 -60 -18 28 -1 41 -5 37 -12 -4 -6 -14 -8 -23 -4 -14
5 -14 3 1 -13 9 -10 17 -24 17 -30 0 -6 8 -15 17 -20 14 -8 12 -12 -13 -24
-16 -8 -48 -20 -71 -28 -38 -12 -45 -11 -78 9 -46 27 -60 27 -18 0 l32 -20
-22 -35 c-24 -36 -47 -43 -67 -19 -7 8 -17 15 -23 15 -6 0 2 -13 17 -29 20
-21 26 -35 21 -50 -6 -20 -5 -20 26 -7 17 7 36 22 42 32 9 15 6 14 -18 -4 -43
-34 -42 -18 0 30 45 50 63 61 44 27 -14 -24 -20 -68 -9 -67 18 2 29 -4 34 -18
7 -19 -10 -43 -39 -54 -24 -10 294 -18 327 -8 14 3 -2 6 -39 7 l-63 1 0 35 c0
38 2 40 31 24 15 -7 24 -7 35 2 12 9 14 6 15 -22 l1 -34 10 28 c5 15 16 27 23
27 8 0 17 5 20 10 4 7 -12 9 -46 6 -44 -3 -56 0 -71 18 -9 11 -17 33 -18 49
l0 27 95 0 c52 0 95 -2 95 -4 0 -3 -25 -16 -55 -30 -65 -30 -73 -49 -15 -40
41 7 82 -2 65 -14 -6 -4 -8 -22 -4 -42 l6 -35 3 40 c2 22 4 53 4 69 1 27 6 31
41 39 22 4 66 7 98 5 31 -2 57 0 57 3 0 11 -93 16 -134 7 -63 -14 -69 -8 -63
70 2 37 2 55 0 40 -4 -24 -10 -27 -71 -37 -37 -6 -80 -14 -95 -17 -25 -5 -28
-3 -23 13 11 34 14 103 5 97 -5 -3 -9 -3 -9 0 0 3 18 17 39 32 22 14 42 32 45
40 7 18 2 18 -15 -2z m-69 -119 c0 -41 -2 -45 -25 -45 -13 0 -35 11 -49 25
l-25 25 37 20 c55 29 62 26 62 -25z m-10 -87 c0 -4 -18 -8 -39 -8 -22 0 -48
-3 -58 -7 -15 -6 -16 -4 -6 8 12 15 103 21 103 7z m-4 -68 c1 -35 -1 -40 -21
-40 -13 0 -30 -3 -39 -6 -12 -4 -16 0 -16 15 0 12 -9 30 -19 40 -25 25 -18 31
43 31 l51 0 1 -40z m-130 9 c24 -14 34 -28 34 -45 0 -21 -4 -24 -40 -24 l-40
0 0 45 c0 25 3 45 6 45 4 0 22 -9 40 -21z m124 -84 c26 -31 5 -45 -71 -45
l-72 0 44 30 c49 33 80 38 99 15z"/>
<path d="M418 2473 c17 -2 47 -2 65 0 17 2 3 4 -33 4 -36 0 -50 -2 -32 -4z"/>
<path d="M2895 2467 c33 -5 62 -11 64 -13 3 -2 -9 -18 -25 -36 l-29 -31 33 22
c17 12 32 29 32 36 0 8 6 18 14 22 8 5 -21 8 -67 9 l-82 0 60 -9z"/>
<path d="M1742 2416 l28 -21 -19 -31 c-37 -61 -65 -74 -157 -74 -56 0 -84 -4
-84 -11 0 -8 25 -10 85 -7 47 3 88 2 90 -3 8 -12 36 0 67 29 20 18 25 29 17
38 -7 9 -4 16 11 27 15 11 18 16 8 20 -7 2 -10 7 -6 11 10 12 48 -17 48 -36 0
-10 7 -18 15 -18 46 0 -24 71 -85 87 l-45 11 27 -22z"/>
<path d="M1455 2400 l-50 -6 50 -5 c53 -6 59 -5 54 8 -2 4 -26 6 -54 3z"/>
<path d="M1391 2308 c-1 -21 -7 -28 -28 -31 -23 -3 -22 -4 7 -5 19 0 46 4 60
8 l25 8 -27 1 c-19 1 -28 7 -31 24 -4 19 -4 19 -6 -5z"/>
<path d="M2874 2285 c-21 -19 -33 -34 -26 -35 7 0 29 16 50 35 48 45 27 46
-24 0z"/>
<path d="M2685 2285 c-25 -11 -27 -14 -12 -20 10 -4 28 0 42 9 31 20 32 20 38
-4 3 -11 12 -20 21 -20 22 0 20 8 -6 31 -27 21 -42 22 -83 4z"/>
<path d="M645 2243 c-6 -36 -75 -119 -88 -107 -3 3 -12 1 -19 -5 -7 -6 -29
-24 -49 -41 -30 -24 -39 -27 -48 -17 -6 8 -8 17 -4 20 3 4 -1 7 -10 7 -23 0
-21 -13 3 -35 29 -27 25 -49 -17 -81 -41 -31 -20 -29 -335 -33 -71 -1 -78 -3
-78 -21 0 -21 45 -50 77 -50 10 0 36 11 57 24 l39 24 47 -34 c25 -18 67 -42
93 -53 53 -23 50 -26 47 57 l-2 42 45 0 c24 0 47 3 51 7 4 4 27 6 51 4 l45 -3
0 81 c0 58 4 81 13 82 59 4 147 3 147 -2 0 -3 -16 -20 -37 -38 l-36 -32 -34
32 c-22 22 -33 28 -33 18 0 -20 42 -59 63 -59 9 0 32 -13 50 -30 l34 -30 -11
41 c-7 28 -7 45 0 57 20 31 29 18 35 -53 l6 -70 -1 88 -1 87 53 0 c53 0 62 -6
40 -28 -8 -8 -9 -15 -2 -22 7 -7 14 1 21 25 11 35 11 35 -20 36 -18 1 -39 1
-47 0 -9 -2 -7 4 7 14 13 9 20 22 16 31 -5 12 -11 10 -34 -12 l-29 -28 0 27
c0 14 -5 29 -10 32 -7 4 -10 -6 -8 -29 1 -19 0 -37 -2 -39 -3 -2 -30 -1 -60 3
-30 4 -50 8 -44 9 16 2 34 49 39 99 5 52 -10 56 -20 5z m-114 -163 c0 -5 1
-23 1 -40 0 -75 1 -73 -37 -67 -19 3 -35 2 -35 -4 0 -5 -11 -9 -25 -9 l-25 0
22 25 c16 19 24 22 30 13 5 -8 8 -1 8 19 0 40 58 100 61 63z m-426 -167 c-23
-16 -31 -16 -70 1 l-30 13 34 1 c18 0 35 3 38 5 2 3 14 2 25 -1 20 -5 20 -6 3
-19z m243 2 c1 -11 -3 -28 -10 -38 -12 -16 -15 -16 -53 3 -22 11 -46 29 -53
40 -12 20 -11 21 50 18 54 -3 63 -6 66 -23z"/>
<path d="M1491 2258 c1 -13 5 -36 9 -53 7 -27 8 -25 9 17 0 26 -3 50 -9 53 -6
3 -9 -4 -9 -17z"/>
<path d="M2949 2257 c-14 -12 -35 -27 -45 -33 -17 -10 -14 -15 34 -44 28 -18
52 -34 52 -35 0 -1 -40 0 -88 3 l-88 5 4 -99 c4 -96 3 -99 -19 -109 -24 -10
-32 -33 -45 -125 -4 -26 -3 -31 5 -20 6 8 11 29 11 45 0 23 3 27 10 15 25 -38
-5 -90 -52 -90 -15 0 -18 9 -18 51 0 31 -4 48 -10 44 -5 -3 -10 -15 -10 -26 0
-11 -4 -17 -10 -14 -15 9 -12 52 6 87 14 27 20 30 49 25 23 -4 35 -1 39 8 4
10 -23 13 -137 12 -78 -1 -110 -3 -70 -4 l71 -4 8 -62 c14 -99 20 -92 -83 -94
l-93 -2 -7 27 -7 27 -6 -30 -5 -30 -103 -3 c-56 -1 -102 -6 -102 -10 0 -4 48
-4 107 -1 159 9 356 4 361 -10 5 -14 39 -15 47 -1 3 6 36 10 73 10 37 0 91 3
120 7 46 5 53 9 50 26 -2 11 -9 22 -16 23 -7 1 -8 0 -2 -3 22 -10 -45 -35
-102 -37 l-56 -3 -4 71 c-2 39 -2 77 1 85 3 10 23 12 88 9 46 -2 86 -1 89 4 3
5 -31 42 -75 84 -45 42 -81 80 -81 85 0 5 36 9 80 9 71 0 80 2 80 18 0 22 -38
65 -50 57 -5 -3 -7 4 -5 15 7 34 15 41 36 30 16 -9 19 -7 19 10 0 26 -18 25
-51 -3z m-42 -233 c29 -31 53 -58 53 -60 0 -2 -29 -4 -65 -4 -65 0 -65 0 -65
29 0 38 11 91 19 91 3 0 29 -25 58 -56z"/>
<path d="M1795 2251 c-16 -3 -30 -11 -29 -16 2 -19 -21 -45 -41 -46 -16 -1
-16 -2 -3 -6 9 -2 35 7 57 21 22 14 50 26 62 26 12 0 19 5 17 13 -6 15 -23 17
-63 8z"/>
<path d="M1390 2245 c0 -2 18 -14 40 -25 22 -11 40 -16 40 -10 0 5 -11 12 -25
16 -14 3 -25 10 -25 15 0 5 -7 9 -15 9 -8 0 -15 -2 -15 -5z"/>
<path d="M1310 2210 c0 -13 -7 -20 -20 -20 -12 0 -17 -5 -14 -14 10 -26 44 -6
44 25 0 16 -2 29 -5 29 -3 0 -5 -9 -5 -20z"/>
<path d="M1395 2181 l-50 -6 40 -6 c24 -4 52 -1 70 7 34 14 22 15 -60 5z"/>
<path d="M1775 2180 c-7 -11 4 -16 48 -23 22 -3 27 -1 23 10 -3 8 -6 17 -6 19
0 9 -59 3 -65 -6z"/>
<path d="M1390 2141 c-132 -44 -168 -61 -173 -81 -3 -11 -18 -22 -33 -26 -36
-8 -47 -17 -87 -68 l-31 -41 51 48 c29 26 58 47 66 47 8 0 30 13 49 28 38 30
76 47 180 80 79 26 132 28 183 6 22 -9 61 -15 89 -14 28 2 56 2 63 1 6 0 24
-27 39 -58 16 -32 36 -65 46 -74 41 -37 143 -189 158 -236 19 -60 39 -107 40
-93 1 43 -55 175 -102 237 -27 37 -54 76 -59 86 -5 9 -15 17 -22 17 -7 0 -23
26 -36 58 -30 71 -61 98 -90 80 -17 -10 -33 -9 -88 7 -106 29 -147 29 -243 -4z"/>
<path d="M1866 2095 c-7 -28 -6 -31 43 -98 39 -53 57 -62 35 -17 -9 17 -20 30
-25 30 -6 0 -7 5 -4 10 4 6 11 8 16 5 5 -4 6 2 2 12 -3 11 -2 15 3 10 5 -5 14
-23 21 -40 l11 -32 2 30 c1 26 3 27 10 10 8 -18 9 -17 9 8 1 27 -9 32 -66 30
-7 0 -17 15 -23 33 -14 40 -25 43 -34 9z"/>
<path d="M2582 2096 c-47 -34 -53 -43 -11 -18 44 27 49 27 49 3 0 -10 7 -32
15 -47 9 -18 15 -23 15 -12 0 9 -4 20 -10 23 -5 3 -10 22 -10 41 0 40 -4 41
-48 10z"/>
<path d="M353 2045 c0 -38 2 -53 4 -32 2 20 2 52 0 70 -2 17 -4 1 -4 -38z"/>
<path d="M2190 2085 c-10 -12 -10 -24 1 -60 8 -26 18 -44 25 -41 6 2 17 -1 23
-7 8 -8 11 3 11 41 0 29 -4 52 -10 52 -5 0 -10 -10 -10 -22 -1 -21 -1 -22 -11
-5 -6 10 -9 27 -6 38 6 23 -6 25 -23 4z"/>
<path d="M863 2063 c-12 -12 -24 -32 -28 -45 -4 -18 -2 -17 11 6 11 20 18 25
24 16 5 -7 9 -2 13 17 3 15 5 28 4 29 -1 0 -12 -10 -24 -23z"/>
<path d="M2453 2030 c0 -36 2 -50 4 -32 2 17 2 47 0 65 -2 17 -4 3 -4 -33z"/>
<path d="M2766 2057 c-5 -9 -5 -34 0 -55 7 -34 8 -35 12 -9 2 15 2 39 0 55 -4
22 -6 24 -12 9z"/>
<path d="M1691 2027 c44 -33 109 -76 109 -72 0 7 -92 75 -103 75 -6 0 -8 -1
-6 -3z"/>
<path d="M865 1981 c-5 -15 -17 -21 -53 -23 l-47 -3 -3 -59 c-2 -33 1 -63 7
-69 8 -8 11 3 11 40 0 62 7 83 27 83 11 0 14 -7 11 -25 -3 -14 -1 -25 3 -25
16 0 9 -19 -8 -23 -10 -2 -1 -4 19 -3 34 0 35 1 17 14 -28 20 -23 39 14 46 23
5 28 9 18 15 -8 5 -11 16 -6 30 3 11 4 21 1 21 -2 0 -7 -9 -11 -19z"/>
<path d="M1320 1980 c0 -5 -5 -10 -11 -10 -6 0 -46 -35 -88 -78 -98 -99 -141
-180 -140 -261 l0 -56 17 80 c10 44 29 100 44 125 37 63 134 156 192 185 49
24 49 25 18 25 -18 0 -32 -4 -32 -10z"/>
<path d="M1455 1940 c-8 -16 -23 -34 -32 -40 -17 -11 -17 -11 0 -6 9 3 17 1
17 -4 0 -5 -12 -13 -27 -16 -21 -6 -23 -9 -11 -13 15 -5 15 -12 -9 -66 -14
-33 -32 -75 -39 -92 -8 -18 -20 -48 -28 -65 -7 -18 -26 -63 -41 -101 -15 -37
-31 -70 -36 -73 -5 -3 -9 -14 -9 -24 0 -10 -9 -39 -20 -64 l-19 -45 27 -21
c37 -30 78 -20 123 30 l37 40 109 0 109 0 30 -40 c16 -22 39 -43 50 -46 21 -6
104 29 104 44 0 4 -7 26 -15 50 -9 24 -13 48 -10 53 4 5 0 9 -7 9 -7 0 -21 21
-31 48 -11 26 -33 81 -51 122 -104 238 -101 231 -86 240 11 7 8 11 -14 20 -16
6 -26 13 -23 17 8 7 -24 63 -35 63 -19 0 -1 -50 117 -325 69 -160 125 -294
125 -298 0 -4 -19 -7 -42 -7 -39 0 -45 3 -63 38 l-20 37 -138 3 -137 3 -28
-45 c-23 -39 -32 -45 -59 -46 -23 0 -33 5 -33 15 0 8 51 137 113 287 101 242
137 333 137 344 0 2 -4 4 -10 4 -5 0 -16 -13 -25 -30z"/>
<path d="M609 1953 c-1 -5 -1 -11 0 -15 0 -5 -9 -8 -20 -8 -20 0 -21 -1 -5
-25 9 -14 13 -25 9 -25 -5 0 0 -5 10 -11 14 -8 15 -14 7 -24 -9 -11 -7 -12 8
-8 11 2 23 0 26 -6 5 -7 -2 -11 -17 -11 -27 0 -57 36 -57 70 0 11 -4 20 -10
20 -15 0 -12 -48 3 -57 15 -9 30 -53 18 -53 -4 0 -12 5 -19 12 -7 7 -12 8 -12
3 0 -6 -4 -27 -9 -47 -5 -22 -5 -38 0 -38 5 0 9 14 9 31 0 27 3 30 27 27 37
-4 42 -34 9 -49 -14 -7 -26 -19 -26 -26 0 -8 5 -11 12 -7 8 5 9 2 5 -9 -5 -12
-1 -17 12 -17 17 0 29 34 34 103 2 22 27 23 27 1 0 -14 3 -14 15 -4 20 16 20
70 1 70 -8 0 -27 11 -43 24 -25 22 -26 26 -14 49 8 15 25 28 40 30 22 3 22 4
-6 6 -18 0 -34 -2 -34 -6z"/>
<path d="M993 1904 c-24 -35 -46 -99 -40 -117 2 -6 8 2 12 18 5 17 19 47 33
67 29 45 25 75 -5 32z"/>
<path d="M2260 1898 c0 -21 4 -38 9 -38 19 0 21 18 6 46 l-15 29 0 -37z"/>
<path d="M2568 1904 c42 -21 52 -31 53 -53 1 -25 2 -25 8 4 7 27 4 31 -28 46
-61 29 -89 31 -33 3z"/>
<path d="M2860 1920 c8 -5 24 -10 35 -10 11 0 27 5 35 10 11 7 1 10 -35 10
-36 0 -46 -3 -35 -10z"/>
<path d="M2947 1876 c-4 -11 -19 -16 -46 -16 -25 0 -41 -5 -45 -15 -9 -25 76
-20 99 5 13 14 15 24 8 31 -7 7 -12 6 -16 -5z"/>
<path d="M809 1821 c11 -7 11 -9 0 -14 -8 -3 13 -6 45 -6 l59 -1 -23 -25 c-30
-32 -21 -33 13 -1 30 28 21 36 -38 36 -19 0 -37 5 -40 10 -3 6 -12 10 -18 10
-8 0 -7 -3 2 -9z"/>
<path d="M58 1803 c56 -4 63 -6 56 -21 -4 -9 -9 -28 -11 -42 -3 -18 -18 -31
-51 -47 l-47 -21 37 -1 c49 -1 68 7 61 27 -5 13 -1 12 14 -4 17 -17 35 -21
109 -23 49 -1 100 -3 114 -4 16 -1 24 3 22 11 -1 7 -5 40 -9 73 l-6 59 -41 -1
-41 -2 40 -6 40 -6 -25 -14 c-14 -8 -29 -20 -33 -27 -4 -8 -14 -14 -21 -14
-15 0 -56 42 -56 58 0 9 -30 11 -107 10 -74 -1 -88 -3 -45 -5z m152 -41 c25
-27 67 -39 83 -23 17 17 34 13 40 -9 8 -31 -13 -38 -108 -38 -117 1 -125 7
-92 76 13 28 48 25 77 -6z"/>
<path d="M698 1799 c14 -15 17 -43 3 -34 -5 3 -12 1 -15 -3 -3 -5 6 -14 19
-20 14 -7 25 -16 25 -22 0 -5 5 -10 11 -10 7 0 8 11 4 30 -11 48 7 61 22 15
l12 -40 -2 42 c-1 24 -7 43 -13 43 -6 0 -27 3 -45 6 -28 6 -32 4 -21 -7z"/>
<path d="M1485 1731 c-4 -18 -22 -71 -41 -119 -18 -47 -32 -87 -30 -89 2 -2
41 -3 88 -1 l84 3 -47 119 c-44 110 -47 116 -54 87z m33 -115 c16 -36 9 -61
-19 -61 -31 0 -40 23 -22 58 17 33 27 34 41 3z"/>
<path d="M2205 1740 c-9 -10 -37 -27 -61 -36 -54 -20 -53 -27 2 -13 31 9 84
50 84 66 0 7 -8 2 -25 -17z"/>
<path d="M2840 1740 c21 -39 72 -80 100 -80 11 1 9 4 -5 12 -11 6 -40 29 -64
52 -33 31 -40 35 -31 16z"/>
<path d="M807 1722 c-31 -34 -21 -42 53 -42 39 0 70 2 70 5 0 9 -75 55 -91 55
-9 0 -23 -8 -32 -18z"/>
<path d="M2703 1696 c15 -14 39 -26 53 -26 16 0 28 -8 36 -25 6 -14 15 -25 20
-25 4 0 8 -7 8 -15 0 -12 17 -15 91 -15 62 0 90 3 87 11 -2 7 -35 12 -83 13
-58 1 -79 4 -77 14 1 6 -6 12 -16 12 -9 0 -23 9 -30 20 -7 11 -23 20 -36 20
-13 0 -36 9 -52 21 l-29 21 28 -26z"/>
<path d="M417 1683 c18 -2 50 -2 70 0 21 2 7 4 -32 4 -38 0 -55 -2 -38 -4z"/>
<path d="M480 1613 c-90 -104 -95 -107 -219 -114 -77 -4 -51 -5 92 -5 l199 1
1 98 c1 53 0 97 -3 96 -3 0 -34 -34 -70 -76z m60 -48 c0 -39 -3 -45 -24 -51
-34 -8 -71 -1 -71 14 0 17 75 93 86 86 5 -3 9 -25 9 -49z"/>
<path d="M695 1679 c-16 -5 -41 -18 -54 -29 -19 -17 -21 -23 -11 -35 17 -20
23 -19 38 6 11 17 11 20 0 13 -10 -6 -10 -4 1 9 14 18 36 24 26 7 -12 -20 12
-9 35 15 25 27 18 30 -35 14z"/>
<path d="M2621 1637 l-1 -38 -192 0 c-106 0 -227 -4 -268 -9 l-75 -8 73 2 c72
2 87 -4 55 -23 -10 -6 -13 -11 -7 -11 13 0 27 -40 14 -40 -5 0 -13 8 -19 18
-8 13 -12 14 -22 5 -9 -9 -18 -8 -38 5 l-26 16 24 -27 c14 -15 29 -27 35 -27
6 0 26 -14 44 -31 17 -16 32 -25 32 -18 0 8 7 6 18 -4 21 -19 42 -23 24 -5
-19 19 -14 25 29 31 40 5 57 13 48 21 -5 5 -76 -8 -101 -18 -14 -6 -17 1 -20
55 l-3 62 263 -6 c144 -3 262 -2 262 1 0 4 -30 7 -68 7 l-67 0 -6 40 -6 40 -2
-38z"/>
<path d="M2062 1595 c-1 -5 -7 -39 -13 -75 -5 -35 -15 -70 -21 -77 -6 -7 -7
-13 -2 -13 5 -1 -2 -7 -16 -15 l-25 -14 32 -1 c30 0 32 2 43 54 6 30 9 76 7
103 -2 26 -4 44 -5 38z"/>
<path d="M2523 1532 c-66 -34 -72 -40 -72 -69 -1 -17 -5 -35 -11 -38 -5 -3
-10 -10 -10 -16 0 -5 5 -9 10 -9 6 0 10 6 10 13 0 14 96 109 140 139 42 28 9
18 -67 -20z"/>
<path d="M2682 1563 c2 -5 14 -29 26 -55 13 -26 33 -53 45 -58 19 -9 20 -9 7
2 -8 7 -16 20 -18 28 -7 32 -34 79 -49 84 -8 3 -13 3 -11 -1z"/>
<path d="M2843 1553 c22 -25 75 -37 107 -25 19 7 14 9 -23 9 -27 0 -57 7 -74
18 l-28 18 18 -20z"/>
<path d="M2632 1530 c6 -19 31 -55 54 -79 24 -24 42 -47 40 -50 -6 -9 83 -6
91 3 5 4 1 6 -7 5 -21 -5 -100 29 -100 42 0 6 -9 21 -19 33 -11 11 -31 35 -45
51 l-26 30 12 -35z"/>
<path d="M708 1540 c22 -25 13 -30 -55 -32 l-68 -1 90 -8 c123 -10 255 -11
255 -1 0 4 -32 5 -71 4 -85 -4 -119 3 -119 25 0 9 -3 13 -7 10 -3 -4 -13 -1
-22 5 -13 10 -14 10 -3 -2z"/>
<path d="M2323 1533 c-18 -2 -33 -9 -33 -15 0 -6 9 -8 20 -5 11 3 40 -1 66 -9
35 -10 45 -11 41 -1 -2 6 -18 13 -35 15 -18 2 -30 8 -27 13 4 5 5 8 3 7 -2 0
-18 -3 -35 -5z"/>
<path d="M971 1496 c-1 -10 11 -57 26 -105 15 -47 26 -90 25 -95 -2 -4 4 -19
13 -32 8 -13 13 -24 10 -24 -3 0 -14 15 -25 33 -17 27 -20 29 -20 11 0 -23 35
-74 51 -74 6 0 7 6 3 13 -4 7 -3 9 2 4 5 -5 7 -10 4 -11 -16 -8 218 -186 244
-186 7 0 21 -7 32 -15 10 -8 34 -15 52 -15 18 0 41 -5 51 -11 11 -8 29 -9 47
-4 26 7 20 10 -52 25 -103 23 -147 42 -201 86 -23 19 -47 33 -52 30 -5 -3 -15
2 -22 11 -12 15 -12 16 4 10 15 -5 12 0 -9 25 -15 18 -31 32 -36 30 -5 -1 -7
2 -3 7 3 6 -11 32 -31 58 -42 54 -81 133 -100 202 -7 25 -13 38 -13 27z"/>
<path d="M138 1461 c-14 -12 -37 -40 -51 -63 -14 -24 -39 -52 -56 -63 -17 -11
-31 -22 -31 -25 0 -3 75 -5 168 -6 92 0 130 1 85 3 l-82 4 -3 85 -3 86 -27
-21z m12 -111 c-8 -15 -21 -20 -51 -20 l-40 0 33 48 c51 73 62 78 66 32 2 -22
-2 -48 -8 -60z"/>
<path d="M550 1407 c0 -55 -4 -77 -12 -77 -9 0 -8 -4 2 -10 8 -5 43 -10 78
-10 39 0 62 -4 62 -11 0 -8 -17 -10 -52 -6 -42 5 -48 4 -28 -4 14 -6 50 -9 80
-8 30 1 56 -2 58 -6 1 -5 -27 -9 -63 -9 -42 -1 -66 -5 -70 -13 -2 -7 -12 -13
-20 -13 -9 0 -14 -4 -11 -9 3 -5 -1 -11 -9 -15 -21 -8 -19 23 3 40 16 13 16
14 0 8 -14 -5 -18 -1 -18 20 0 23 -4 26 -35 26 -19 0 -35 3 -35 8 0 4 -27 5
-60 4 -33 -2 -60 -8 -60 -13 0 -5 4 -9 8 -9 5 0 33 -30 62 -66 77 -94 96 -104
205 -104 97 0 140 12 85 24 -18 3 -46 6 -63 6 -42 0 -30 8 28 19 41 8 51 6 61
-7 12 -16 15 -15 35 5 29 29 22 35 -41 35 -58 -1 -142 -26 -160 -48 -17 -20
-30 -18 -30 6 0 31 76 69 151 76 57 6 66 4 83 -15 12 -13 31 -21 52 -21 18 0
45 -5 60 -10 37 -14 48 -1 48 58 0 46 1 48 24 44 14 -3 23 -1 21 4 -3 5 -12
25 -21 44 -9 19 -21 46 -26 60 -9 21 -11 15 -11 -37 l-1 -63 -67 -1 c-38 0
-78 -2 -90 -5 -31 -5 -29 16 3 40 25 18 52 18 114 1 21 -5 22 -5 7 5 -9 6 -15
15 -12 20 3 4 -9 7 -27 6 -23 -1 -32 4 -34 17 -4 28 -14 34 -14 8 0 -14 -4
-20 -11 -15 -6 3 -14 1 -18 -5 -7 -11 -71 -5 -69 8 2 18 -3 24 -11 12 -6 -9
-27 -15 -50 -16 -56 -1 -64 -15 -9 -15 68 0 108 -10 108 -28 0 -12 -9 -14 -45
-9 -25 4 -47 2 -50 -3 -3 -6 -24 -10 -46 -10 -28 0 -38 4 -33 12 13 20 4 122
-12 138 -12 12 -14 5 -14 -63z m-20 -159 c0 -77 -12 -89 -47 -48 -15 18 -32
40 -37 49 -5 9 -14 19 -19 22 -21 14 7 29 54 29 l49 0 0 -52z m403 3 c-14 -39
-34 -49 -63 -31 -12 8 -9 14 20 39 35 29 54 25 43 -8z m-55 13 c-25 -24 -54
-25 -73 -4 l-19 21 52 -2 c42 -2 50 -5 40 -15z"/>
<path d="M676 1455 c-30 -20 -41 -23 -57 -14 -21 11 -21 9 17 -49 1 -2 24 17
50 42 52 50 48 60 -10 21z"/>
<path d="M2884 1464 c3 -9 6 -18 6 -20 0 -3 5 -2 10 1 6 3 10 2 10 -4 0 -6 14
-18 32 -27 32 -16 31 -16 -9 25 -45 44 -59 51 -49 25z"/>
<path d="M750 1457 c0 -8 -7 -17 -15 -21 -17 -6 -20 -32 -5 -41 6 -4 17 -1 25
5 8 6 20 8 27 4 7 -4 5 2 -5 14 -11 11 -16 25 -13 31 4 5 2 12 -4 16 -5 3 -10
0 -10 -8z"/>
<path d="M2092 1434 c3 -15 13 -20 58 -22 77 -4 89 -9 62 -28 -12 -8 -29 -28
-37 -45 -9 -16 -22 -29 -30 -29 -8 0 -15 -4 -15 -8 0 -5 24 -5 53 -1 46 6 80
-2 66 -16 -15 -14 -79 -34 -84 -25 -3 6 -26 10 -50 10 -33 0 -47 -5 -54 -18
-7 -14 -18 -18 -41 -14 -37 5 -44 15 -30 43 9 15 19 20 36 16 19 -3 24 0 24
16 0 16 -2 17 -15 7 -21 -17 -29 -7 -16 18 15 27 14 29 -8 35 -16 4 -19 -1
-19 -35 -1 -28 -9 -48 -30 -73 -17 -18 -33 -43 -37 -54 -13 -41 -272 -211
-321 -211 -25 0 -5 20 37 37 51 20 45 27 -7 9 -21 -8 -51 -17 -66 -21 -19 -3
-28 -12 -28 -25 0 -10 -8 -24 -17 -29 -26 -15 -16 -13 57 8 77 23 126 42 160
60 32 17 136 96 178 135 17 16 32 25 32 18 0 -7 9 -12 20 -12 11 0 35 -6 53
-14 30 -12 33 -17 29 -50 -5 -39 -24 -47 -64 -25 -15 8 -32 8 -64 -1 -41 -12
-43 -14 -37 -39 4 -14 7 -36 8 -48 0 -17 3 -19 17 -12 30 16 32 31 7 51 l-24
20 33 -6 c20 -4 31 -2 27 4 -4 6 12 10 39 10 55 0 63 -10 31 -40 l-24 -23 26
-33 25 -34 -41 0 c-45 0 -48 5 -25 38 10 15 11 22 3 22 -7 0 -5 8 7 21 19 22
19 22 -2 11 -30 -16 -47 -39 -34 -47 22 -14 8 -25 -41 -31 -45 -6 -50 -9 -45
-28 3 -12 6 -48 6 -81 l0 -60 20 25 c28 37 30 57 9 84 l-18 23 63 7 c70 7 96
1 96 -21 0 -8 -5 -11 -10 -8 -13 8 -2 -45 11 -59 9 -10 13 -66 5 -66 -17 0
-76 45 -76 58 0 12 -4 11 -16 -7 -9 -13 -35 -32 -58 -42 -48 -22 -47 -22 64
-23 47 -1 129 -2 183 -4 l97 -2 0 -90 0 -90 -104 0 -103 0 4 27 c4 26 3 26 -8
8 -6 -11 -19 -26 -27 -32 -13 -11 3 -13 85 -13 56 0 108 -3 117 -6 13 -5 16
-22 16 -77 0 -89 8 -84 11 6 1 37 6 70 10 73 10 6 23 -100 15 -128 -12 -45
-20 -50 -56 -32 -20 10 -65 19 -109 21 -63 2 -71 1 -48 -8 15 -6 27 -15 27
-20 0 -5 5 -9 11 -9 5 0 8 4 5 8 -3 5 9 8 27 7 51 -3 107 -16 107 -26 0 -5 -3
-9 -7 -9 -5 0 -7 -39 -5 -86 2 -48 0 -90 -5 -94 -4 -5 -33 -10 -63 -12 -53 -3
-55 -2 -61 27 -5 24 -7 20 -8 -22 0 -28 -4 -53 -9 -55 -4 -2 -6 -29 -4 -60 4
-68 19 -74 56 -25 33 43 33 60 -1 86 -14 12 -24 23 -22 25 10 9 139 17 139 8
0 -5 -16 -30 -35 -55 -27 -36 -34 -52 -29 -72 9 -35 21 -31 16 5 -4 29 11 60
29 60 5 0 9 -20 9 -45 0 -25 5 -45 11 -45 7 0 9 59 7 181 l-3 182 85 0 c47 0
66 2 42 4 -23 2 -40 8 -37 14 4 5 -5 9 -18 9 -24 0 -25 2 -20 59 4 42 1 68
-10 91 -16 31 -16 32 11 55 15 14 21 25 14 25 -7 0 -15 -7 -19 -16 -11 -30
-23 8 -23 79 0 51 3 67 14 67 36 0 68 -68 47 -102 -9 -14 -8 -18 3 -18 29 0
37 25 21 70 -8 23 -15 44 -15 46 0 2 24 4 53 4 29 0 57 4 62 9 6 5 26 14 45
19 l35 10 -30 1 c-17 1 -36 -4 -43 -11 -9 -9 -12 6 -12 69 l0 81 -32 7 c-47
10 -109 11 -140 2 l-28 -7 0 84 0 84 35 21 c40 23 38 44 -6 66 -36 19 -37 19
-32 -8 3 -17 -2 -28 -21 -41 -30 -19 -33 -41 -10 -54 12 -7 5 -9 -25 -9 -36 0
-41 2 -41 23 0 17 6 24 20 24 11 0 20 5 20 10 0 14 -33 13 -48 -2 -14 -14 -16
-58 -4 -58 5 0 14 -17 20 -38 7 -21 28 -53 47 -71 19 -17 35 -36 35 -42 0 -6
-14 -29 -31 -50 -32 -40 -24 -54 11 -19 20 20 20 20 21 -27 1 -48 1 -47 14 20
6 37 16 71 21 76 5 4 35 5 67 3 65 -4 78 -19 91 -100 10 -69 -15 -47 -33 29
l-16 64 -3 -60 c-3 -60 -21 -95 -49 -95 -10 0 -13 19 -13 76 0 56 -3 75 -12
71 -8 -2 -12 -15 -10 -30 2 -16 -5 -39 -17 -56 -12 -16 -21 -36 -21 -45 0 -23
-21 -20 -60 9 -19 14 -40 25 -47 25 -19 0 -16 12 13 39 13 13 29 32 34 41 8
15 6 17 -10 13 -11 -3 -18 -9 -15 -13 3 -4 -2 -11 -10 -14 -8 -3 -14 -11 -13
-18 2 -8 -7 -12 -23 -11 -22 1 -25 -2 -22 -21 3 -13 -3 -29 -16 -40 -21 -19
-21 -19 -21 7 0 14 -4 36 -9 49 -5 13 -6 38 -4 55 5 31 7 33 42 28 20 -3 50
-1 66 4 26 8 20 9 -38 10 l-69 1 3 103 c1 57 0 108 -4 114 -4 6 -4 25 -1 43
l7 32 98 -4 c82 -2 102 -7 128 -26 21 -15 29 -17 25 -7 -4 8 -1 15 5 15 7 0
11 -12 9 -27 -3 -23 2 -28 32 -35 32 -9 36 -7 62 24 15 18 28 38 28 45 0 8 13
11 38 9 20 -1 62 1 92 4 49 6 45 7 -39 9 -81 1 -92 3 -81 16 13 16 5 75 -11
75 -5 0 -9 -4 -9 -9 0 -4 -19 -13 -42 -19 l-43 -11 48 4 c42 4 47 3 47 -16 0
-19 -4 -20 -42 -14 -24 3 -52 9 -63 12 -17 5 -18 4 -6 -11 9 -10 29 -16 57
-16 24 0 44 -4 44 -10 0 -6 -39 -9 -95 -9 -99 0 -101 1 -89 46 5 18 10 20 36
12 25 -7 28 -6 18 6 -22 26 -1 37 55 30 34 -4 55 -2 60 4 4 7 -5 11 -24 11
-24 0 -31 4 -31 19 0 11 -4 23 -10 26 -5 3 -10 -3 -10 -15 0 -12 -4 -19 -9
-16 -4 3 -23 -6 -41 -19 -19 -14 -38 -25 -42 -25 -14 0 -9 23 9 42 17 19 16
20 -6 37 -13 10 -21 23 -18 28 4 6 -17 13 -51 17 -31 3 -68 9 -81 12 -19 6
-22 3 -19 -12z m158 -61 c0 -10 -4 -24 -9 -31 -6 -10 -10 -10 -21 3 -10 12
-10 18 0 30 17 20 30 19 30 -2z m-215 -154 c3 -4 -3 -13 -14 -18 -27 -15 -78
4 -62 22 11 14 67 11 76 -4z m405 -15 c0 -1 -12 -9 -26 -19 -15 -9 -23 -12
-20 -6 4 6 0 11 -8 11 -9 0 -16 4 -16 10 0 5 16 9 35 7 19 -1 35 -3 35 -3z
m-216 -179 c12 -48 -17 -62 -36 -19 -10 21 -9 27 3 35 22 13 26 11 33 -16z
m-99 -935 c-3 -5 1 -10 7 -13 9 -3 7 -10 -7 -26 l-19 -23 -8 28 c-4 15 -3 33
2 39 6 7 6 16 2 21 -4 4 1 2 10 -5 10 -7 16 -17 13 -21z"/>
<path d="M230 1409 c0 -10 -8 -23 -17 -28 -10 -6 -15 -11 -11 -11 7 0 78 40
78 45 0 1 -11 5 -25 7 -19 4 -25 1 -25 -13z"/>
<path d="M2548 1403 c45 -2 82 -8 82 -13 0 -6 5 -10 12 -10 6 0 21 -8 32 -17
21 -18 21 -18 3 4 -18 21 -18 21 0 26 22 6 5 7 -122 11 -76 2 -77 2 -7 -1z"/>
<path d="M2108 1353 c-9 -10 -21 -29 -28 -43 -12 -23 -12 -24 3 -11 12 9 17
10 17 2 0 -7 5 -9 10 -6 6 3 10 11 10 16 0 6 -4 7 -10 4 -18 -11 -11 8 12 32
12 13 17 23 11 23 -5 0 -17 -8 -25 -17z"/>
<path d="M60 1286 c0 -8 -8 -17 -17 -19 -16 -4 -17 -5 -1 -6 14 -1 18 -14 21
-68 3 -64 3 -63 5 20 1 48 0 87 -3 87 -3 0 -5 -6 -5 -14z"/>
<path d="M81 1205 l4 -85 -45 -1 c-43 -1 -44 -1 -13 -9 39 -9 82 -36 90 -56 3
-7 9 -11 14 -8 5 3 2 16 -7 30 -10 15 -12 24 -5 24 6 0 11 -4 11 -10 0 -5 7
-6 17 -3 10 4 14 2 9 -5 -3 -6 -2 -13 4 -17 5 -3 13 12 16 37 5 29 17 53 38
73 29 28 29 28 4 12 -36 -23 -38 -22 -34 15 2 17 -2 44 -8 60 -11 25 -12 17
-8 -57 4 -82 4 -85 -17 -85 -21 0 -22 4 -20 82 1 53 -2 83 -9 86 -8 2 -12 -26
-15 -85 l-3 -88 -2 88 c-1 55 -6 87 -13 87 -7 0 -10 -28 -8 -85z"/>
<path d="M2870 1256 l-44 -32 3 -82 c1 -45 0 -82 -3 -82 -16 0 -91 63 -117 99
l-29 41 47 1 c64 1 28 17 -39 18 l-48 1 0 -90 0 -89 -47 -15 -48 -15 43 0 c29
-1 44 4 48 14 9 24 159 21 173 -2 10 -17 10 -17 11 0 0 15 11 17 78 17 103 0
116 10 59 43 -44 26 -117 99 -117 117 0 5 36 10 81 12 l80 3 -44 36 -43 37
-44 -32z m63 0 c8 -20 -15 -37 -33 -26 -8 5 -18 6 -22 4 -4 -3 -8 0 -8 6 0 6
10 15 23 20 31 12 34 12 40 -4z m-224 -120 c12 -19 28 -37 36 -40 27 -10 15
-26 -19 -26 -57 0 -66 8 -66 56 0 55 19 58 49 10z m205 -63 c6 -14 -29 -18
-58 -7 -16 6 -22 45 -10 57 8 7 61 -31 68 -50z"/>
<path d="M1 1201 c1 -39 5 -71 9 -71 11 0 10 129 -1 136 -6 3 -9 -23 -8 -65z"/>
<path d="M1354 1206 c-13 -14 4 -46 25 -46 17 0 13 17 -5 24 -13 5 -14 9 -4
21 15 18 0 19 -16 1z"/>
<path d="M974 1195 c-18 -14 -17 -15 15 -13 19 2 36 9 39 16 5 17 -30 15 -54
-3z"/>
<path d="M2477 1165 c26 -37 73 -82 73 -69 0 5 -21 30 -47 54 -35 35 -41 38
-26 15z"/>
<path d="M856 1159 c-43 -5 -81 -11 -84 -13 -2 -3 7 -11 22 -17 32 -15 33 -25
4 -35 -15 -4 -25 -1 -35 12 -7 10 -13 13 -13 7 0 -6 -3 -19 -7 -29 -5 -15 -2
-16 30 -11 25 4 49 18 72 43 28 30 40 36 65 32 16 -3 30 -1 30 4 0 4 13 8 29
8 28 0 30 -3 34 -42 l4 -43 1 42 c2 41 3 42 40 46 20 2 3 4 -38 4 -41 0 -110
-3 -154 -8z"/>
<path d="M1066 1115 c-29 -27 -35 -51 -10 -41 9 3 27 6 40 6 27 0 30 16 10 42
-12 17 -15 16 -40 -7z"/>
<path d="M2428 1123 c18 -3 22 -11 22 -39 0 -42 -24 -54 -105 -54 -30 0 -57
-4 -60 -10 -8 -13 42 -16 127 -9 30 2 40 9 49 31 16 39 0 83 -32 85 -22 1 -22
1 -1 -4z"/>
<path d="M340 1093 c-14 -13 -38 -31 -54 -40 l-28 -15 47 -48 c45 -45 52 -70
20 -70 -8 0 -17 -4 -20 -10 -3 -5 0 -7 9 -4 8 3 19 -3 26 -15 10 -20 9 -20
-16 -9 -23 11 -28 10 -40 -7 -28 -38 -19 -46 54 -45 37 1 71 1 75 1 19 -2 -55
-53 -95 -66 -37 -11 -39 -13 -15 -14 33 -1 35 -22 7 -71 -19 -32 -19 -33 -2
-13 25 29 32 20 32 -38 l0 -47 -57 -4 c-72 -5 -88 2 -91 42 -3 44 5 52 36 33
27 -17 27 -17 10 3 -10 11 -24 36 -33 57 -27 64 -39 46 -31 -47 l6 -84 -30
-11 c-17 -5 -30 -11 -30 -13 0 -2 110 -3 243 -3 266 0 285 -4 272 -53 -4 -15
-2 -21 5 -17 5 3 10 21 10 40 l0 34 138 5 c75 2 147 5 159 5 20 1 21 4 12 28
-5 15 -9 47 -8 72 1 25 -1 56 -5 69 -8 24 -8 24 -133 24 l-71 0 -4 56 c-5 75
7 122 39 148 21 18 23 25 14 42 -6 12 -20 26 -31 32 -19 10 -20 7 -20 -49 0
-53 -3 -62 -25 -77 -14 -9 -23 -20 -20 -24 3 -4 -2 -14 -11 -21 -14 -11 -18
-10 -30 6 -15 21 -10 30 21 38 11 3 1 5 -23 6 -24 0 -41 5 -37 10 3 6 -4 15
-16 21 -15 8 -19 9 -15 1 4 -6 0 -11 -8 -11 -18 0 -19 8 -17 95 2 85 -7 93
-53 46 l-38 -39 41 -52 c23 -28 41 -55 41 -60 0 -4 9 -6 20 -3 16 4 24 -4 40
-41 10 -25 22 -46 25 -46 3 0 1 9 -5 19 -16 30 -12 36 10 16 11 -10 20 -29 20
-43 l0 -26 30 29 c33 32 45 30 31 -7 -5 -15 -5 -30 0 -41 9 -15 4 -17 -43 -17
-40 0 -49 3 -38 11 12 8 8 9 -15 5 -16 -3 -41 -9 -53 -12 -21 -6 -23 -4 -20
16 2 18 -3 25 -22 30 -14 4 -34 4 -45 0 -16 -5 -13 -8 14 -13 46 -9 34 -32
-17 -33 -23 -1 -49 -4 -57 -8 -9 -3 -15 0 -15 8 0 20 59 68 73 59 7 -3 3 4 -8
17 l-20 23 23 -7 c18 -6 22 -3 22 13 0 27 -16 35 -30 14 -11 -16 -11 -16 -6 2
6 20 6 20 -9 1 -15 -19 -15 -19 -15 2 0 14 6 22 18 23 9 0 -5 6 -32 12 l-49
12 35 38 c43 45 37 49 -9 5 -28 -27 -35 -30 -43 -18 -11 17 -13 80 -4 104 5
14 9 14 33 -2 39 -28 59 -36 32 -14 -13 10 -31 28 -40 40 -16 20 -16 20 -41
-5z m193 -76 c-3 -6 -12 -3 -19 8 -10 13 -10 21 -1 36 11 18 12 17 19 -8 4
-14 4 -31 1 -36z m-193 13 c0 -11 -4 -20 -9 -20 -13 0 -32 26 -24 33 13 14 33
6 33 -13z m83 -114 c4 -9 -2 -17 -13 -21 -10 -3 -22 -15 -25 -26 -11 -33 -25
-21 -25 21 0 37 2 40 29 40 16 0 31 -6 34 -14z m127 -176 c0 -11 3 -20 8 -20
4 0 12 -8 19 -19 9 -15 7 -23 -13 -44 -13 -14 -24 -31 -24 -36 0 -32 -79 -57
-95 -31 -4 6 12 29 35 52 33 34 43 39 51 27 5 -8 9 -9 9 -3 0 6 -9 19 -21 30
-17 16 -22 16 -29 4 -6 -8 -10 -18 -10 -21 0 -14 -93 -109 -106 -109 -11 0
-14 19 -14 90 l0 89 57 3 c31 2 74 4 95 6 33 2 38 0 38 -18z m170 3 c0 -4 -10
-18 -22 -31 l-23 -25 27 7 c22 5 26 3 22 -9 -3 -8 -11 -12 -16 -9 -7 4 -7 0 0
-12 5 -11 12 -33 15 -50 6 -31 5 -32 -40 -38 -25 -3 -65 -6 -89 -6 -37 0 -44
3 -44 20 0 11 16 37 35 59 31 34 33 40 19 51 -8 8 -20 22 -25 32 -9 17 -4 18
66 18 41 0 75 -3 75 -7z m75 -18 c46 -45 25 -145 -31 -145 -24 0 -24 2 -24 85
0 95 10 106 55 60z m126 -3 c13 -13 16 -112 4 -128 -8 -11 -25 -14 -65 -12
-54 3 -55 3 -28 17 18 9 25 18 19 25 -8 9 -15 81 -12 108 1 9 73 0 82 -10z"/>
<path d="M2384 1086 c-7 -19 -44 -22 -44 -3 0 8 -4 7 -10 -3 -7 -11 -10 -11
-10 -2 0 7 -4 10 -10 7 -25 -15 -5 -25 50 -25 61 0 72 8 45 30 -12 10 -16 9
-21 -4z"/>
<path d="M1009 1056 c6 -8 11 -18 10 -22 -1 -5 0 -18 1 -29 2 -14 4 -12 9 10
7 30 -3 55 -21 55 -6 0 -6 -6 1 -14z"/>
<path d="M680 1057 c0 -4 6 -16 12 -27 17 -26 0 -54 -33 -57 -42 -2 -44 -3
-30 -12 16 -10 61 3 73 22 12 19 9 41 -7 63 -8 10 -15 16 -15 11z"/>
<path d="M1067 1053 c-13 -12 -7 -23 12 -23 12 0 21 -9 25 -27 3 -16 8 -38 12
-51 6 -22 4 -23 -37 -20 -36 3 -44 7 -50 28 l-7 25 -1 -27 c-1 -25 -5 -28 -37
-28 -33 0 -36 2 -30 23 15 49 18 87 8 87 -5 0 -13 -25 -17 -55 l-6 -55 -41 0
c-38 0 -40 1 -34 25 5 18 2 25 -9 25 -8 0 -15 -9 -15 -20 0 -15 -7 -20 -27
-21 -59 -3 53 -18 134 -18 55 -1 83 -5 86 -13 4 -10 6 -10 6 0 1 7 15 12 34
12 l32 0 -45 -29 -45 -29 -85 14 c-47 7 -105 13 -130 12 -32 -1 -19 -4 45 -12
86 -11 90 -12 87 -35 -2 -18 1 -21 10 -14 21 16 92 30 113 23 13 -5 24 -1 32
9 6 9 15 13 19 9 4 -4 2 -13 -3 -20 -7 -9 -5 -22 7 -42 l18 -28 -4 71 -4 71
35 0 c30 0 35 -3 35 -24 0 -14 5 -28 10 -31 6 -3 10 -26 10 -51 0 -40 -2 -44
-25 -44 -14 0 -25 6 -25 13 0 6 -5 4 -11 -6 -6 -9 -14 -15 -20 -12 -5 4 -9 -6
-9 -20 0 -16 -4 -24 -10 -20 -8 5 -9 -11 -5 -47 6 -47 5 -51 -8 -35 -15 18
-107 70 -113 64 -4 -4 58 -77 114 -134 20 -21 22 -34 22 -118 l0 -95 95 0 95
0 0 -47 c0 -42 1 -45 13 -28 9 11 16 14 21 7 8 -13 -4 -43 -15 -37 -5 3 -11
-6 -15 -21 l-7 -27 -29 31 c-37 43 -36 26 3 -28 28 -38 31 -48 25 -89 -9 -61
-7 -104 4 -115 7 -7 10 16 10 62 0 49 4 74 13 77 6 3 44 9 82 15 l70 9 -82 -4
-83 -4 0 31 c0 20 9 39 24 53 17 16 23 30 19 44 l-5 21 51 -21 c28 -12 51 -26
51 -30 0 -5 5 -9 12 -9 16 0 -22 39 -54 56 -15 8 -43 14 -63 14 -31 0 -35 3
-35 26 0 21 3 25 18 19 9 -4 34 -11 56 -16 21 -6 48 -14 60 -20 20 -10 20 -10
2 5 -11 9 -16 19 -13 23 12 11 226 8 238 -4 10 -10 14 -44 18 -133 2 -58 21
-20 25 51 3 55 0 66 -18 82 -20 17 -19 18 69 16 186 -3 300 1 285 11 -8 5 -78
9 -155 8 -115 -1 -146 2 -172 15 -18 10 -33 13 -33 7 0 -5 8 -10 18 -11 12 0
10 -3 -7 -10 -14 -5 -67 -8 -118 -6 -51 2 -93 0 -93 -5 0 -4 -16 1 -37 12 -20
10 -41 16 -46 13 -6 -4 -2 -10 9 -14 12 -5 -4 -8 -43 -8 l-62 -1 -4 83 -3 82
-2 -83 -2 -83 -67 6 c-124 11 -112 -7 -115 173 -2 86 -2 164 0 173 3 13 28 16
179 18 136 2 178 -1 184 -11 7 -10 9 -9 9 5 0 15 -11 17 -94 17 -91 0 -93 1
-91 23 1 12 3 30 4 41 1 16 7 18 44 13 23 -3 52 -8 65 -11 17 -4 22 0 22 15 0
16 -3 18 -19 9 -26 -13 -34 -13 -24 3 4 6 9 20 10 31 3 16 1 16 -15 -4 l-18
-22 1 27 c0 18 7 31 20 36 17 7 16 8 -7 8 -16 1 -28 7 -28 14 0 7 -7 4 -15 -7
-11 -14 -12 -22 -4 -27 16 -9 1 -49 -18 -49 -12 0 -14 7 -9 30 3 17 1 30 -4
30 -9 0 -24 -95 -19 -126 4 -22 0 -24 -41 -24 -24 0 -30 4 -30 21 0 11 5 29
10 40 7 12 7 19 1 19 -5 0 -12 -8 -14 -17 -3 -10 -5 -4 -6 14 0 17 -5 35 -11
38 -5 3 -10 13 -10 21 0 10 14 14 53 16 44 1 46 2 14 5 -30 3 -37 8 -33 20 5
13 4 14 -9 3 -18 -15 -49 -5 -39 12 4 7 -5 2 -19 -11 -15 -14 -30 -21 -34 -17
-5 4 5 19 20 32 15 13 24 24 20 24 -5 0 -15 -6 -21 -12 -17 -17 -32 6 -32 52
0 25 -3 31 -9 21 -7 -12 -13 -12 -24 -3 -7 7 -17 9 -20 5z"/>
<path d="M1820 1055 c0 -6 9 -28 20 -49 10 -22 17 -44 13 -50 -4 -7 -2 -8 5
-1 6 6 13 28 17 50 6 36 5 38 -9 22 -14 -18 -15 -17 -30 10 -8 15 -15 23 -16
18z"/>
<path d="M148 1044 c-4 -6 -6 -36 -5 -66 2 -50 -1 -59 -26 -82 -15 -14 -34
-26 -42 -26 -8 0 -16 -4 -19 -9 -8 -12 155 -21 177 -10 29 16 17 44 -21 47
-27 3 -35 -1 -39 -17 -3 -14 -13 -21 -29 -21 -30 0 -31 23 -1 47 12 10 23 27
25 38 2 11 14 30 28 43 14 12 21 22 17 22 -5 0 -14 -5 -19 -10 -13 -13 -30 4
-36 35 -2 12 -6 16 -10 9z"/>
<path d="M647 1043 c-13 -13 -7 -22 11 -16 15 6 14 3 -3 -18 -20 -24 -20 -24
0 -9 11 8 21 15 23 16 1 1 0 9 -4 18 -6 17 -16 20 -27 9z"/>
<path d="M1228 1031 c-5 -18 0 -29 24 -50 47 -40 66 -47 34 -13 -18 20 -25 35
-20 44 6 11 5 11 -8 0 -14 -12 -17 -10 -20 15 -3 27 -3 27 -10 4z"/>
<path d="M2586 965 c-21 -18 -46 -31 -55 -29 -9 3 -29 0 -46 -5 -24 -7 -12 -9
58 -10 51 -1 87 -5 87 -11 0 -6 42 -10 106 -10 58 0 113 -4 122 -9 10 -5 40
-4 74 3 70 14 86 26 21 15 -69 -11 -77 -11 -99 6 -10 8 -14 15 -9 14 24 -3 35
2 35 16 0 8 -5 15 -12 15 -6 0 -20 7 -30 17 -17 15 -18 14 -18 -20 l0 -37 -94
0 -95 0 -3 39 -3 39 -39 -33z"/>
<path d="M1380 976 c0 -2 14 -9 30 -15 24 -8 30 -7 30 5 0 9 -10 14 -30 14
-16 0 -30 -2 -30 -4z"/>
<path d="M1746 955 l-29 -23 34 1 c19 0 51 -3 72 -7 l39 -7 -24 24 c-34 37
-58 40 -92 12z"/>
<path d="M1655 939 l-30 -7 32 -1 c26 -1 32 -6 38 -31 4 -16 4 -33 1 -38 -2
-4 13 -8 35 -7 37 0 39 2 39 31 0 29 -3 32 -39 38 -22 3 -41 9 -43 14 -1 4
-16 5 -33 1z"/>
<path d="M1516 881 c-3 -20 -6 -57 -6 -83 0 -42 3 -48 21 -48 11 0 34 -13 50
-29 16 -16 45 -35 64 -41 38 -12 50 -24 40 -40 -4 -6 -19 -2 -38 11 -29 20
-29 19 6 -13 20 -20 37 -43 37 -52 0 -9 5 -16 11 -16 14 0 143 -129 155 -155
6 -15 10 1 12 58 2 42 7 77 12 77 5 0 7 7 3 16 -4 11 -9 12 -16 5 -6 -6 -22
-12 -36 -12 -24 -2 -24 -2 -3 -6 18 -4 22 -11 22 -39 0 -27 -4 -34 -19 -34
-18 0 -61 43 -61 61 0 4 8 10 18 12 13 4 13 5 -4 6 -12 0 -27 7 -33 15 -7 8
-21 12 -31 9 -11 -3 -20 0 -20 6 0 6 8 11 18 11 16 1 16 1 0 14 -14 10 -18 28
-18 73 l0 60 54 -10 c34 -6 53 -14 50 -22 -3 -7 9 -11 36 -10 29 0 40 4 40 15
0 10 -10 15 -32 15 -40 0 -51 24 -11 26 26 2 26 2 -7 9 -19 4 -29 8 -22 9 6 0
12 6 12 13 0 6 -11 1 -24 -11 -19 -18 -32 -22 -51 -17 -14 4 -23 11 -20 16 3
6 -1 10 -9 10 -9 0 -13 -6 -10 -15 4 -9 -3 -16 -21 -21 -17 -4 -23 -9 -15 -14
13 -8 5 -50 -10 -50 -5 0 -22 11 -37 25 -20 17 -23 25 -13 26 8 1 -9 6 -39 13
l-55 11 52 44 c29 23 52 47 52 52 0 4 -22 19 -49 32 l-49 23 -6 -35z m54 -11
c13 -8 13 -11 -2 -27 -21 -20 -43 -6 -32 20 7 19 13 21 34 7z"/>
<path d="M2576 894 c-21 -20 -22 -62 -2 -45 12 10 29 61 20 61 -1 0 -10 -7
-18 -16z"/>
<path d="M16 844 c-7 -19 -8 -59 -1 -52 11 10 23 68 15 68 -4 0 -11 -7 -14
-16z"/>
<path d="M2617 847 c-4 -11 -5 -23 -1 -28 3 -5 -5 -9 -18 -9 -13 0 -30 -5 -38
-10 -11 -7 -6 -10 22 -10 47 0 61 -19 16 -22 -18 0 -45 -2 -60 -2 -59 -3 -37
-16 26 -16 46 0 65 -3 60 -11 -4 -8 -1 -8 13 -1 22 12 64 5 75 -12 5 -7 8 -5
8 4 0 12 13 16 48 18 45 2 51 -1 96 -47 29 -30 44 -51 37 -55 -6 -4 -11 -13
-11 -19 0 -7 5 -4 11 6 10 18 11 18 31 0 20 -18 20 -18 14 13 -6 28 -3 35 26
57 18 14 30 28 27 32 -3 3 -27 -11 -52 -30 -31 -24 -48 -31 -53 -23 -8 13 35
51 78 69 16 6 28 14 28 18 0 8 -110 6 -138 -3 -32 -11 -39 0 -16 26 18 20 18
21 1 15 -10 -4 -21 -7 -23 -7 -2 0 -4 -6 -4 -13 0 -15 -164 -17 -179 -1 -5 5
-11 25 -13 44 -2 27 -5 31 -11 17z m298 -96 c3 -5 1 -13 -5 -16 -15 -9 -43 3
-35 15 8 13 32 13 40 1z"/>
<path d="M2640 851 c0 -24 46 -41 112 -41 68 0 68 0 67 28 -1 16 -3 20 -6 10
-6 -25 -62 -22 -150 6 -14 4 -23 3 -23 -3z"/>
<path d="M102 818 c3 -7 14 -14 26 -16 15 -2 22 -11 23 -25 1 -20 2 -20 8 3 8
29 -8 50 -39 50 -13 0 -20 -5 -18 -12z"/>
<path d="M983 823 c19 -3 27 -9 23 -18 -3 -8 5 -16 21 -20 16 -4 23 -11 20
-20 -3 -7 1 -19 9 -26 12 -10 18 -9 31 3 8 9 12 21 8 27 -14 23 -85 61 -112
60 l-28 -2 28 -4z"/>
<path d="M1355 785 c-38 -17 -25 -17 50 -1 56 13 58 14 20 15 -22 0 -53 -6
-70 -14z"/>
<path d="M968 772 c-29 -6 -20 -21 12 -20 30 1 40 12 18 20 -7 2 -21 3 -30 0z"/>
<path d="M1371 698 c-17 -27 -21 -57 -9 -64 7 -5 13 19 9 40 -1 5 3 12 10 16
6 4 10 13 8 19 -2 6 -11 1 -18 -11z"/>
<path d="M1498 675 l4 -45 -38 -1 c-22 -1 -50 -5 -64 -9 -19 -6 -11 -8 33 -9
38 -1 57 -5 57 -13 0 -8 -16 -13 -42 -14 -24 0 -104 -5 -178 -10 l-135 -9 90
-5 c50 -3 133 -4 186 -2 l96 3 2 80 c1 43 -2 79 -6 79 -5 0 -7 -20 -5 -45z"/>
<path d="M2636 689 c-3 -17 -6 -41 -6 -53 0 -11 -7 -33 -14 -48 -13 -25 -13
-28 2 -28 13 0 17 -9 17 -37 0 -34 4 -40 45 -61 25 -13 61 -39 80 -58 35 -34
60 -44 60 -24 0 6 -4 10 -9 10 -5 0 -33 20 -63 45 -30 25 -61 45 -69 45 -11 0
-11 2 1 10 12 8 11 13 -8 33 -12 13 -22 33 -22 44 0 25 65 83 93 83 23 0 14
16 -13 23 -11 3 -18 2 -15 -3 3 -4 -2 -13 -10 -20 -20 -16 -48 6 -42 31 3 10
-1 23 -8 29 -9 8 -14 3 -19 -21z"/>
<path d="M2832 623 c-2 -59 -1 -61 21 -55 17 5 18 7 5 10 -13 2 -18 16 -21 55
l-3 52 -2 -62z"/>
<path d="M1160 660 c-11 -7 -3 -10 30 -9 34 0 40 2 25 9 -27 12 -37 12 -55 0z"/>
<path d="M2415 640 c-19 -8 -19 -9 -1 -9 15 -1 16 -4 7 -15 -9 -10 -9 -16 -1
-21 8 -5 5 -11 -7 -20 -15 -11 -15 -17 -5 -39 16 -36 16 -133 0 -139 -28 -10
6 -20 70 -21 55 -1 66 2 56 11 -7 7 -20 10 -30 6 -11 -4 -15 -3 -11 5 10 14
74 35 87 27 5 -3 10 -1 10 4 0 6 -17 11 -38 11 -29 0 -45 -7 -67 -30 -16 -16
-32 -30 -37 -30 -4 0 -8 34 -8 76 0 61 -4 79 -17 90 -15 11 -16 13 -2 14 11 0
16 12 18 45 1 25 1 45 -1 44 -2 0 -12 -4 -23 -9z"/>
<path d="M1525 560 c-4 -6 20 -10 64 -10 38 0 73 5 76 10 4 6 -20 10 -64 10
-38 0 -73 -4 -76 -10z"/>
<path d="M2487 563 c18 -2 50 -2 70 0 21 2 7 4 -32 4 -38 0 -55 -2 -38 -4z"/>
<path d="M2927 559 c-9 -6 -22 -7 -28 -4 -5 4 -20 0 -32 -7 -12 -8 -38 -20
-57 -28 -19 -7 -51 -19 -70 -27 l-35 -14 40 6 c22 4 64 17 94 31 29 13 64 24
77 24 12 0 26 5 29 11 10 15 2 19 -18 8z"/>
<path d="M0 510 c0 -41 5 -56 28 -81 35 -40 34 -52 -3 -60 -18 -4 7 -7 61 -8
73 -1 93 -4 98 -17 3 -8 2 -13 -2 -10 -4 2 -14 1 -22 -5 -11 -6 -12 -9 -2 -9
7 0 10 -4 7 -10 -3 -5 -18 -10 -33 -10 -16 0 -22 3 -15 8 6 4 -10 7 -35 7 -26
0 -55 4 -65 9 -10 5 -17 4 -17 -2 0 -6 12 -15 28 -20 l27 -10 -27 -7 c-39 -10
-35 -25 6 -25 19 0 47 -5 63 -11 l28 -11 -25 -13 c-14 -8 -19 -14 -10 -14 8 0
23 6 33 13 16 12 16 15 3 29 -17 17 -11 27 16 27 10 0 59 20 108 45 97 49 110
52 110 31 0 -17 -104 -115 -153 -144 l-36 -21 -4 37 -4 37 -1 -42 c-2 -41 -4
-43 -33 -43 -17 0 -39 5 -50 10 -13 8 -25 7 -39 0 -30 -16 -25 -31 6 -20 19 8
25 7 22 -2 -3 -7 -19 -16 -36 -20 -18 -5 -32 -13 -32 -18 0 -5 6 -8 12 -6 44
14 69 16 63 6 -4 -6 -17 -15 -29 -20 -17 -7 -18 -9 -3 -9 9 -1 36 13 59 29 22
17 45 30 49 30 4 0 10 -15 12 -32 4 -32 4 -32 5 5 l2 37 88 1 87 2 -69 8 c-39
4 -74 6 -78 3 -4 -3 -8 -3 -8 -1 0 2 17 16 38 29 47 32 142 124 142 137 0 7
29 11 74 11 72 0 110 14 64 23 -21 4 -20 4 4 6 14 0 28 -4 30 -10 2 -6 38 -11
86 -12 61 -2 85 -6 92 -17 8 -12 12 -12 18 -2 6 9 42 12 131 11 67 0 125 2
129 5 3 3 -9 6 -26 6 -30 0 -31 1 -35 53 l-3 52 -2 -52 -2 -53 -83 0 c-46 0
-87 3 -91 7 -11 12 -80 33 -107 33 -14 0 -34 9 -44 20 -10 11 -26 20 -37 20
-11 0 -18 -7 -18 -20 0 -16 -7 -20 -31 -20 -18 0 -52 -10 -76 -22 -53 -27 -78
-17 -78 30 0 17 -3 34 -7 38 -5 4 -8 -2 -8 -13 0 -12 -8 -30 -17 -42 -15 -17
-24 -19 -53 -12 -23 5 -44 3 -60 -5 -27 -13 -101 -5 -139 16 -31 16 -63 68
-68 110 -5 38 -4 40 22 40 21 0 40 -13 76 -52 41 -46 48 -50 49 -30 0 12 -4
22 -9 22 -5 0 -24 12 -41 27 -29 24 -31 28 -14 34 12 5 -3 8 -38 8 l-58 1 0
-50z m620 -110 l35 -19 -47 -1 c-45 0 -62 13 -41 33 9 10 14 9 53 -13z m-330
-30 c0 -5 -11 -10 -24 -10 -14 0 -28 -5 -32 -11 -4 -8 -9 -8 -18 1 -8 8 -7 13
4 20 20 13 70 13 70 0z"/>
<path d="M733 470 c0 -36 2 -50 4 -32 2 17 2 47 0 65 -2 17 -4 3 -4 -33z"/>
<path d="M2580 411 l-25 -8 25 -5 25 -5 -25 -11 c-22 -9 -23 -11 -4 -11 27 -1
44 -20 44 -50 0 -25 20 -68 20 -45 0 7 11 9 25 6 30 -5 31 -13 6 -36 -11 -10
-19 -26 -18 -36 2 -26 43 -5 59 31 12 28 53 44 83 33 11 -5 15 1 15 19 0 37
10 57 29 58 11 0 12 2 3 6 -8 3 -31 -9 -53 -27 -27 -21 -55 -34 -83 -37 -45
-4 -59 4 -69 45 -5 21 -3 22 64 22 72 0 86 9 43 28 -14 7 -23 8 -20 3 3 -4 -9
-8 -27 -8 -17 0 -39 -1 -47 -4 -9 -2 -16 4 -18 19 -4 23 -11 25 -52 13z"/>
<path d="M1936 345 c4 -11 8 -41 9 -67 0 -25 4 -44 9 -41 12 8 1 102 -14 116
-10 10 -11 8 -4 -8z"/>
<path d="M551 289 c0 -41 3 -57 8 -44 7 18 4 95 -5 104 -2 2 -4 -25 -3 -60z"/>
<path d="M1501 255 l3 -97 83 6 c50 4 83 3 83 -2 0 -9 -43 -20 -97 -25 -30 -3
-29 -13 2 -21 15 -4 38 0 56 10 29 14 56 11 33 -4 -5 -4 -8 -30 -6 -59 3 -45
7 -52 28 -56 23 -4 24 -3 24 64 0 38 -4 69 -8 69 -5 0 -8 -13 -7 -30 1 -16 -2
-30 -7 -30 -4 0 -8 18 -8 40 0 44 7 47 51 24 17 -8 38 -13 46 -10 8 3 26 -3
40 -14 14 -11 32 -20 39 -20 22 0 16 27 -7 33 -12 3 -18 10 -14 16 6 10 -20
16 -52 12 -7 -1 -13 3 -13 10 0 7 11 10 30 7 17 -3 33 -1 36 4 5 8 -9 12 -33
9 -7 -1 -13 8 -13 21 l-1 23 -12 -23 c-7 -12 -23 -30 -36 -39 -22 -15 -24 -15
-33 1 -5 9 -20 21 -33 26 -23 9 -74 67 -80 92 -13 53 -16 57 -42 47 -18 -7
-30 -6 -40 2 -12 11 -14 -1 -12 -86z m78 33 c6 -17 22 -46 36 -64 14 -18 25
-35 25 -39 0 -3 -26 -5 -57 -3 l-58 3 1 52 c1 29 4 59 8 68 9 25 33 17 45 -17z"/>
<path d="M1825 324 c-25 -14 -48 -21 -60 -17 -20 6 -20 5 -1 -16 20 -22 32
-28 21 -11 -3 6 3 10 13 10 15 0 21 -8 24 -35 2 -19 0 -35 -5 -35 -4 0 -5 -5
-2 -10 12 -19 24 1 18 30 -8 42 3 77 27 83 11 3 20 10 20 16 0 15 -9 13 -55
-15z"/>
<path d="M2440 286 c0 -25 5 -48 10 -51 6 -4 10 9 10 31 l0 37 22 -19 c20 -17
20 -16 -2 13 -14 18 -28 32 -32 32 -5 1 -8 -19 -8 -43z"/>
<path d="M1882 249 l-2 -76 61 -7 c117 -12 119 -11 118 32 -1 36 -1 36 -11 10
-9 -26 -12 -28 -71 -26 -34 1 -67 7 -74 14 -7 6 -14 38 -16 70 -3 56 -3 55 -5
-17z"/>
<path d="M2831 243 c-1 -76 -3 -83 -21 -83 -19 0 -19 -1 -2 -20 l17 -21 3 21
c3 18 11 20 74 20 73 0 92 10 22 11 -70 1 -74 5 -75 62 -1 92 -18 100 -18 10z"/>
<path d="M435 281 c30 -33 83 -66 92 -58 2 3 -5 8 -17 12 -12 4 -41 23 -64 43
-41 36 -41 36 -11 3z"/>
<path d="M791 277 c-13 -6 -29 -21 -35 -32 -6 -11 -12 -22 -14 -24 -1 -3 -13
6 -27 19 -32 30 -32 23 0 -20 14 -19 25 -37 25 -41 0 -3 -43 -5 -95 -4 -52 1
-95 -2 -95 -7 0 -4 -3 -7 -7 -7 -5 1 -28 1 -53 -1 -30 -1 -39 -4 -27 -9 17 -6
17 -8 3 -20 -9 -7 -16 -22 -16 -32 0 -15 -6 -18 -23 -15 -16 3 -24 -1 -24 -10
0 -8 6 -14 13 -14 8 0 20 -13 29 -30 10 -20 23 -30 37 -30 l22 0 -22 16 c-29
20 -28 61 2 99 21 25 28 28 43 19 11 -7 19 -25 21 -48 2 -20 7 -36 13 -36 8 0
13 21 11 41 -1 4 4 6 11 5 13 -1 22 13 10 16 -13 4 -43 32 -43 40 0 5 78 8
173 8 154 1 169 2 147 15 -14 8 -47 14 -74 15 l-50 0 34 35 c19 19 43 38 53
41 16 5 17 8 6 15 -18 11 -19 11 -48 -4z"/>
<path d="M1120 224 l0 -55 -90 2 c-50 1 -93 -1 -97 -5 -3 -3 39 -6 95 -6 l102
0 0 60 c0 33 -2 60 -5 60 -3 0 -5 -25 -5 -56z"/>
<path d="M920 240 c0 -27 -3 -30 -31 -30 -17 0 -28 -4 -24 -10 3 -5 19 -10 36
-10 27 0 29 2 29 40 0 22 -2 40 -5 40 -3 0 -5 -13 -5 -30z"/>
<path d="M359 225 c-8 -58 11 -224 26 -219 14 6 10 73 -5 88 -5 5 -10 15 -10
20 0 6 4 5 9 -3 5 -8 16 -11 26 -7 16 6 15 9 -8 32 -20 20 -27 38 -29 77 l-3
52 -6 -40z"/>
<path d="M2510 253 c0 -3 14 -19 31 -34 45 -40 21 -61 -49 -42 -18 4 -23 11
-19 29 5 28 3 29 -17 8 -9 -8 -16 -25 -16 -37 0 -21 3 -22 86 -18 97 4 112 -5
88 -50 -7 -15 -11 -34 -8 -42 3 -8 -8 -25 -26 -41 -30 -24 -22 -37 10 -16 9 6
17 5 22 -3 12 -19 16 -5 19 70 l4 71 -52 56 c-45 50 -73 69 -73 49z"/>
<path d="M2716 221 c-4 -5 -2 -12 4 -16 6 -4 8 -11 5 -16 -4 -5 13 -9 37 -8
41 1 42 1 13 10 -16 5 -35 16 -42 24 -6 10 -14 12 -17 6z"/>
<path d="M2981 148 c-5 -13 -24 -37 -42 -55 -19 -17 -44 -45 -57 -62 l-24 -31
31 0 c28 0 31 3 31 30 0 29 13 40 25 20 3 -5 15 -10 25 -10 16 0 19 10 22 65
1 36 2 65 0 65 -1 0 -6 -10 -11 -22z"/>
<path d="M885 143 c-12 -2 -26 -13 -33 -23 -16 -27 -3 -25 33 5 17 14 28 24
25 24 -3 -1 -14 -4 -25 -6z"/>
<path d="M931 104 c-1 -28 -4 -53 -7 -57 -3 -3 -16 5 -29 19 -19 21 -27 23
-49 14 -14 -5 -26 -14 -26 -20 0 -7 6 -8 19 -1 14 8 22 7 30 -3 15 -18 62 -30
70 -18 3 4 22 13 41 20 l35 11 -30 -1 c-45 0 -51 1 -35 12 12 8 12 13 -2 42
l-17 33 0 -51z"/>
<path d="M1510 72 l0 -72 68 1 c73 1 74 6 2 11 l-45 4 0 51 c0 29 -6 57 -12
64 -11 10 -13 -1 -13 -59z"/>
<path d="M1975 122 c-29 -12 -41 -24 -43 -42 l-3 -25 26 28 c14 15 34 27 43
27 10 0 27 7 38 15 19 14 19 14 -1 14 -11 0 -38 -8 -60 -17z"/>
<path d="M740 59 c0 -44 3 -59 13 -56 6 2 11 15 9 28 -2 19 0 21 8 9 8 -11 9
-5 4 23 -5 27 -3 37 7 38 13 0 -17 17 -33 18 -5 1 -8 -26 -8 -60z"/>
<path d="M2695 81 c40 -42 105 -95 92 -74 -4 6 -35 35 -69 64 -59 50 -61 50
-23 10z"/>
<path d="M1752 57 c2 -30 6 -53 11 -50 11 7 8 91 -3 98 -7 4 -10 -13 -8 -48z"/>
<path d="M603 71 c-39 -34 -42 -45 -10 -36 18 6 20 5 10 -6 -7 -7 -13 -17 -13
-22 0 -19 37 39 42 66 3 15 5 27 4 27 0 0 -16 -13 -33 -29z"/>
<path d="M1804 79 c-4 -6 -10 -27 -14 -46 -11 -47 6 -38 30 15 15 33 16 42 5
42 -8 0 -17 -5 -21 -11z"/>
<path d="M470 60 c0 -13 42 -40 61 -40 10 0 20 -6 22 -12 3 -7 6 -4 6 7 1 16
-10 25 -44 37 -25 10 -45 13 -45 8z"/>
<path d="M1183 40 c-32 -19 -44 -40 -23 -40 6 0 10 5 10 10 0 6 19 20 43 30
26 12 34 20 22 20 -11 0 -35 -9 -52 -20z"/>
</g>
</svg>
